<svg xmlns="http://www.w3.org/2000/svg" viewBox="0 0 70 499"><defs><style>.cls-1{fill:none;opacity:0.15;}</style></defs><title>アートボード 139</title><g id="CHARACTER"><rect class="cls-1" width="70" height="499"/><path d="M45.57,162.12H69.5L35,.5.5,162.12H24.43L.5,274.25H24.43L.5,386.37H24.43L.5,498.5h69L45.57,386.37H69.5L45.57,274.25H69.5Zm-43.84-1L35,5.27,68.27,161.12H45.35L35,112.63,24.65,161.12Zm42.6,0H25.67L35,117.39ZM68.27,497.5H1.73L25.45,386.37h19.1ZM25.67,385.37,35,341.64l9.33,43.73Zm42.6,0H45.35L35,336.88,24.65,385.37H1.73L25.45,274.25h19.1ZM25.67,273.25,35,229.52l9.33,43.73ZM35,224.75l-10.35,48.5H1.73L25.45,162.12h19.1L68.27,273.25H45.35Z"/></g></svg>