<svg xmlns="http://www.w3.org/2000/svg" viewBox="0 0 1000 265"><defs><style>.cls-1{fill:red;}.cls-2{fill:none;opacity:0.19;}</style></defs><title>アートボード 361</title><g id="CHARACTER"><path class="cls-1" d="M25.26,138.34l-17,1.48A36,36,0,0,0,1.59,141c-.47,0-.64-.3-.79-1.46-.26-2-.61-5.36-.8-7.58a33.15,33.15,0,0,0,7.58,0l11.86-1c2.57-.23,5.26-.7,7.81-1,.61-.05.83.28.9,1.68.44,5.5.9,11.34,1.42,17.29l2.22,25.33c.61,7,1.4,14.94,1.87,19.72.1,1.17,0,1.41-.44,1.45a7.49,7.49,0,0,1-2.29.2c-.56.05-.66-.06-.79-1.46L29.69,189l-17,1.49a68.27,68.27,0,0,0-7.24,1.1c-.36.15-.49-.19-.64-1.36-.26-2-.56-4.77-.79-7.45a41.6,41.6,0,0,0,8-.12l17-1.48Z"/><path class="cls-1" d="M64.62,180.54c.61,7,1.24,13.65,2,21.11.14,1,0,1.41-.35,1.45a10.21,10.21,0,0,1-2.7.23c-.38,0-.5-.31-.59-1.36-.52-7-1-14-1.64-20.79l-3-34.56A165.46,165.46,0,0,1,46,174.29c-.37.62-.72.41-1.12-.38a13.62,13.62,0,0,0-2.66-3.53,149.42,149.42,0,0,0,12.37-25.9,220.5,220.5,0,0,0,7.09-23.32,62.25,62.25,0,0,0,2.06-13.48,24.14,24.14,0,0,1,3.69,5,3.62,3.62,0,0,1,.1,3.29c-.5.75-1.21,2.93-2.08,6.42C64,128.48,62.7,133.3,61,139Z"/><path class="cls-1" d="M81.06,122.63c.3-.38.58-.4.93.39a150.18,150.18,0,0,1,6.78,20.47c.27,1,.33,1.61-.09,2.24a24.73,24.73,0,0,1-1.83,2.75c-.47.51-.69.17-1-1.09a148.65,148.65,0,0,0-6.89-21.28A20.63,20.63,0,0,1,81.06,122.63Zm11.12-7.91c.34-.38.58-.29.88.39a154.43,154.43,0,0,1,6.21,20.4,3,3,0,0,1,0,2.35,13.78,13.78,0,0,1-1.9,2.52c-.47.51-.67.41-1-.74a160.82,160.82,0,0,0-6.47-21.78A33.14,33.14,0,0,1,92.18,114.72Zm20.67,5a4,4,0,0,1,.31,3c-.4,1.33-.75,3.25-1.19,8.93a283.45,283.45,0,0,1-5,36.79c-2.65,12.23-5.91,22.28-10,30.52-.45.86-.67,1-1.15.34a9.42,9.42,0,0,0-3.14-3c5-9.61,8.41-19.56,11.13-32a237.37,237.37,0,0,0,4.61-34.4,126.77,126.77,0,0,0,.16-14.37A24.33,24.33,0,0,1,112.85,119.73Z"/><path class="cls-1" d="M136,114.65a99.3,99.3,0,0,0-.56-11.24,15.66,15.66,0,0,1,3.92,2.83,3.27,3.27,0,0,1,.45,3,14.44,14.44,0,0,0-.46,3.92c-.2,5.78-.32,11.32-.52,17.11a18,18,0,0,1,4.45-1.22c4.07-.35,6.52,4.61,7.75,18.62,1.32,15.06,1.51,29,.7,37.58-.61,6.52-2.23,9.49-4.52,9.69a6.45,6.45,0,0,1-4.94-1.69,2.55,2.55,0,0,1-.74-1.93,49.78,49.78,0,0,0-1.17-7c2.25,2,4.07,2.94,5.7,2.8,1.36-.12,2.14-1.37,2.6-6.35.58-6.76.49-18.63-.77-33-.8-9.1-1.78-12.31-4.3-12.09a14.43,14.43,0,0,0-4.94,1.73c-.94,20.43-2.38,38.91-4.69,56.05-.12.83-.39,1-.74.65a22.32,22.32,0,0,1-2.15-3,2.82,2.82,0,0,1-.25-1.86,494.86,494.86,0,0,0,4.61-50.51c-1.85.86-3.7,1.85-5.94,3.1a4.83,4.83,0,0,0-1.92,1.7c-.44.86-.86.9-1.26-.48-.55-1.95-1.16-4.6-1.77-7.84a12.9,12.9,0,0,0,4.8-1,67.9,67.9,0,0,0,6.39-2.79C135.84,126,135.94,121.24,136,114.65Zm17.15-10c.15-.37.26-.26.48.08a67.17,67.17,0,0,1,6.51,13.66,1.75,1.75,0,0,1,0,1.29L159,122.63c-.19.49-.44.39-.63-.18A61.56,61.56,0,0,0,151.68,108Zm.59,18.07c.26-.26.46-.16.74.4,3.88,6.72,7.48,16.64,10,27.6a3.47,3.47,0,0,1,0,2,17.71,17.71,0,0,1-1.64,3.32c-.33.62-.66.53-.86-.63-2.63-11.77-5.83-21.49-10.05-28.88A36.46,36.46,0,0,1,153.72,122.75Zm2.62-26c.16-.36.29-.49.5-.16a75.51,75.51,0,0,1,6.52,13.2,1.77,1.77,0,0,1,0,1.41l-1,2.91c-.15.48-.33.5-.58-.18A67.67,67.67,0,0,0,155.1,99.8Z"/><path class="cls-1" d="M174.41,173.16c.15-.48.32-.73.46-.74s.3.21.57.65c3.88,5.08,7.3,11.36,10.81,20.23a5.43,5.43,0,0,1,.35,1.38,2.81,2.81,0,0,1-.2,1.43L185,199.76c-.19.49-.31.74-.4.74s-.34-.08-.6-.88c-3.19-8.55-6.86-16-10.5-21.08a1.46,1.46,0,0,1-.4-.79,3.55,3.55,0,0,1,.13-1.19Z"/><path class="cls-1" d="M214.2,96.52a2.17,2.17,0,0,1,.59,1.36,4.91,4.91,0,0,1-.14,1.65,23.71,23.71,0,0,0-.2,4.73c0,2.58.09,4.81.19,7.51a45.44,45.44,0,0,0,12.54-6.16c.31-.26.48.08.63.77.25,1.27.5,3,.62,4.42.08.81-.07,1.3-.39,1.44a45.79,45.79,0,0,1-13.23,6.34c.31,6.2.55,11.12,1,16.73a17,17,0,0,1,8.22-4,61.49,61.49,0,0,0,0-9.88,13,13,0,0,1,2.89,2.92,4,4,0,0,1,.72,1.82,10.3,10.3,0,0,1-.31,2.38c-.13,1.19-.29,2-.42,3.21,6.89,1.87,11.59,12.52,12.76,25.94,1.61,18.33-4.11,28.24-10.76,32.94-.49.4-.83.19-1.23-1.18a13.56,13.56,0,0,0-2-4.18c3.19-1.81,6.47-5.63,8.35-9.43,1.66-3.68,3.25-9.11,2.39-18.92-1.09-12.49-5.58-18.68-9.8-19.61a193.19,193.19,0,0,1-6.27,32.78c.5,2.43,1,4.15,1.56,6.45a2.22,2.22,0,0,1-.08,1.77,10.23,10.23,0,0,1-1.53,2.49c-.26.26-.44.27-.65-.53-.43-1.61-.87-3.45-1.29-5.53-3,7.2-5.71,10.49-7.91,10.69-3.08.27-4.68-5.12-5.24-11.54-1-11.91,1.58-26.49,8-35.76-.49-6.66-.89-12.86-1.26-18.71a46.13,46.13,0,0,1-5.7,1,5.15,5.15,0,0,1-2.23-.16c-.43-.08-.59-.3-.74-1.47-.22-1.39-.42-3.25-.66-5.35a29.18,29.18,0,0,0,9.07-.68c-.17-4.1-.29-7.14-.46-10.19a67.55,67.55,0,0,0-.83-7.81A7.3,7.3,0,0,1,214.2,96.52ZM208,172.58c.27,3,1,5.44,2.53,5.31s3.86-3.28,6.4-9.74c-1.22-7.42-2.24-14.86-3.07-23.25C208.94,153.09,207.23,164.29,208,172.58Zm15.77-35.37c-2.43.21-5.29,1.87-7.57,4.31.75,8,1.62,14.79,2.73,21.52A179.57,179.57,0,0,0,223.73,137.21Z"/><path class="cls-1" d="M266.87,108c.35-.26.51,0,.63.77.22,1.39.48,3.37.65,4.77.15,1.16.09,1.52-.31,1.79a43.46,43.46,0,0,1-8,5.52c-.73,23.95-1.8,44.51-3.46,63.71-.1,1.07-.28,1.09-.64.76a28.51,28.51,0,0,1-2.42-2.37,2.24,2.24,0,0,1-.32-1.5c2.08-20.89,3.15-39.33,3.63-59a43.15,43.15,0,0,1-9.31,2.23c-.56,0-.66-.06-.85-1.11-.23-1.62-.59-4.06-.93-6.38a11.35,11.35,0,0,0,3,0,30.32,30.32,0,0,0,8.28-2.14c.12-6.24.12-10.47.07-14.82-.05-3.29-.15-7.16-.58-11a12.63,12.63,0,0,1,4,2.36,1.89,1.89,0,0,1,.48,1.25,6,6,0,0,1-.21,1.9,21.7,21.7,0,0,0-.35,4.62c-.14,4.83-.14,9.66-.27,14.14A34.53,34.53,0,0,0,266.87,108Zm2.34,53.67c.38,0,.49.2.62,1.13,1.25,10.48,4.17,13.75,10.05,13.23a21.22,21.22,0,0,0,6.78-2.12c.36-.15.5-.16.63.77.22,1.39.53,4,.68,5.59.1,1.16,0,1.41-.38,1.56a17.92,17.92,0,0,1-6,1.7c-5,.44-8.31-.92-10.83-5.52-1.94-3.36-3-8.56-3.67-15.56A6.56,6.56,0,0,1,269.21,161.69Zm-1.45-30.1c-.1-1.05,0-1.41.45-1.8a16.81,16.81,0,0,1,8-3.17,19.93,19.93,0,0,1,5.89.66c.58.18.7.53.81,1.22.15,1.17.41,3.61.5,5.14s0,1.76-.48,1.57a15.85,15.85,0,0,0-6.09-.77,18.54,18.54,0,0,0-8.36,3.32C268.17,135.79,267.88,133,267.76,131.59Z"/><path class="cls-1" d="M297.4,90.76a2,2,0,0,1,.9,1.69,19.43,19.43,0,0,1-.1,3.07c-.07,1.41.06,5,.49,12.07,1.12,17.67,2.24,33.68,3.65,49.8,1.14,13.07,2.94,16.91,7,16.56,5.93-.52,11.22-10,14.86-23.77a61.93,61.93,0,0,0,1.39,6.7,14.11,14.11,0,0,1,.33,1.62,5,5,0,0,1-.37,2.26c-3.87,12.22-9.4,20.59-16.08,21.17-5.27.47-8.67-5.59-10.17-22.75-1.45-16.58-2.7-35.64-3.9-52.12a163.46,163.46,0,0,0-1.92-17.6A9.42,9.42,0,0,1,297.4,90.76Z"/><path class="cls-1" d="M348.93,101.55c.89,19.8.2,39.39-1.7,51.55-1.26,8.7-3.06,12.39-5.81,12.63-3.5.3-7.66-9-9.14-25.91-.94-10.74,0-22.35,2.77-30.71s7-13.66,12.88-14.18c10.46-.91,18,13.84,20,36.13,1.66,19-1.71,34.74-11.29,42-.53.4-.87.2-1.32-1.17a14.17,14.17,0,0,0-2.2-4.16c8.85-5.37,13.08-18.32,11.37-37.82-1.51-17.27-7.95-29.06-14.63-28.48Zm-11.39,12.29c-2.46,8-3,17.67-2.28,25.61,1.12,12.72,3.7,18,5.38,17.88s2.76-2.83,3.59-8.9c1.47-10.72,2.36-29,1.47-46.13C342.16,103.79,339.29,108,337.54,113.84Z"/><path class="cls-1" d="M391.76,93.1c.08.81,0,.93-.29,1a43.42,43.42,0,0,0-5.15.22l-6.5.57a42.52,42.52,0,0,0-5.16.68c-.33,0-.38-.08-.45-.9l-.39-4.43c-.08-.94-.05-1.06.28-1.09a41.59,41.59,0,0,0,5.2-.22l1.73-.15L380.61,84a77.8,77.8,0,0,0-1.06-8.38,11.34,11.34,0,0,1,3.05.44,1,1,0,0,1,.64.88,11.73,11.73,0,0,1-.09,2.13,27.61,27.61,0,0,0,.18,4.8l.41,4.67,2.05-.18a39.55,39.55,0,0,0,5.12-.68c.33,0,.38.08.47,1Zm3.3,26.88c.06.7,0,.71-.31.73s-1.51,0-5.62.38l-8,.7a51,51,0,0,0-5.58.72c-.33,0-.39-.08-.45-.78l-.43-4.9c-.07-.82,0-.94.29-1a48,48,0,0,0,5.63-.26l5.74-.5c.4-4.62.65-8.76.75-13.47,0-1.42,0-2.94-.12-4.58a7.49,7.49,0,0,1,2.57,1.3,1.66,1.66,0,0,1,.61,1.12,4.06,4.06,0,0,1-.19,1.55,8.1,8.1,0,0,0-.36,2.38c-.2,4.14-.41,7.69-.78,11.48a46.16,46.16,0,0,0,5.39-.7c.33,0,.39.08.46.9ZM389,141.22a60.12,60.12,0,0,0,8.94,16.63,15,15,0,0,0-1.06,3.5c-.16.84-.26,1.32-.4,1.33s-.36-.32-.74-1a71.33,71.33,0,0,1-7-15.39c1.13,12.37,2.75,28.82,3.12,33,.06.7,0,.82-.3.85l-2.1.18c-.33,0-.39-.08-.45-.78-.37-4.2-1.47-19.52-2.5-31.78a101.27,101.27,0,0,1-5.67,23.91c-.26.73-.42,1.09-.56,1.11s-.37-.44-.68-1.36a16,16,0,0,0-1.59-3.62A86.33,86.33,0,0,0,385,141.56l-1.83.16a45.11,45.11,0,0,0-5.35.71c-.32,0-.38-.09-.45-.9L377,137c-.08-.93-.05-1.05.28-1.08a45.67,45.67,0,0,0,5.39-.24l2.57-.22-.17-2c-.31-3.5-.7-6.87-1.12-9.54a17.74,17.74,0,0,1,2.85.33,1.09,1.09,0,0,1,.7,1,12,12,0,0,1-.09,2.24,49.45,49.45,0,0,0,.31,6.21l.14,1.52L390,135a43.74,43.74,0,0,0,5.35-.71c.33,0,.38.09.47,1l.39,4.56c.08.81,0,.93-.29,1a48.59,48.59,0,0,0-5.39.24ZM378.33,98.15c.38-.5.53-.4.84.52a109,109,0,0,1,2.92,11.27c.17.93.15,1.16-.28,1.67l-1,1.15c-.56.64-.67.41-.84-.51-.65-3.59-1.72-8.32-2.66-11.53-.2-.69-.28-1,.19-1.55Zm35,68.23c.24,2.8.38,3.26,1.09,3.9s1.17.49,2.11.4a2.06,2.06,0,0,0,2.13-1.48c.38-1,.63-2.4-.15-12.92a8.41,8.41,0,0,0,1.8,2.19c.92.86.92.86,1,2.85.44,9.26.08,11.64-.58,13.23s-1.64,2.26-4,2.46c-1.68.15-3,0-3.93-.83s-1.61-2.8-2-6.88l-2.38-27.2-3.31.29c1.2,20.24-1.13,31.27-6.85,36.83-.73.77-.78.77-1.49-.93A16.55,16.55,0,0,0,395,175c6-3.82,8.76-14.41,7.47-32.42-2.28.32-3.06.51-3.25.52s-.38-.08-.46-.9-.3-4.56-1.17-14.48L394.78,95.3c-.89-10.15-1.31-13.88-1.36-14.46-.07-.82,0-.94.29-1a44.47,44.47,0,0,0,5.21-.22l6.21-.55a42.14,42.14,0,0,0,5.21-.69c.32,0,.38.09.45.9,0,.59.31,4.57,1.17,14.49l2.84,32.45c.87,9.93,1.3,13.77,1.36,14.47s0,.94-.29,1a37.3,37.3,0,0,0-4.69.17Zm-4.86-81.33-11.81,1,1.11,12.72,11.81-1Zm1.62,18.56-11.81,1,1.11,12.73,11.82-1Zm1.63,18.56-11.82,1,1.17,13.31,11.81-1Z"/><path class="cls-1" d="M451.93,113.36a1.47,1.47,0,0,0,1.08-.57c.13-.13.25-.37.44-.39s.49.19,1.55,2.1a8.3,8.3,0,0,1,1.2,3,3.45,3.45,0,0,1-.19,1.66,14.16,14.16,0,0,0-.62,3.7,166.82,166.82,0,0,1-4.52,27.33A47.1,47.1,0,0,0,468,165.47a25.91,25.91,0,0,0-.88,5c-.1,1.54-.2,2-.48,2a1.18,1.18,0,0,1-.68-.29,54.13,54.13,0,0,1-16.68-16.89c-2.82,8.13-6.79,14.94-12.59,20.16-.3.26-.52.51-.66.53s-.36-.44-.76-1.7a18,18,0,0,0-1.72-4.09c6.08-4.76,10.21-11.36,13.08-19.37-3.81-7-7.12-15.73-9.86-26.67-.07,2.48-.23,5-.36,7.21-1.08,16.09-3.62,29.61-7.65,41.13-.26.73-.41,1.22-.55,1.23s-.36-.44-.77-1.35a11.81,11.81,0,0,0-2-3.11c4.49-10.51,6.94-24,8.05-39.29.6-8.17.84-19.37.45-31.92l-6.44.57a57.65,57.65,0,0,0-6.15.77c-.32,0-.38-.09-.46-1l-.45-5.14c-.08-.93-.05-1.05.28-1.08a59.34,59.34,0,0,0,6.18-.31l6.82-.59-.23-4.81c-.34-6.55-.79-12.28-1.26-15.41a9.92,9.92,0,0,1,3.21.54,1.33,1.33,0,0,1,.75,1.11,10.93,10.93,0,0,1-.16,2.48c-.18,1.2.09,5.88.34,11.38,0,1.53.12,3.05.2,4.46l17.14-1.5a60.73,60.73,0,0,0,6.14-.77c.37,0,.43.08.51,1l.45,5.14c.08.93.05,1-.33,1.08a59.43,59.43,0,0,0-6.18.31l-17.51,1.53c.14,5.87.25,11.51.2,16.81Zm-13.18,7.5c2.41,10.26,5.63,18.57,9.5,25.17,2.23-7.84,3.43-16.77,4.19-26.36Z"/><path class="cls-1" d="M494.45,146c.09.93,0,1.29-.39,1.44a5.53,5.53,0,0,1-2,.65c-.28,0-.48-.55-.55-1.37-.45-5.14-.95-10.86-1.42-16.81-4.58,6.87-6.58,13-6,20s3.41,9.46,8.83,9a35.06,35.06,0,0,0,10.91-3.31c.22-.14.42,0,.58.77.3,1.74.64,4.06.78,5.7.1,1.05,0,1.53-.23,1.66a38.38,38.38,0,0,1-11.39,2.65c-6.54.57-11.15-3.26-12.25-15.75-.85-9.81,1-18,7.94-28.11-.78-7.93-2.13-11-4.88-10.63-2,.3-4.4,3.45-6.83,10.13-1.33,4.12-2.19,7.25-3.44,11.71-.21.84-.4.86-.68.3a47.89,47.89,0,0,1-2-4.41,2.24,2.24,0,0,1-.05-1.65,169,169,0,0,0,8-33.4,36.56,36.56,0,0,1-8.67,1c-.37,0-.5-.31-.61-1.13-.22-1.39-.58-4-.79-5.81a37.78,37.78,0,0,0,10.82-1.06c.25-3.56.57-7.46.66-11.83a42.44,42.44,0,0,0-.18-6.33,10.38,10.38,0,0,1,3.73,2.26,2.76,2.76,0,0,1,.32,2.56,16.7,16.7,0,0,0-.56,3.34c-.3,3-.51,5.46-.81,9a42.34,42.34,0,0,0,9.52-4.71c.35-.27.44-.28.6.42.23,1.62.52,3.25.73,5.11.07.82,0,1.17-.49,1.45a71,71,0,0,1-11.05,4.85,152,152,0,0,1-3.25,17.81l.07.23c1.66-3.67,3.58-5.37,5.4-5.53,3.45-.3,5.91,4.07,7.08,13.15,2.06-2.77,4.46-6,6.55-9a21.85,21.85,0,0,0,3-6.26,38.32,38.32,0,0,1,2.88,6.57c.52,1.72.21,2.45-.24,2.73a8.85,8.85,0,0,0-2.4,2.09c-3.22,4-5.93,7-9,10.91Z"/><path class="cls-1" d="M520,116.11c.38,4.32-.73,7.83-2.36,8s-3.38-3.12-3.76-7.44c-.36-4.08.69-7.7,2.42-7.85S519.62,112,520,116.11Zm15.55-1.36c.38,4.32-.73,7.83-2.36,8s-3.38-3.12-3.76-7.44c-.36-4.08.69-7.7,2.42-7.85S535.17,110.66,535.53,114.75Zm15.55-1.36c.38,4.32-.73,7.83-2.36,8s-3.38-3.12-3.76-7.44c-.36-4.08.74-7.71,2.42-7.85S550.72,109.3,551.08,113.39Z"/><path class="cls-1" d="M566.68,112c.37,4.32-.73,7.83-2.37,8s-3.37-3.11-3.75-7.43c-.36-4.09.69-7.71,2.42-7.86S566.32,107.94,566.68,112Zm15.55-1.36c.37,4.32-.73,7.83-2.37,8s-3.37-3.11-3.75-7.43c-.36-4.09.69-7.71,2.42-7.86S581.87,106.58,582.23,110.66Zm15.55-1.36c.37,4.32-.73,7.83-2.37,8s-3.37-3.11-3.75-7.43c-.36-4.09.74-7.71,2.42-7.86S597.42,105.22,597.78,109.3Z"/><path class="cls-1" d="M617.36,128.29l-3,.26-6.71-66.46,5-.43Zm3.38,25.7-5.09.45L614.56,142l5.09-.45Z"/><rect class="cls-2" width="1000" height="265"/></g></svg>