<svg xmlns="http://www.w3.org/2000/svg" viewBox="0 0 1000 265"><defs><style>.cls-1{isolation:isolate;}.cls-2{mix-blend-mode:soft-light;}.cls-3{fill:red;}.cls-4{fill:none;opacity:0.19;}</style></defs><title>アートボード 369</title><g class="cls-1"><g id="CHARACTER"><g class="cls-2"><path class="cls-3" d="M6.19,138.91c.37,4.32-.73,7.83-2.36,8S.45,143.77.07,139.45c-.36-4.09.69-7.71,2.42-7.86S5.83,134.83,6.19,138.91Zm15.55-1.36c.37,4.32-.73,7.83-2.36,8s-3.38-3.11-3.76-7.43c-.36-4.09.69-7.71,2.42-7.86S21.38,133.46,21.74,137.55Zm15.55-1.36c.37,4.32-.73,7.83-2.36,8s-3.38-3.12-3.76-7.43c-.36-4.09.74-7.72,2.42-7.86S36.93,132.1,37.29,136.19Z"/><path class="cls-3" d="M88.27,156.9c.07.82,0,.94-.29,1a55.41,55.41,0,0,0-6.09.3l-12.24,1.07c5.52,12.46,12,17.3,20.33,18.22a22.52,22.52,0,0,0-.75,4.89c-.15,2.13-.14,2.24-1.09,2.09-7.76-1.56-15-8.21-20.68-22.89a53.11,53.11,0,0,1-2.23,10.54c-2.94,8.38-8.05,12.36-13.39,15.29-.86.43-1,.2-1.54-2a18.17,18.17,0,0,0-1.48-4c6-2.41,11.51-6.06,14.2-14.06a36.91,36.91,0,0,0,1.68-7.68L54,160.61a57,57,0,0,0-6.05.77c-.32,0-.38-.09-.45-.91l-.41-4.67c-.07-.81,0-.93.29-1s1.7.08,6.09-.3l11.72-1a96.22,96.22,0,0,0-.27-9.63l-5.37.47c-4.58.4-6.19.78-6.43.8s-.43-.08-.5-.9c0-.58-.24-3.86-1-12.73l-2.12-24.28c-.78-8.88-1.16-12.13-1.21-12.72-.08-.93,0-1,.33-1.09.23,0,1.89.07,6.46-.33l2.9-.25c.32-2.73.43-4.74.5-7.1.06-1.54.07-3.07,0-5.06a10,10,0,0,1,3.08,1.38,1.6,1.6,0,0,1,.71,1.11,2.81,2.81,0,0,1-.2,1.43,11.41,11.41,0,0,0-.52,2.75c-.11,1.42-.25,3-.53,5.22l7.57-.66c4.57-.4,6.14-.77,6.42-.79s.38.08.47,1c0,.59.24,3.86,1,12.74l2.12,24.28c.78,8.87,1.16,12.13,1.21,12.72.07.81,0,.93-.29,1s-1.89-.07-6.47.33l-5.42.48c.26,3.5.35,6.67.33,9.61l13.45-1.17a58.35,58.35,0,0,0,6-.77c.32,0,.38.09.45.9ZM73,97.19,51.5,99.07l.83,9.57,21.48-1.88Zm1.3,14.94L52.8,114l.84,9.57,21.48-1.87ZM75.58,127,54.1,128.84l.9,10.27,21.48-1.88Z"/><path class="cls-3" d="M96.28,97.86a2.06,2.06,0,0,1,.53,1.24c0,.59,0,1.3,0,2.12A98.2,98.2,0,0,0,97.38,112c.65,7.48,1.32,14.59,3,26.45,1.9,13.71,4.79,23.58,7,23.38,1.87-.16,3-7.79,3.39-18.77a23.31,23.31,0,0,0,2.06,5.71,5.39,5.39,0,0,1,.63,2.88c-.48,9.57-2.23,18.67-5.36,18.94-3.92.34-8-12.94-10.68-31.18-1.67-11.62-3-24.79-3.69-32.5-.39-4.44-.68-7.23-1.35-11.17A8.12,8.12,0,0,1,96.28,97.86Zm23.06,7c.25-.38.47-.52.7-.07,5.67,10,10.1,24.06,12.64,39.6a2.18,2.18,0,0,1-.19,1.55,10.7,10.7,0,0,1-1.92,2.87c-.3.26-.57-.07-.68-.88-2.88-17.75-6.9-29.86-12.33-39.74A28.13,28.13,0,0,1,119.34,104.9Z"/><path class="cls-3" d="M156.44,95.42c.4-.27.56,0,.67.64.21,1.4.49,3.49.67,5,.14,1,.06,1.29-.3,1.44a79.94,79.94,0,0,1-7.5,4.07c-1.11,18.56-2.93,36.48-5.08,50.08-.15,1-.39.86-.71.42a20.93,20.93,0,0,1-2.18-3.34,2.6,2.6,0,0,1-.22-2,386.8,386.8,0,0,0,5-44.2,25.46,25.46,0,0,1-5.81,1.34,10.47,10.47,0,0,1-2.5,0c-.43-.08-.48-.19-.68-1.35-.27-1.51-.55-3.6-.79-5.81a16.46,16.46,0,0,0,3.73.14,25.11,25.11,0,0,0,6.27-1.49c.17-4.49.21-8.84.2-13.78a84.36,84.36,0,0,0-.42-9.14,12.06,12.06,0,0,1,3.85,2,1.66,1.66,0,0,1,.53,1.24,4.35,4.35,0,0,1-.22,1.79,21,21,0,0,0-.34,3.67c-.14,4.25-.28,8.62-.39,12.74A32.08,32.08,0,0,0,156.44,95.42Zm5.32,28c-.21-2.34-.44-4.43-.94-7.45a7.72,7.72,0,0,1,3.31,1.24,1.65,1.65,0,0,1,.64,1.36,12.9,12.9,0,0,1-.1,2.12,44.62,44.62,0,0,0,.3,5.51c.61,7,1.45,14,2.44,21.43a51.23,51.23,0,0,1,9.84,10.9c.43.55.41.9.35,1.85-.1,1.54-.43,3.68-.67,5.24-.16.83-.4.74-.74.18a43.69,43.69,0,0,0-8.06-10.47c1.07,11.78-.75,18.41-6.77,18.94-3.55.31-7.64-3.92-8.48-13.61-.77-8.75,2.07-15,6.65-15.4a10.5,10.5,0,0,1,4.79,1C163.41,139,162.36,129.72,161.76,123.42Zm-1.53,28.25c-3.74.32-5.1,4.09-4.72,8.41.47,5.37,2.41,7.67,5.49,7.4,3.83-.34,4.79-5.48,4.27-11.43-.13-1.52-.19-2.22-.29-2.8A7.83,7.83,0,0,0,160.23,151.67Zm3.36-53c.15-1,.28-1.08.74-.77a37,37,0,0,1,10.11,10.18,2.64,2.64,0,0,1,.27,2.09c-.14,1.54-.4,3.45-.66,4.76-.16.84-.31.74-.63.29a36.89,36.89,0,0,0-10.57-11.07C163.14,102.12,163.34,100.11,163.59,98.67Z"/><path class="cls-3" d="M198.29,160.69c.78,9-1.57,16.49-5.17,16.8s-7.22-6.66-8-15.65,1.57-16.49,5.16-16.8S197.5,151.7,198.29,160.69Zm-10.74.94c.5,5.72,2.77,10.22,5.06,10s3.75-5,3.25-10.75-2.73-10.23-5.07-10S187.05,155.91,187.55,161.63Z"/></g><rect class="cls-4" width="1000" height="265"/></g></g></svg>