<svg xmlns="http://www.w3.org/2000/svg" viewBox="0 0 1000 265"><defs><style>.cls-1{fill:red;}.cls-2{fill:none;opacity:0.19;}</style></defs><title>アートボード 357</title><g id="CHARACTER"><path class="cls-1" d="M19.83,131.58c2.83-3.08,5.68-5,8.48-5.22,5.37-.47,9.4,6.36,10.49,18.73,1.26,14.48-2.88,22-9.6,22.6a6.88,6.88,0,0,1-2.22,0c-.47-.07-.65-.41-.85-1.1A40,40,0,0,0,24.2,160a9.86,9.86,0,0,0,4.23.57c4.67-.4,7.87-5.27,7-15.78-.81-9.34-3.89-11.66-6.46-11.43-3.08.27-5.13,2.09-7.13,4a104.24,104.24,0,0,0-8.06,9.41C18,165.26,21.89,182.1,26,200.32c.29,1.15.32,1.5-.1,2.13a7.47,7.47,0,0,1-2.1,2.3c-.27.14-.33,0-.48-.67C19.28,185,15.69,168.76,11.29,150.2c-2,2.65-3.46,4.54-5,6.55a15.26,15.26,0,0,0-2.2,3.84c-.18.61-.43,1-.62,1s-.54-.3-.9-1.1A67.6,67.6,0,0,1,0,153.43a19.64,19.64,0,0,0,4.42-3.8c1.62-1.91,3.09-3.45,5.21-6.1-.93-4.16-1.84-8.08-3-12.69A83.61,83.61,0,0,0,3.5,120.3a9.41,9.41,0,0,1,3.88-1.4c.56-.05.67.65.76,1.7A21.7,21.7,0,0,0,8.57,124c.28,1.51.66,3.24,1.61,7.63.86,3.92,1.36,5.88,2,8.65A97.3,97.3,0,0,1,19.83,131.58ZM17,107.94c.24-.49.33-.5.7-.06a57.11,57.11,0,0,1,6,10.65,2.77,2.77,0,0,1,.15,1.75,22,22,0,0,1-1.43,4c-.16.37-.4.27-.64-.3a47.41,47.41,0,0,0-6.59-11.89A44.78,44.78,0,0,1,17,107.94Z"/><path class="cls-1" d="M57.46,105.11a2.34,2.34,0,0,1,.91,1.8,8.92,8.92,0,0,1-.1,1.54,24,24,0,0,0,0,4.59c.29,5.38.57,9.71,1,15.67a12.79,12.79,0,0,1,1.87,2.54,3.27,3.27,0,0,1,.25,2.34c-.42,2.74-.78,5.59-1.18,9.15.09,1.53.2,2.81.3,4.45,1.43-5.65,2.7-10,4.08-14.12,2.25-7.14,4.55-12,7.26-12.28,3.22-.28,5.45,4.81,6.27,14.15.45,5.14,1,12.86,1.48,21.75s.88,15.45,1.22,19.31c.64,7.35,1.59,9,3.13,8.9,1.31-.11,2.49-1.63,3.49-4.78a53.65,53.65,0,0,0,1.87-11.34,27.91,27.91,0,0,0,1.6,5.86,6.37,6.37,0,0,1,.33,3.74c-1.4,8.83-3.65,13.73-6.87,14s-5.53-4-6.48-14.84c-.46-5.26-.9-11.92-1.37-20-.5-8.42-.88-14.39-1.38-20.11-.57-6.42-1.54-10-3-9.85-1.68.14-3.4,3.12-5.45,9.18-1.68,5.09-3.19,10.4-5.44,19.06,1.06,12.14,2.56,27.66,4,44,.06.7,0,1.06-.37,1.21a11.89,11.89,0,0,1-2.22.42c-.23,0-.4-.31-.49-1.25-1.5-17.16-2.61-29.29-3.33-39.23-1.55,8.14-3,16.62-4.65,25.93-.19,1.08-.32,1.21-.74.66a23.42,23.42,0,0,1-2.08-3.82,3,3,0,0,1-.09-2.11c2.71-12.59,4.63-22.4,6.45-33.27-.26-4.09-.54-7.24-.75-10.17a53.35,53.35,0,0,0-5.91,6.05c-.48.51-.8,1.6-1.08,1.62s-.56-.42-.81-1.1a59,59,0,0,1-1.94-6.65,7.78,7.78,0,0,0,3.16-1.46c1.58-1.31,3.47-2.89,6.11-5.47-.42-5.38-.82-10.52-1.24-15.78-.32-3.73-.67-7.7-1.34-11.52A7.19,7.19,0,0,1,57.46,105.11Z"/><path class="cls-1" d="M114.25,123.32c2.83-3.08,5.68-5,8.48-5.22,5.37-.47,9.4,6.36,10.49,18.73,1.26,14.48-2.88,22-9.6,22.6a6.88,6.88,0,0,1-2.22,0c-.47-.08-.64-.41-.85-1.1a40,40,0,0,0-1.93-6.54,9.88,9.88,0,0,0,4.24.57c4.66-.4,7.86-5.27,6.94-15.78-.81-9.34-3.89-11.66-6.46-11.43-3.08.27-5.13,2.09-7.12,4a102.74,102.74,0,0,0-8.07,9.41c4.25,18.45,8.16,35.29,12.3,53.51.29,1.15.32,1.5-.1,2.12a7.4,7.4,0,0,1-2.1,2.31c-.27.14-.33,0-.48-.67-4.07-19-7.66-35.32-12.06-53.88-2,2.65-3.46,4.54-5,6.55a15.26,15.26,0,0,0-2.2,3.84c-.18.61-.43,1-.62,1s-.54-.31-.9-1.1a67.6,67.6,0,0,1-2.59-7.06,19.67,19.67,0,0,0,4.42-3.8c1.62-1.91,3.09-3.45,5.21-6.1-.93-4.16-1.84-8.08-3-12.69A83.61,83.61,0,0,0,97.92,112a9.27,9.27,0,0,1,3.88-1.4c.56,0,.67.65.76,1.7a20.68,20.68,0,0,0,.44,3.37c.27,1.51.65,3.24,1.6,7.63.86,3.92,1.36,5.88,2,8.65A95.92,95.92,0,0,1,114.25,123.32Zm-2.82-23.64c.24-.49.33-.5.7-.06a57.11,57.11,0,0,1,6,10.65,2.77,2.77,0,0,1,.15,1.75,22,22,0,0,1-1.43,4c-.16.37-.4.27-.64-.3a47.41,47.41,0,0,0-6.59-11.89A43.6,43.6,0,0,1,111.43,99.68Z"/><path class="cls-1" d="M151.88,96.85a2.34,2.34,0,0,1,.91,1.8,8.92,8.92,0,0,1-.1,1.54,23.87,23.87,0,0,0,0,4.58c.29,5.39.57,9.72,1,15.68a12.79,12.79,0,0,1,1.87,2.54,3.25,3.25,0,0,1,.25,2.33c-.42,2.75-.78,5.6-1.18,9.16.09,1.53.2,2.81.3,4.45,1.43-5.66,2.7-10,4.08-14.12,2.25-7.14,4.55-12,7.26-12.28,3.22-.28,5.45,4.81,6.27,14.15.45,5.14,1,12.86,1.48,21.75s.88,15.45,1.22,19.31c.64,7.35,1.59,9,3.13,8.9,1.31-.12,2.49-1.63,3.49-4.78a53.65,53.65,0,0,0,1.87-11.34,27.91,27.91,0,0,0,1.6,5.86,6.37,6.37,0,0,1,.33,3.74c-1.4,8.83-3.65,13.73-6.87,14s-5.53-4-6.48-14.84c-.46-5.26-.9-11.92-1.37-20-.5-8.43-.88-14.39-1.38-20.11-.56-6.42-1.53-10-3-9.85-1.68.14-3.4,3.12-5.45,9.18-1.68,5.09-3.19,10.39-5.44,19.06,1.06,12.14,2.56,27.66,4,44,.06.7,0,1.06-.37,1.2a10.92,10.92,0,0,1-2.22.43c-.23,0-.4-.31-.49-1.25-1.5-17.16-2.61-29.3-3.33-39.23-1.55,8.13-3,16.62-4.65,25.93-.19,1.08-.32,1.21-.74.66a23.42,23.42,0,0,1-2.08-3.82,3,3,0,0,1-.09-2.11c2.71-12.59,4.63-22.4,6.45-33.27-.26-4.09-.54-7.24-.75-10.17a53.35,53.35,0,0,0-5.91,6.05c-.48.51-.8,1.6-1.08,1.62s-.56-.42-.81-1.1a58.64,58.64,0,0,1-1.94-6.66,7.76,7.76,0,0,0,3.16-1.45c1.58-1.31,3.47-2.89,6.11-5.47-.42-5.38-.82-10.52-1.24-15.78-.32-3.73-.67-7.7-1.33-11.52A7.19,7.19,0,0,1,151.88,96.85Z"/><path class="cls-1" d="M192.11,167.32c.15-.48.32-.73.46-.74s.3.2.57.65c3.88,5.07,7.3,11.36,10.8,20.23a5.06,5.06,0,0,1,.36,1.38,2.83,2.83,0,0,1-.2,1.43l-1.38,3.65c-.19.49-.31.73-.4.74s-.34-.09-.6-.89c-3.19-8.54-6.86-16-10.5-21.08a1.43,1.43,0,0,1-.4-.79,3.49,3.49,0,0,1,.13-1.18Z"/><path class="cls-1" d="M258.23,120c.06.7.07.82-.26.85a54.37,54.37,0,0,0-6,.28l-1.68.15,1.42,16.23c1.15,13.19,1.75,18.9,1.8,19.48.07.82,0,.94-.29,1l-2.11.18c-.32,0-.38-.08-.45-.9l-.48-5.48-9.53.83.48,5.49c.07.81,0,.93-.29,1l-2.15.19c-.28,0-.33-.09-.41-.9s-.44-6.2-1.59-19.27L235.3,122.6l-9,.79,4.54,52,22.46-2a63.33,63.33,0,0,0,6.57-.81c.32,0,.38.09.45.9l.47,5.38c.07.81,0,.93-.29,1s-1.84-.07-6.6.34l-22.47,2,.53,6.07c.08.82,0,.94-.33,1l-2.24.2c-.33,0-.39-.09-.46-.9s-.37-5.27-1.34-16.36l-4.24-48.44-.88.07a56.48,56.48,0,0,0-5.91.76c-.33,0-.34-.09-.4-.79l-.47-5.37c-.07-.82-.08-.94.24-1a56.94,56.94,0,0,0,5.95-.29l.89-.08-.95-10.85c-.68-7.83-1.06-11.09-1.7-15.74a11.48,11.48,0,0,1,3.23.43c.34.08.57.54.61,1s0,1.3,0,2.24c0,1.41.19,4.34.82,11.57l1,11.09,9-.78-1.14-13.07c-.5-5.72-1-10.15-1.56-14a12.08,12.08,0,0,1,3.1.44,1,1,0,0,1,.64.88,15.88,15.88,0,0,1,0,2.6c-.08,1.3.14,4.34.63,9.94l1.13,13,9.53-.83-1.11-12.73c-.53-6.07-1-10.5-1.59-14.33a12,12,0,0,1,3.1.44,1,1,0,0,1,.64.88,14.72,14.72,0,0,1,0,2.59c-.08,1.3.14,4.34.66,10.3l1.11,12.6,1.68-.14a58.09,58.09,0,0,0,5.91-.75c.32,0,.33.08.41.9Zm-10.65,1.52-9.52.83,2.08,23.82,9.53-.83Z"/><path class="cls-1" d="M278.74,107.63c.08.93.05,1.05-.28,1.08a38.79,38.79,0,0,0-4.92.2l-5.75.5a38.16,38.16,0,0,0-4.88.66c-.33,0-.39-.08-.47-1l-.42-4.78c-.07-.82,0-.94.3-1a37.18,37.18,0,0,0,4.92-.19l5.74-.51a39,39,0,0,0,4.89-.66c.32,0,.38.09.45.9Zm-2.53-16c.07.81,0,.93-.29,1a29.83,29.83,0,0,0-4.13.13l-4,.35a27.57,27.57,0,0,0-4.09.59c-.32,0-.38-.08-.45-.9l-.41-4.67c-.07-.81,0-.94.29-1a27.86,27.86,0,0,0,4.13-.13l4-.35a28.89,28.89,0,0,0,4.09-.59c.32,0,.38.08.45.9Zm2.14,32c.08.82,0,.94-.33,1a22.63,22.63,0,0,0-3.85.1l-3.51.31a24.39,24.39,0,0,0-3.85.57c-.33,0-.38-.08-.46-.9l-.39-4.55c-.08-.82,0-.94.29-1a23.17,23.17,0,0,0,3.89-.1l3.51-.31a22.84,22.84,0,0,0,3.8-.57c.38,0,.44.08.51.9Zm1.36,15.53c.08.81,0,.94-.33,1a22.66,22.66,0,0,0-3.85.1l-3.51.31a24.1,24.1,0,0,0-3.85.57c-.33,0-.39-.09-.46-.9l-.4-4.56c-.07-.81,0-.93.3-1a24.15,24.15,0,0,0,3.89-.11l3.5-.3a22.87,22.87,0,0,0,3.81-.57c.38,0,.43.08.51.89Zm2.75,27.05c1.19,13.66,1.48,15.87,1.53,16.45.07.82,0,.94-.29,1l-1.92.16c-.32,0-.38-.08-.45-.9l-.34-3.85-7.56.66.52,6c.07.81,0,.94-.29,1l-1.92.17c-.33,0-.38-.08-.45-.9-.06-.58-.17-2.93-1.41-17.17l-.63-7.12c-.62-7.12-.93-9.56-1-10.15-.07-.82,0-.94.29-1a26.79,26.79,0,0,0,4.13-.12l3.88-.34a27.68,27.68,0,0,0,4.14-.6c.32,0,.38.09.45.9,0,.47.16,2.93.63,8.3Zm-3.52-10.63-7.57.66L272.93,174l7.56-.66Zm26.41-34.78c.07.82,0,.94-.29,1s-1.8-.07-6.28.32l-4.85.42,1.68,19.27,2.71-.24a52.12,52.12,0,0,0,5.54-.72c.32,0,.38.08.45.9s.21,3.51.87,11l.87,9.93c1.42,16.22,1.73,18.78,1.78,19.37.08.81,0,.93-.29,1l-2.1.19c-.33,0-.38-.09-.45-.9l-.45-5.14-13.92,1.22.51,5.83c.07.82,0,.94-.29,1l-2.1.18c-.33,0-.39-.08-.46-.9s-.2-3.39-1.63-19.73l-.77-8.76c-.77-8.87-1.12-11.78-1.18-12.48s0-.94.29-1a50.45,50.45,0,0,0,5.58-.25l2.24-.2-1.69-19.26-3.92.34a59.13,59.13,0,0,0-6.19.78c-.33,0-.38-.09-.45-.9l-.44-5c-.08-.82,0-.94.29-1a57.23,57.23,0,0,0,6.23-.31l3.92-.34-1.73-19.85a45.64,45.64,0,0,1-7.5,4.19c-.72.3-.77.3-1.21-1.54a19.77,19.77,0,0,0-1.51-4.34A34.82,34.82,0,0,0,294.6,84a14.74,14.74,0,0,0,2.42-4.1,42.58,42.58,0,0,1,2.34,4.74,5.52,5.52,0,0,1,.48,1.72c.05.59-.2,1-.66,1a2.57,2.57,0,0,0-1.38.95,62.45,62.45,0,0,1-6.33,6.2l1.89,21.59,4.86-.42c4.48-.39,6-.76,6.24-.78s.38.08.45.9Zm-3.41,26.65L288,148.69l2.05,23.47L304,170.94Z"/><path class="cls-1" d="M322.81,94a96.91,96.91,0,0,0-.56-11.24,15,15,0,0,1,3.92,2.83,3.24,3.24,0,0,1,.46,3,13.93,13.93,0,0,0-.46,3.92c-.2,5.78-.33,11.32-.53,17.1a18,18,0,0,1,4.46-1.21c4.06-.36,6.52,4.6,7.74,18.61,1.32,15.06,1.51,29.05.71,37.59-.61,6.52-2.23,9.48-4.52,9.68a6.41,6.41,0,0,1-4.95-1.68,2.62,2.62,0,0,1-.73-1.94,48.35,48.35,0,0,0-1.18-6.95c2.25,2,4.07,2.93,5.71,2.79,1.35-.12,2.14-1.36,2.59-6.34.59-6.76.49-18.63-.76-33-.8-9.11-1.79-12.31-4.31-12.09a14.28,14.28,0,0,0-4.93,1.72c-.94,20.44-2.38,38.91-4.69,56.05-.12.84-.39,1-.75.66a22.35,22.35,0,0,1-2.14-3,2.83,2.83,0,0,1-.26-1.86,494.79,494.79,0,0,0,4.62-50.52c-1.86.87-3.7,1.86-5.94,3.11a4.69,4.69,0,0,0-1.92,1.7c-.45.86-.87.9-1.27-.48-.55-2-1.16-4.6-1.77-7.84a13.2,13.2,0,0,0,4.81-1c2.51-.93,4.26-1.79,6.39-2.8C322.67,105.31,322.78,100.6,322.81,94ZM340,84c.16-.37.26-.26.48.07A66.48,66.48,0,0,1,347,97.78a1.65,1.65,0,0,1,0,1.29L345.86,102c-.19.49-.43.39-.62-.18a61.36,61.36,0,0,0-6.73-14.47Zm.6,18.06c.26-.26.45-.15.74.41,3.88,6.72,7.48,16.64,10,27.59a3.5,3.5,0,0,1,0,2,17.12,17.12,0,0,1-1.64,3.32c-.32.61-.66.53-.85-.63C346.2,123,343,113.3,338.77,105.91A35.7,35.7,0,0,1,340.56,102.1Zm2.62-26c.15-.36.28-.49.5-.16a77.19,77.19,0,0,1,6.52,13.19,1.83,1.83,0,0,1,0,1.42l-1,2.91c-.15.48-.34.5-.59-.19a67.06,67.06,0,0,0-6.64-14.12Z"/><path class="cls-1" d="M358.68,98.4c.39.2.5.31.57,1.13a239.24,239.24,0,0,1,.73,26.64c0,.82-.12.83-.59.28l-1.51-1.63a1.78,1.78,0,0,1-.46-1.61,194.36,194.36,0,0,0-.58-24.88c-.08-.94,0-1,.6-.65Zm6.26,4.39c.21,2.34.38,4.79.61,7.48.63-3.59,1.2-7.28,1.46-10.25.12-1.77.23-3.31.25-5.19a24.78,24.78,0,0,1,2.11,3.11,3.14,3.14,0,0,1,.5,1.48,3.47,3.47,0,0,1-.2,1.43,12.86,12.86,0,0,0-.63,3c-.58,3.58-1.45,8.71-2.88,15,.31,4.68.58,9.36.77,13.7a107.78,107.78,0,0,0,8.43,22.08,17.68,17.68,0,0,0-1.22,3.87c-.12.72-.23,1.08-.37,1.09s-.31-.32-.61-1a135.87,135.87,0,0,1-5.93-16.78c0,1,0,2,0,2.83-.09,10.83-1,22.08-3.2,31.21-.21.85-.35,1.33-.5,1.34s-.36-.44-.71-1.23a10,10,0,0,0-1.73-3c2.37-8.92,3.29-18.88,3.42-29.83.15-10.6-.88-25.1-2.15-39.57l-.7-8.06c-1-11.32-1.44-16.46-2.22-21.57a10.68,10.68,0,0,1,2.91.46.77.77,0,0,1,.63.76c.06.7,0,1.42,0,2.48,0,1.76.13,4.1,1.27,17.18Zm27.66,60.05c.24,2.8.57,3.83,1.08,4.37s1.62.68,3,.57c1.68-.15,2.62-.7,3.05-1.68.62-1.59.62-3.7-.09-12.93a9.18,9.18,0,0,0,2,2.41c.86.63.86.63,1,2.73.51,8.07.19,10.81-.63,12.76-.94,2.2-2.44,2.8-5.1,3s-4-.12-4.91-1.33-1.54-3-1.9-7.13l-2.49-28.48-4.53.39c1,20-.83,32.43-7.86,39.75-.3.37-.52.51-.66.52s-.46-.43-.89-1.56a15.87,15.87,0,0,0-1.86-3.49c7.64-6.31,9.62-17.54,8.51-35l-.88.08c-4.62.41-6.19.78-6.47.8s-.34-.08-.41-.9l-.39-4.44c-.08-.93,0-1.05.24-1.08a47.56,47.56,0,0,0,5.25-.22L376.35,117a53.7,53.7,0,0,0-6,.76c-.32,0-.38-.09-.45-.91l-.4-4.55c-.07-.82,0-.94.29-1a54.64,54.64,0,0,0,6-.29l-.2-2.21c-.36-4.21-.6-6.89-1.13-9.78a14.81,14.81,0,0,1,2.85.33,1.07,1.07,0,0,1,.6,1,5.25,5.25,0,0,1-.05,1.53,36.37,36.37,0,0,0,.29,6.57l.21,2.33,9.9-.87-.2-2.21c-.37-4.21-.6-6.89-1.14-9.79a10.16,10.16,0,0,1,2.86.34c.33.09.55.42.6,1a5.62,5.62,0,0,1-.05,1.53,40,40,0,0,0,.29,6.57l.2,2.33.52,0a64.44,64.44,0,0,0,6.47-.8c.28,0,.34.09.41.91l.4,4.55c.07.82,0,.94-.25,1s-1.79-.07-6.51.34l-.51,0,1.31,15.06a58.93,58.93,0,0,0,6.1-.77c.33,0,.34.09.42,1l.39,4.43c.07.82.08.94-.25,1a61.88,61.88,0,0,0-6.46.33l-2.57.22Zm1.31-72.7c.07.82,0,.94-.3,1a55.88,55.88,0,0,0-6.13.3l-4.58.4.18,2.1c.63,7.12,1,9.92,1,10.5.07.82,0,.94-.3,1l-2,.17c-.33,0-.39-.08-.46-.9s-.2-3.39-.83-10.51l-.18-2.1-3.41.29c-4.39.39-5.81.75-6.09.77s-.39-.08-.46-.9L370,87.53c-.07-.82,0-.94.29-1a55.73,55.73,0,0,0,6.14-.3l3.41-.3-.26-2.91A111.1,111.1,0,0,0,378.25,72a9,9,0,0,1,2.86.46c.34.09.56.42.61,1a6.9,6.9,0,0,1,0,1.64,57.61,57.61,0,0,0,.39,7.73l.26,2.92,4.57-.4a60.71,60.71,0,0,0,6.1-.77c.33,0,.39.09.46.9Zm-5.09,25.74-9.9.86,1.31,15.06,9.9-.86Z"/><path class="cls-1" d="M409.86,78.86a3.37,3.37,0,0,1,.82,1.82,10.6,10.6,0,0,1-.12,1.89c-.16,1.42-.13,3.89-.15,7,.2,13.51.53,26.42,1.6,38.68a210.12,210.12,0,0,0,3.07,22.67c.56-7,1-12.32,1.66-19.67a30.18,30.18,0,0,0,1.54,5.16,4.4,4.4,0,0,1,.4,1.37,15.64,15.64,0,0,1-.19,2.73c-.58,6.28-.87,11-1.15,16.92,0,.94,0,2,.06,2.82s.18,1.51.24,2.21a1.66,1.66,0,0,1-.19,1.08,5.15,5.15,0,0,1-1.7,1.56c-.31.14-.56,0-.83-.87-2.09-7.23-4.63-22.3-5.63-33.74-1.13-13-1.57-23.86-1.87-35.83-.27-9-.51-13.37-1-18.5A12.19,12.19,0,0,1,409.86,78.86Zm21.28,26.49a35,35,0,0,1-6.47,1.39c-1.16.1-2.38.21-3.84.22-.51,0-.69-.41-.87-1.34-.2-1.27-.49-3.48-.76-6.05a25.78,25.78,0,0,0,5.27,0,27.93,27.93,0,0,0,6-1.23c-.85-8.63-1.38-14.11-1.8-17.84a54.18,54.18,0,0,0-1.36-8,7.43,7.43,0,0,1,3.83.73,1.64,1.64,0,0,1,.68,1.35,14.44,14.44,0,0,1,0,1.65,29.79,29.79,0,0,0,.19,4.81c.4,4.55.95,10.38,1.46,16.22a28.92,28.92,0,0,0,6.43-3.5c.35-.27.55-.17.66.64.24,1.63.43,3.26.69,5.12.14,1,0,1.41-.29,1.56a29.27,29.27,0,0,1-6.77,3.29l1.57,16.92c1.09,11.91,1.31,20.36.51,28.43a52.26,52.26,0,0,1-4.88,18.42c-.39.86-.62,1-.8,1s-.44-.2-.84-1a7.09,7.09,0,0,0-2.29-2.51c3.53-5.84,5.28-11.75,5.86-20.63.45-6.15.33-13.44-.93-26.85Z"/><path class="cls-1" d="M460.26,117.63c2.88-5.78,5.95-8.88,9.31-9.17,6.73-.59,11.79,9.44,13.12,24.61,1.52,17.4-2.89,30.49-12.79,31.35-5.6.5-8.67-5.59-9.33-13.06-.53-6.07,1.11-12.09,4.43-12.38,4.2-.37,7.64,6.15,9.4,16,3.72-3.62,6-10.4,5-21.84-1-11.91-5.31-18.83-9.75-18.44-4.62.41-8.72,6.77-11.69,14.32-1.24,3.05-2.17,6.3-3.27,9.93-.29,1-.51,1.1-.91.31-.69-1.35-1.54-3-2.14-4.51a2.18,2.18,0,0,1,0-1.77c3-8.38,4.85-14.54,8.28-27,2.07-7.59,4.21-15.31,6.88-26.24-3.74,1.85-7.23,3.92-11.22,6.27A4.94,4.94,0,0,0,454,87.23a1.75,1.75,0,0,1-.83.67c-.33,0-.6-.42-.87-1.34a77.15,77.15,0,0,1-1.83-8,7.15,7.15,0,0,0,4.12-.24,61.08,61.08,0,0,0,11.26-5.22A3.34,3.34,0,0,0,467.23,72c.15-.36.39-.86.58-.87s.49.19.92.86a31.6,31.6,0,0,1,2.44,4.73,6.52,6.52,0,0,1,.5,1.95,3.16,3.16,0,0,1-.51,2.28c-.56.52-1,1.38-1.84,4.28-3.19,11.34-5.61,19.78-9.23,32.1Zm5.38,27.64c-1.49.13-2.68,2.12-2.37,5.74.34,3.85,2.31,7,5.44,6.7a7.2,7.2,0,0,0,3-.85C470.5,150.26,468.3,145,465.64,145.27Z"/><path class="cls-1" d="M500.23,65.78c.56.42.7,1.47.59,2.89a40.88,40.88,0,0,0,0,4.59c.36,5.26.58,9.36,1,15a3.32,3.32,0,0,0,.66-1c.07-.24.2-.37.3-.38s.51.43,1,1.44a7.69,7.69,0,0,1,.83,2.52,7,7,0,0,1-.39,2.5c-.55,2.4-1,4.92-1.56,8.61.18,2.57.35,4.44.53,6.54,3.68-10.08,7.94-15.75,12.89-16.18,7.05-.62,12.16,11,13.52,26.58,1.26,14.35-1.34,29.29-9.29,36.33-.55.64-1,.33-1.42-.69a14.1,14.1,0,0,0-2.61-4c4.23-3.2,6.81-7.66,8.62-13.81a51,51,0,0,0,1.3-18c-1.08-12.37-4.82-20.16-9.59-19.75s-8.68,5.59-12.73,17.47c1.25,14.83,2.61,29.3,4.05,44.58.06.7-.06,1-.29,1.09a13.93,13.93,0,0,1-2.45.45c-.28,0-.39-.21-.47-1-1.16-14.37-2.19-26.75-3.51-42.28-1.94,10.05-3.66,19.49-5.46,28.95-.21.84-.43,1-.76.53-.67-1.23-1.5-2.69-2.09-4a2.58,2.58,0,0,1-.12-1.87c2.59-10.81,5-22.31,7.42-35.12-.29-3.85-.51-7.48-.76-10.28-1.71,1.44-3.7,3.38-5.17,4.92-.94,1-1.38,2.47-1.74,2.62s-.51-.42-.93-1.44c-.51-1.49-1.22-3.78-1.87-6.31a9,9,0,0,0,3-1.44c1.89-1.57,3.65-2.91,6.19-5.13-.31-4.56-.69-8.88-1.19-15.77a96,96,0,0,0-1.28-10.24A8.56,8.56,0,0,1,500.23,65.78Z"/><path class="cls-1" d="M570.21,112.12c-1.48-16.92-4-26.23-7.16-25.95-1.87.16-3.89,2.34-6.54,8.57a144.84,144.84,0,0,0-6.6,19.75c1.37,15.17,2.44,25.31,3.9,41.42.05.58,0,.94-.37,1.09a3.83,3.83,0,0,1-2.27.43c-.28,0-.42-.43-.49-1.25-1.38-15.29-2-24.05-3.21-38.3-1.12,7-2.38,15.26-4,25.17-.1.95-.29,1-.7.53a24.94,24.94,0,0,1-2.15-3.57c-.29-.57-.14-1,0-2.13,2.22-12.31,3.86-21.51,5.68-33-.27-4.09-.54-7.25-.79-10a63.46,63.46,0,0,0-5.15,4.57,4,4,0,0,0-.7,1.12c-.16.37-.32.62-.46.63s-.5-.31-.69-.88c-.57-1.6-1.27-4.24-2-7.12a5.63,5.63,0,0,0,2.25-.67,69.2,69.2,0,0,0,6.36-4.67c-.54-6.78-.79-10.17-1.22-15.66-.41-4.67-.76-8-1.43-12a9,9,0,0,1,3.84,1.9,3,3,0,0,1,.56,2.65,18.15,18.15,0,0,0-.09,5c.32,4.68.61,9.6,1.06,15.79a3.18,3.18,0,0,0,.4-.74c.12-.25.36-.15.54.19a9.82,9.82,0,0,1,1.29,2.47,3.77,3.77,0,0,1,.08,2.47,69.15,69.15,0,0,0-1.48,9c.17,2.45.34,4.91.51,6.89A132.68,132.68,0,0,1,554,90.84c2.74-6.83,5.3-11.52,8.47-11.8,5.56-.49,9,11.33,10.82,31.64.69,7.94,1.13,15.66,1.2,21.3a71.09,71.09,0,0,1,6.09,10.41,1.63,1.63,0,0,1,.25,1.27,37.88,37.88,0,0,1-1.13,5.39c-.14.49-.29.38-.58-.18a74.67,74.67,0,0,0-5-9.44c-.78,7.83-2.55,12.34-6.89,12.72-3.59.31-6.8-4.11-7.53-12.4-.6-6.89,1-14.32,5.35-14.7,2.19-.2,4.09,1,6.2,3.1C571.13,123.1,570.73,118.08,570.21,112.12Zm-4.38,19.33c-2.66.23-3.87,3.63-3.49,8,.31,3.5,2,6.41,4.31,6.21,2.9-.26,4.1-3.65,4.51-10.28C569.71,133.22,567.66,131.29,565.83,131.45Z"/><path class="cls-1" d="M591,105.6c.38,4.32-.73,7.83-2.36,8s-3.38-3.11-3.76-7.43c-.36-4.09.69-7.71,2.42-7.86S590.6,101.52,591,105.6Zm15.55-1.36c.38,4.32-.73,7.83-2.36,8s-3.38-3.11-3.76-7.43c-.36-4.09.69-7.71,2.42-7.86S606.15,100.16,606.51,104.24Zm15.55-1.36c.38,4.32-.73,7.83-2.36,8s-3.38-3.11-3.76-7.43c-.36-4.09.74-7.71,2.42-7.86S621.7,98.8,622.06,102.88Z"/><path class="cls-1" d="M645.63,139.4c.78,9-1.57,16.49-5.17,16.81s-7.21-6.67-8-15.65,1.57-16.49,5.16-16.81S644.84,130.42,645.63,139.4Zm-10.74.94c.5,5.72,2.78,10.23,5.06,10s3.75-5,3.25-10.75-2.73-10.23-5.06-10S634.39,134.62,634.89,140.34Z"/><rect class="cls-2" width="1000" height="265"/></g></svg>