<svg xmlns="http://www.w3.org/2000/svg" viewBox="0 0 1000 265"><defs><style>.cls-1{fill:red;}.cls-2{fill:none;opacity:0.19;}</style></defs><title>アートボード 359</title><g id="CHARACTER"><path class="cls-1" d="M14.29,44l.53,6.07-11.67,1L11.45,146l-2.62.23L0,45.26Z"/><path class="cls-1" d="M29.06,65.42a2.08,2.08,0,0,1,.53,1.25,18.87,18.87,0,0,1,0,2.12,101.05,101.05,0,0,0,.57,10.77c.66,7.47,1.33,14.59,3,26.44,1.91,13.72,4.8,23.58,7,23.38,1.87-.16,3-7.79,3.39-18.76a23.28,23.28,0,0,0,2.05,5.7,5.27,5.27,0,0,1,.63,2.89c-.48,9.57-2.22,18.66-5.35,18.94-3.93.34-8.05-13-10.68-31.19-1.68-11.61-3-24.79-3.69-32.49-.39-4.44-.68-7.24-1.36-11.18A8.28,8.28,0,0,1,29.06,65.42Zm23.06,7c.25-.37.47-.51.7-.06,5.67,10,10.1,24.06,12.64,39.6a2.1,2.1,0,0,1-.2,1.54,11,11,0,0,1-1.91,2.88c-.31.26-.57-.07-.69-.88-2.87-17.75-6.89-29.87-12.32-39.75A28.29,28.29,0,0,1,52.12,72.46Z"/><path class="cls-1" d="M107.22,100.46c-1-11.32-4.08-26.7-12.11-26a5.83,5.83,0,0,0-3,1.09c-.3,19.2-1.65,33.32-3,42.37,1,2.74,1.94,5,3,7.39a31.21,31.21,0,0,1-1.24,4.58c-.18.6-.38.5-.65.06-.72-1.71-1.55-3.63-2.35-5.8-1.74,7-3.66,11.38-6.09,11.59-2.66.23-5.19-4.48-6.05-14.29a94.5,94.5,0,0,1,3-32.85c-1-5.67-2.13-12.52-3.09-19.14-.44-2.9-1-6-1.63-9a7.85,7.85,0,0,1,3.6,1.45A2.81,2.81,0,0,1,78.19,64a35.07,35.07,0,0,0,.35,4.55c.57,4.89,1.28,9.77,2.21,15a32.88,32.88,0,0,1,8.38-12.85c0-5.3-.23-9.63-.44-13.61a55.72,55.72,0,0,0-1-8.39,9.15,9.15,0,0,1,3.92,2.25,3.36,3.36,0,0,1,.48,2.78,34.22,34.22,0,0,0-.2,5.78c0,3.29.11,6.7.13,9.64a6.53,6.53,0,0,1,2.51-.93c3.83-.33,7.21,2.31,9.89,7.6,3.13,6.2,5,15.33,5.74,24.21a125.59,125.59,0,0,1,.47,18.31,76.34,76.34,0,0,1,4.86,9.33,2.15,2.15,0,0,1,.24,1.63,33.94,33.94,0,0,1-1.15,4.57c-.18.61-.38.51-.62-.06a78.92,78.92,0,0,0-4.2-8.69c-1.33,7.29-3.5,11-6.82,11.3-4.06.35-6.72-5.3-7.31-12.07-.65-7.47,1.35-14.11,5-14.43,2.43-.21,4.7,1,7,4.21A98,98,0,0,0,107.22,100.46ZM78.39,120.51c.54,6.19,1.81,8.31,2.93,8.22,1.59-.14,3.1-3.81,4.4-10.51-1.9-6.07-4-14.94-5.4-21.88A79.2,79.2,0,0,0,78.39,120.51Zm3.53-30.07a189.4,189.4,0,0,0,5,21.44,273.22,273.22,0,0,0,2.3-34.55A35.16,35.16,0,0,0,81.92,90.44Zm19.17,25.5c-2.43.21-3.27,4-3,7.67.34,3.85,1.88,6.42,4.12,6.22,2.43-.21,4-3.17,4.86-9.48C105.27,117.45,103.19,115.75,101.09,115.94Z"/><path class="cls-1" d="M132.23,43.22a2.22,2.22,0,0,1,.59,1.36,5.23,5.23,0,0,1-.13,1.66,22.8,22.8,0,0,0-.2,4.72c0,2.59.09,4.82.18,7.51a45.44,45.44,0,0,0,12.55-6.15c.3-.26.47.07.63.77.25,1.27.5,3,.62,4.41.07.82-.08,1.3-.39,1.45a45.72,45.72,0,0,1-13.23,6.33c.3,6.21.55,11.13,1,16.74a17.07,17.07,0,0,1,8.21-4,61.49,61.49,0,0,0,0-9.88,13,13,0,0,1,2.89,2.93,3.85,3.85,0,0,1,.73,1.82,10.44,10.44,0,0,1-.31,2.38c-.13,1.18-.29,2-.42,3.21,6.89,1.87,11.58,12.51,12.76,25.94,1.6,18.33-4.12,28.24-10.77,32.94-.48.39-.83.19-1.23-1.19a13.86,13.86,0,0,0-2-4.18c3.18-1.8,6.47-5.62,8.35-9.43,1.65-3.67,3.25-9.11,2.39-18.91-1.09-12.5-5.59-18.69-9.81-19.61a193.3,193.3,0,0,1-6.26,32.78c.5,2.42,1,4.14,1.55,6.45a2.18,2.18,0,0,1-.08,1.77,10.25,10.25,0,0,1-1.52,2.49c-.26.25-.45.27-.66-.54-.42-1.61-.87-3.45-1.28-5.53-3,7.21-5.72,10.5-7.91,10.69-3.09.27-4.69-5.12-5.25-11.54-1-11.91,1.59-26.49,8-35.76-.48-6.66-.88-12.86-1.26-18.71a44.26,44.26,0,0,1-5.7,1,4.93,4.93,0,0,1-2.22-.16c-.43-.08-.59-.3-.74-1.46-.22-1.39-.43-3.26-.66-5.35a29.53,29.53,0,0,0,9.07-.68c-.17-4.1-.3-7.15-.47-10.19a65.5,65.5,0,0,0-.82-7.81A7.29,7.29,0,0,1,132.23,43.22ZM126,119.29c.26,3,1,5.44,2.53,5.3s3.85-3.27,6.39-9.73c-1.21-7.42-2.24-14.86-3.07-23.26C127,99.79,125.27,111,126,119.29Zm15.77-35.38c-2.43.21-5.3,1.88-7.58,4.31.75,8,1.63,14.8,2.73,21.52A178.11,178.11,0,0,0,141.77,83.91Z"/><path class="cls-1" d="M186.9,82.9a99.15,99.15,0,0,0-17.58,14.72c-.78.77-1.13,1.62-1.41,1.65s-.47-.55-.73-1.35c-.45-1.37-1-3.44-1.65-6a5.88,5.88,0,0,0,1.74-1.57,27.8,27.8,0,0,0,4.53-8.51c3.83-10,7.47-20.53,12.34-36.37-3.82,2-7.6,4-11.14,6-.62.41-1.15.81-1.6,1.09s-.9,1-1.27,1.05-.53-.66-.85-1.69-1.05-3.91-1.71-7.15a9.58,9.58,0,0,0,4.12-.24,106.17,106.17,0,0,0,11.87-5.27,3.34,3.34,0,0,0,1.64-1.68c.24-.49.45-.74.64-.76s.49.2.87.87a25.78,25.78,0,0,1,2,4,7.24,7.24,0,0,1,.57,2.19,3.23,3.23,0,0,1-.43,2,10.66,10.66,0,0,0-1.45,2.83c-4.91,14.31-9.3,26-13.87,37.21l.17.34a94.15,94.15,0,0,1,24.42-16.14c.46-.16.66.06.83.87.25,1.27.6,3.59.85,5.92.12.93,0,1.18-.6,1.23a16.13,16.13,0,0,0-8.14,4.83c-5,5.26-8.19,14.48-7.26,25.11,1.17,13.42,7.65,16.5,14,16.06.37,0,.55.31.64,1.36.09,1.64.18,4.22.21,5.63,0,1.17-.06,1.53-.57,1.58a15.21,15.21,0,0,1-2.94-.22c-7.49-1.22-12.86-8.28-14.11-22.53-.78-9,.55-19.57,5.83-27Z"/><path class="cls-1" d="M235.6,63.47c1.09,7.66,1.66,12.56,2.08,17.34,1.17,13.43,1.1,28.73-1.24,37.52s-5.14,11.62-9.21,12c-7.19.63-12.28-10.81-14-30.19A134.52,134.52,0,0,1,215,63.74,101.93,101.93,0,0,1,217.84,53c-2.28,1.38-4.54,2.52-7.19,3.93-.72.41-1.19.92-1.52.95s-.56-.54-.77-1.34c-.37-1.5-1-4.62-1.5-7.4a7.81,7.81,0,0,0,4.66,0,37.27,37.27,0,0,0,5.93-2.64,5.71,5.71,0,0,0,2.77-2.71c.32-.74.59-.88.93-.2a28.76,28.76,0,0,1,1.62,3.5c.6,1.48.56,2.66,0,3.41-1.52,2-2.64,6.47-3.88,11.05-2,7.47-4.19,21.54-2.77,37.76,1.3,14.83,4.91,23.81,10.14,23.35,3.55-.31,6-3.11,7.68-11.14,1.91-8.87,1.71-23,.48-37-.61-7-1.25-12.71-1.87-17.13-.36-2.44-.73-4.52-1-6.15-.24-1.15-.52-2.19-.83-3.57s-.25-1.74.1-2.13a15.15,15.15,0,0,1,2-1.58c.32-.15.54.19.65.88a147.63,147.63,0,0,0,5,19.33,142.28,142.28,0,0,0,10,24.3,3,3,0,0,1,.15,2.22c-.3,1.44-.65,2.76-1.08,4.33-.22.72-.53.4-.88-.4a186.13,186.13,0,0,1-10.83-31.28Zm.27-28.61c.12-.25.26-.26.47.07a67,67,0,0,1,6.52,13.67,1.75,1.75,0,0,1,0,1.29l-1.11,2.92c-.19.49-.44.39-.63-.18a63.07,63.07,0,0,0-6.72-14.47Zm3.21-7.93c.16-.37.29-.5.5-.16A75.39,75.39,0,0,1,246.1,40a1.79,1.79,0,0,1,0,1.42l-1,2.91c-.15.48-.33.5-.58-.19A67.59,67.59,0,0,0,237.84,30Z"/><path class="cls-1" d="M270.5,116.05c.79,9-1.57,16.49-5.17,16.81s-7.21-6.66-8-15.65,1.57-16.49,5.17-16.81S269.71,107.07,270.5,116.05Zm-10.74.94c.5,5.72,2.78,10.23,5.06,10s3.75-5,3.25-10.75-2.73-10.23-5.06-10S259.26,111.27,259.76,117Z"/><path class="cls-1" d="M282.18,132.32l-.53-6.07,11.67-1L285,30.32l2.61-.23,8.84,101Z"/><path class="cls-1" d="M324.76,64.49c-.22-3-.61-7.48-.91-10.39a81.49,81.49,0,0,0-1.3-9,14.66,14.66,0,0,1,4,1.18c.59.3.75,1.11.62,2.3a23.75,23.75,0,0,0,0,3.3c.09,1.52.17,3,.32,4.68.26,3,.38,4.9.61,7.59l6.21-.54a72.39,72.39,0,0,0,8.78-1.36c.46-.16.53.19.63,1.36.19,1.63.38,3.73.45,5.13s.1,1.64-.41,1.69c-3,0-5.82.15-8.91.42l-6.21.54a161,161,0,0,1,.07,24.94c-.81,8.54-2.55,17.16-5.55,23.19-.28.61-.48,1-1.07.09a7.22,7.22,0,0,0-3.12-2.78c3.95-7.06,5.51-14,6.38-22.8a128.16,128.16,0,0,0,0-22.35l-8.64.76a45.47,45.47,0,0,0-7.74,1.38c-.51,0-.69-.41-.92-1.92s-.61-4.29-.86-6.63a49,49,0,0,0,9-.08Zm9.78-33.44a6.58,6.58,0,0,1,.76,2.28,1.53,1.53,0,0,1-.93,1.73,22.65,22.65,0,0,0-2.5,2.1A62.16,62.16,0,0,1,322.63,44a52,52,0,0,1-11.76,5.38c-.46.16-.75-.52-1-1.44A21.83,21.83,0,0,0,307.82,43,45.06,45.06,0,0,0,321,37.41,36.88,36.88,0,0,0,328.88,31a11.69,11.69,0,0,0,2.76-4.47A33,33,0,0,1,334.54,31.05Z"/><path class="cls-1" d="M357.4,56.22c.46,5.26.85,9.69,1.25,13.77.1,1.17.09,1.53-.43,1.57l-2.33.2c-.47,0-.63-.18-.72-1.23-.28-4.21-.55-8.42-1-14l-.86-9.81c-.46-5.25-.8-8.63-1.35-13.29-.06-.7.06-.95.38-1A55.16,55.16,0,0,0,359,32.2l16.63-1.45c2-.18,2.5-.46,2.81-1.19s.61-.52,1.09,0A30.89,30.89,0,0,1,382,34a4.33,4.33,0,0,1,.18,3.15,28.68,28.68,0,0,0-.31,5.56,338.26,338.26,0,0,1-2.29,36.79,153,153,0,0,1-8.12,35.17c-.38,1.09-.89,1.14-1.33.47a5.87,5.87,0,0,0-2.85-2.45,134.69,134.69,0,0,0,9-36.32,290.53,290.53,0,0,0,2-38.52L356,39.76Z"/><path class="cls-1" d="M400.64,52.44c.46,5.25.85,9.69,1.25,13.77.1,1.17.09,1.52-.43,1.57l-2.33.2c-.47,0-.63-.18-.72-1.23-.28-4.21-.55-8.42-1-14l-.86-9.8c-.46-5.26-.8-8.64-1.35-13.29-.06-.7.06-.95.39-1a57.16,57.16,0,0,0,6.7-.23L418.88,27c2-.17,2.5-.45,2.81-1.18s.61-.53,1.09,0a29.77,29.77,0,0,1,2.45,4.37,4.36,4.36,0,0,1,.18,3.16,28.62,28.62,0,0,0-.31,5.56,338.08,338.08,0,0,1-2.29,36.78,153.12,153.12,0,0,1-8.12,35.18c-.38,1.09-.89,1.14-1.32.47a6,6,0,0,0-2.85-2.46,135.37,135.37,0,0,0,9-36.31A292.26,292.26,0,0,0,421.47,34L399.2,36Z"/><path class="cls-1" d="M446.79,62.52a59.43,59.43,0,0,0,5-6.91c0,1.17.12,3,.27,4.68.24,2.21.27,2.56-.49,3.57-1.29,1.88-2.73,3.77-4.21,5.66l1.3,14.83c.56,6.42,1.21,13.3,1.59,17.62.48,5.49.33,7.62-.41,9.33s-1.64,2.26-4.73,2.41c-.93.09-1,0-1.42-2.23a35.59,35.59,0,0,0-1.38-5,13.1,13.1,0,0,0,3.77.14c1.26-.11,1.58-1.31,1.22-5.52l-2.5-28.48c-1.06,1.27-2.14,2.42-3.21,3.57a6.29,6.29,0,0,0-1.55,2.26c-.19.48-.3.85-.49.86s-.39-.2-.6-1c-.47-2.08-.89-4.28-1.4-6.82a19,19,0,0,0,3.91-3.17,34.22,34.22,0,0,0,2.72-2.82L442,40.11l-1.72.16a32.8,32.8,0,0,0-4.65.64c-.33,0-.39-.09-.46-.9l-.44-5c-.07-.82,0-.94.29-1a34.48,34.48,0,0,0,4.69-.18l1.73-.15-.82-9.34c-.61-7-.95-10.38-1.57-14.21a11.93,11.93,0,0,1,3.15.43,1,1,0,0,1,.64.89,13.37,13.37,0,0,1-.08,2.36c-.08,1.18.06,3.4.65,10.06l.83,9.57.56-.05a33,33,0,0,0,4.65-.64c.33,0,.39.08.46.9l.44,5c.07.82,0,.94-.29,1a36.87,36.87,0,0,0-4.69.18l-.56,0ZM476,66.43c.91,10.39,1.36,14.47,1.42,15.17s0,.94-.29,1a54.51,54.51,0,0,0-5.72.27l-8.26.72a50.24,50.24,0,0,0-5.63.73c-.33,0-.39-.08-.46-.9s-.32-4.8-1.23-15.19l-3.13-35.72c-.92-10.51-1.36-14.47-1.41-15-.07-.82,0-.94.29-1a51.39,51.39,0,0,0,5.67-.26l8.27-.72a57,57,0,0,0,5.68-.73c.32,0,.38.08.45.9.05.58.31,4.56,1.23,15.07Zm7.22,37.83c.07.82,0,.94-.3,1s-1.84-.07-6.51.34l-14.8,1.29a64.19,64.19,0,0,0-6.52.81c-.28,0-.33-.09-.4-.91l-.44-5c-.08-.82,0-.94.24-1s1.84.07,6.56-.34l14.8-1.3a62.35,62.35,0,0,0,6.47-.8c.33,0,.39.09.46.91Zm-14-82.53L454.72,23l2,23.47,14.52-1.27Zm2.6,29.77-14.52,1.27,2.15,24.52L474,76Z"/><path class="cls-1" d="M487.5,14.72c.45-.74.49-.75.74-.06a195.14,195.14,0,0,1,7.25,22.07,2,2,0,0,1-.25,2L494,40.62c-.53.87-.63.88-.85,0a184.56,184.56,0,0,0-7.13-22.32c-.23-.57-.25-.8.28-1.67Zm36.19,75.89c1,11.67,1.51,16.22,1.56,16.8.07.82,0,.94-.29,1l-2.2.19c-.32,0-.38-.08-.45-.9l-.46-5.25-23.68,2.07c-4.76.41-6.33.79-6.61.81s-.33-.09-.41-.9l-.46-5.26c-.07-.82,0-.94.25-1s1.89.07,6.65-.35l23.68-2.07-1.62-18.44L498.4,79.17c-4.71.42-6.28.79-6.51.81s-.43-.08-.5-.9l-.44-5c-.07-.81,0-.93.34-1a63.15,63.15,0,0,0,6.55-.34l21.25-1.86L517.53,53l-23.16,2c-4.77.42-6.33.79-6.57.81s-.38-.08-.45-.9l-.45-5.14c-.08-.93,0-1,.28-1.08s1.84.07,6.6-.34l8.46-.74-2.5-28.49c-.56-6.42-.89-9.68-1.48-13.16a13.74,13.74,0,0,1,3.33.41c.39.09.61.54.66,1.12a11.23,11.23,0,0,1-.08,2.24c-.13,1.19,0,3.3.52,9.13l2.49,28.49,7.7-.68c4.72-.41,6.38-.79,6.61-.81s.39.09.47,1c0,.58.26,4.09,1.13,14Zm-7.08-73.85a8.25,8.25,0,0,0-.49,2.4c-.79,6.66-1.64,12.5-3.15,19.92-.2,1-.3,1.44-.49,1.46s-.4-.32-.78-.88a6.5,6.5,0,0,0-1.87-1.95,188.25,188.25,0,0,0,3.46-21.83,40.62,40.62,0,0,0,.16-4.6,27,27,0,0,1,3,2.91,1.9,1.9,0,0,1,.44,1.25A2.67,2.67,0,0,1,516.61,16.76Z"/><path class="cls-1" d="M542.87,74.34l-3,.26L533.17,8.14l5-.43Zm3.38,25.71-5.09.44L540.07,88l5.09-.45Z"/><path class="cls-1" d="M17,174.08a3,3,0,0,1,.82,1.81,6.5,6.5,0,0,1-.15,2,35.7,35.7,0,0,0-.4,6.27c-.1,13.89.36,29.38,1.33,40.47.75,8.52,1.44,14.22,2.46,20,.55-6.64,1.09-11.74,1.73-20,.49,1.83,1,3.2,1.53,4.57a3.38,3.38,0,0,1,.33,1.14,8,8,0,0,1-.07,1.89c-.5,6-1,11.85-1.36,18.82A16.84,16.84,0,0,0,23.3,254c.09,1,.24,1.74.32,2.56,0,.47,0,.94-.24,1.08a6.25,6.25,0,0,1-2,1.35c-.23,0-.46-.43-.61-1.12-2-7.71-4.07-22.23-5.07-33.67-1.09-12.49-1.44-26.23-1.57-40-.07-5.64-.13-9.05-.48-13A16,16,0,0,1,17,174.08Zm9.89,11.37c-.09-1,0-1.41.42-1.69a32.84,32.84,0,0,1,9.71-3,30.4,30.4,0,0,1,6.69,0c.61.06.72.17.8,1.1.16,1.87.32,3.74.43,5.5.08.93,0,1.17-.42,1.09a35.16,35.16,0,0,0-7.57.08,25.59,25.59,0,0,0-9.54,3.3C27.14,188.72,27,186.85,26.9,185.45Zm4.64,43.35c.22-.14.35.21.43,1.14.92,8.86,4.11,12.58,9.62,12.1a29.45,29.45,0,0,0,9.06-2.44c.36-.15.46,0,.61,1.12.17,1.4.48,3.84.62,5.47.1,1.06.11,1.17-.48,1.46a28.88,28.88,0,0,1-8.25,2c-5.23.46-8.38-1.14-10.91-6.45-1.65-3.27-2.62-7.89-3.18-13.72Z"/><path class="cls-1" d="M61.66,165.35a2,2,0,0,1,.9,1.68,20.74,20.74,0,0,1-.11,3.07c-.07,1.42.06,5.05.49,12.07,1.12,17.67,2.2,33.22,3.58,49,1.25,14.24,3,17.73,7.07,17.38,5.93-.52,11.22-10,14.86-23.77a63.9,63.9,0,0,0,1.39,6.7,14.55,14.55,0,0,1,.33,1.62,5,5,0,0,1-.37,2.27c-3.87,12.22-9.4,20.58-16.07,21.17-5.28.46-8.68-5.6-10.18-22.76-1.45-16.57-2.7-35.64-3.9-52.12a160.46,160.46,0,0,0-1.92-17.59A9.23,9.23,0,0,1,61.66,165.35Zm15.29,7c.16-.36.26-.26.48.08a66.64,66.64,0,0,1,6.51,13.66,1.7,1.7,0,0,1,0,1.29l-1.11,2.92c-.19.49-.44.4-.63-.18a60.89,60.89,0,0,0-6.72-14.46Zm3.21-7.93c.16-.36.29-.49.51-.16a76.22,76.22,0,0,1,6.51,13.2,1.77,1.77,0,0,1,0,1.41l-1,2.91c-.14.48-.33.5-.58-.18a67.17,67.17,0,0,0-6.65-14.13Z"/><path class="cls-1" d="M124.67,191.83a65.87,65.87,0,0,0-.79-7.46,8.56,8.56,0,0,1,3.79,3,3.31,3.31,0,0,1,.44,2.31,14.36,14.36,0,0,0-.21,3.55c.13,5.28.18,12.33.1,17.87A86.79,86.79,0,0,1,137,222.4a1.94,1.94,0,0,1,.32,1.5c-.19,1.67-.47,4.4-.71,5.95-.12.71-.38.5-.6.05a74.49,74.49,0,0,0-8.2-11.4c-1,15.38-2.75,25.06-6.9,34.13-.46,1.1-.64,1.23-1.12.57a5.77,5.77,0,0,0-2.64-2.71c5-10.67,6.82-20.48,7.59-34.78-3.67-3.8-7.78-6.61-12.21-7.28-1.11,11.5-2,18.28-3.19,22.74-1.36,5.42-3,7.8-5.09,8-2.33.2-5.07-3.68-5.87-12.78-1.13-13,3.75-23.86,11.54-24.66.83-10.89,1.53-20.13,2-32.87-3.15,1.1-6.43,2.33-8,3a7.48,7.48,0,0,0-2,1.23.73.73,0,0,1-.53.4c-.28,0-.44-.19-.62-.65-.47-1.6-1-4.49-1.72-8.32a5.81,5.81,0,0,0,4.12.23,39.55,39.55,0,0,0,7-2.26c1.13-.57,1.66-1,2-1.82s.7-.65,1-.32a20.07,20.07,0,0,1,2.39,4.26,3.62,3.62,0,0,1,.25,2.8,29.82,29.82,0,0,0-.63,5.7c-.61,10.88-1.33,19.29-2,28.77,4,.59,8,3.06,12,6.48C125,202.39,124.94,197,124.67,191.83ZM101,225.43c.34,3.85,1.37,6.47,2.67,6.35,1.12-.09,2.3-1.73,3.29-6.05a125.32,125.32,0,0,0,2.47-17.39C103.85,209.3,100.24,217,101,225.43Z"/><path class="cls-1" d="M152.16,211.31c1.6-5.44,3.51-8.9,5.84-9.1,4.62-.41,6.85,7.87,8.35,19.62,1.24,9.89,2.49,15.54,5.11,15.31s4.13-3.89,5.27-8.57A104.08,104.08,0,0,0,179,209a22.77,22.77,0,0,0,2.22,6,5.14,5.14,0,0,1,.5,3,92.28,92.28,0,0,1-2.3,16.2c-1.42,6.35-3.73,10.67-7.27,11-4.49.4-6.68-6.35-8.53-20.54-1.55-11.75-3-16.21-5.49-16-2.06.18-3.84,3.51-5.57,10.6-1.16,5-2.32,13.85-3.49,26.31-.08,1.18-.3,1.32-.76.89a13.2,13.2,0,0,1-2.32-2.86,2.77,2.77,0,0,1-.27-2c3.45-29.94,6.24-55,8-72.45a113.27,113.27,0,0,0,.65-13.58,21.53,21.53,0,0,1,3.75,4.14,4.07,4.07,0,0,1,.39,3.38,21.37,21.37,0,0,0-1,4.9c-1.91,15.35-3.73,30.56-5.41,43.06Z"/><path class="cls-1" d="M201,162.22a51.28,51.28,0,0,0,10.22-1.95c.41-.16.63.18.75,1,.23,1.51.42,3.14.6,5.24.11,1.28,0,1.65-.5,1.81-3.8,1.74-7.63,7.49-10.93,14.36-.35.86-.81,1-1.29.35a5.93,5.93,0,0,0-2.12-2.16,87.49,87.49,0,0,1,7-12.38,25.86,25.86,0,0,1-5,.91,21.06,21.06,0,0,1-9.66-1.28c-.29-.09-.46-.43-.57-1.59-.13-1.52-.3-4-.42-6A24.29,24.29,0,0,0,201,162.22Zm-7.11,44.62a1.6,1.6,0,0,1,.27,1.5,39.62,39.62,0,0,0-.46,9.22c.84,9.57,5.54,13.86,13.2,13.19A25.69,25.69,0,0,0,220,226.2c.4-.27.55-.17.73.76.25,1.27.69,4.17.95,6,.13.93,0,1.3-.47,1.57-3.48,2.19-7.49,3.71-13.89,4.27-9.06.8-15.12-5.61-16.44-20.67a51.88,51.88,0,0,1,.71-13.95C192.27,205,193.1,206,193.84,206.84Z"/><path class="cls-1" d="M235.75,148a1.93,1.93,0,0,1,.69,1.47c.1,1.17,0,2.24.12,4.1.27,2.57.57,4.89.94,7.45,1.15,8.37,2.4,16.14,3.88,23.42,2.46-3.62,5-7.14,7.39-11.23A16.24,16.24,0,0,0,251,167.6a60.33,60.33,0,0,1,3,6.33c.49,1.37.54,3-.28,3.32-1.12.57-2.52,2.34-3.78,4.09-3.06,4.27-6.66,9.41-9.44,14.24-4.11,7.3-5.77,13.56-5.06,21.74.91,10.39,5.06,12.61,12.1,11.88a38.28,38.28,0,0,0,11.79-3.51c.41-.15.57.07.74,1,.3,1.85.59,4.06.81,6,.14,1.05,0,1.53-.51,1.7a43.2,43.2,0,0,1-12.28,2.72c-8.08.7-14.3-3.22-15.7-19.22-1-11.2,1.44-20.12,6.58-29.63-1.78-8.55-3.81-20.48-5.09-29.67a101,101,0,0,0-2-11.35A9.56,9.56,0,0,1,235.75,148Z"/><path class="cls-1" d="M268.72,218.28c.14-.48.31-.73.45-.74s.3.21.57.65c3.88,5.08,7.3,11.36,10.81,20.23a5,5,0,0,1,.35,1.38,2.72,2.72,0,0,1-.2,1.43l-1.37,3.65c-.2.49-.32.73-.41.74s-.34-.09-.6-.89c-3.19-8.54-6.85-16-10.5-21.07a1.57,1.57,0,0,1-.4-.79,3.36,3.36,0,0,1,.14-1.19Z"/><path class="cls-1" d="M332,165c.92,10.5,1.15,12,1.21,12.71s0,.94-.34,1l-2.1.19c-.38,0-.43-.08-.51-.9l-1.53-17.51-31.84,2.79,1.53,17.51c.07.81,0,.94-.29,1l-2.15.19c-.38,0-.43-.08-.5-.9s-.1-2.22-1-12.73l-.36-4.08c-.36-4.09-.61-5.83-.66-6.42-.07-.81,0-.93.34-1s1.89.07,6.47-.33l10.18-.89-.73-8.29c-.32-3.62-.73-7.82-1.28-10.83a22.4,22.4,0,0,1,3.18.31,1.09,1.09,0,0,1,.7,1,13.33,13.33,0,0,1-.07,2.36c-.05,1.06.11,4,.37,6.91l.72,8.29,10.93-1a62.29,62.29,0,0,0,6.42-.8c.38,0,.43.09.5.9,0,.47.11,2.34.4,5.61Zm-21.45,22.69a22,22,0,0,0-.4,4c-1.07,20-2.8,31.42-8,45.29-.27.72-.42,1.21-.56,1.22s-.36-.44-.83-1.46a14.17,14.17,0,0,0-2.18-3.45c5.55-11.78,7.8-25.39,8.45-42.15.12-4,.08-6.59-.07-8.82a11.83,11.83,0,0,1,3.1,2.09,2,2,0,0,1,.74,1.46A4.59,4.59,0,0,1,310.55,187.68Zm10.27-6.31c.44-.39.53-.39.71.53,4,19.53,9.5,35.52,18.14,47.59a15.11,15.11,0,0,0-1.49,4.48c-.2,1-.35,1.44-.49,1.45s-.4-.32-.79-1c-8.49-14.19-13.4-28.94-17.92-50-.17-.81,0-.94.47-1.57Z"/><path class="cls-1" d="M340.69,164.81c.2-.95.28-1.08.65-.64a74.57,74.57,0,0,1,8.16,12.11c.34.56.31.79.05,2.11l-.65,3.35c-.22,1.2-.36,1.21-.71.53a71.49,71.49,0,0,0-8-12.59c-.36-.44-.35-.79-.11-1.87Zm.46-29.21c.24-1,.32-1.09.64-.64a89,89,0,0,1,7.86,12.84,2.51,2.51,0,0,1,.08,2l-.74,3.36c-.24,1.08-.42,1.21-.71.53a90.1,90.1,0,0,0-7.81-13.43c-.37-.44-.34-.68-.06-1.76Zm9,94.27a44,44,0,0,0-.36,5.09c0,.82-.1,1.53-.28,1.55s-.39-.08-.81-.63c-.86-1.22-1.61-2.22-2.59-3.78a73.07,73.07,0,0,0,1.47-8.48c.87-7.25,1.79-16.62,2.19-28.19a18.62,18.62,0,0,0,1.74,3.14c.87,1.46.87,1.46.84,3.7C352,212.17,351,221.67,350.1,229.87Zm19.32-51.81c3.45,21.7,9.06,37.91,17.43,48.59a17.76,17.76,0,0,0-1.17,4.34c-.18,1.19-.28,1.67-.47,1.69s-.4-.32-.78-.88c-8.49-12.55-13.84-29.61-17.72-53.5l-7.65.67c.47,7,.74,13.35.8,19.93.15,12-.53,24-2.9,35.19-.16.84-.26,1.32-.45,1.33s-.36-.44-.76-1.22a10.45,10.45,0,0,0-2-2.88c2.68-10.71,3.46-21.72,3.27-35.23-.13-11.63-1.12-23-2.74-41.52-.9-10.27-1.37-14.58-1.43-15.28s0-.94.29-1a57.79,57.79,0,0,0,6-.29l9.52-.83a56.53,56.53,0,0,0,6-.76c.33,0,.38.08.46.9s.23,3.75.95,12l1.85,21.13c.74,8.41,1.1,11.44,1.15,12,.08.93,0,1.06-.28,1.08l-2.1.19c-.33,0-.39-.09-.47-1l-.46-5.25Zm3.27-34.75-16.49,1.44.92,10.51c.56,6.42,1.07,12.14,1.47,17.28l16.53-1.44Z"/><path class="cls-1" d="M405.12,198.35c.43-.51.52-.52.78.28a194.83,194.83,0,0,1,5.36,19.89,1.59,1.59,0,0,1-.27,1.67l-1.15,1.39c-.43.51-.52.52-.7-.41-.54-2.42-1-4.85-1.6-7a119.06,119.06,0,0,1-12.49,10.5,4.54,4.54,0,0,0-1.75,2c-.15.48-.3.85-.49.86s-.42-.43-.63-1.24c-.53-2.3-.94-4.27-1.4-6.93a17.79,17.79,0,0,0,5.06-2.33c1-.56,2.14-1.36,3.39-2.18L397,189.3l-4.29.37.48,5.49c.07.82,0,.94-.3,1l-1.86.16c-.33,0-.39-.08-.46-.9s-.22-3.63-1.71-20.67l-.84-9.58c-.85-9.68-1.2-12.59-1.25-13.18-.07-.82,0-.94.29-1a36.52,36.52,0,0,0,4.83-.18l1.73-.15-.63-7.24c-.67-7.59-1-10.85-1.64-14.92a9.39,9.39,0,0,1,2.86.34.92.92,0,0,1,.59.89c.06.7,0,1.41,0,2.36,0,1.41.14,4.22.72,10.87l.65,7.47,1.78-.15a41.47,41.47,0,0,0,4.79-.65c.32,0,.38.08.45.9.05.58.2,3.39.9,11.33l.91,10.39c1.45,16.58,1.78,19.25,1.84,19.95s0,.94-.29,1l-1.83.16c-.32,0-.38-.08-.45-.9l-.33-3.74-4.39.39,2.1,23.93c1.49-1.19,3.12-2.51,4.69-3.94-.75-2.64-1.56-5.39-2.41-8.14a1.23,1.23,0,0,1,.3-1.44Zm-11-42-4.29.37L392.2,184l4.29-.37Zm6.91-.61-4.39.39,2.38,27.2,4.39-.39Zm32.73,69.13c.07.82,0,.94-.29,1a54.64,54.64,0,0,0-6,.29l-9.57.83a57.08,57.08,0,0,0-6,.76c-.33,0-.38-.08-.45-.9L411,221.6c-.08-.82,0-.94.29-1a54.64,54.64,0,0,0,6-.29l2.47-.22-6.7-76.58-2.15.19a51,51,0,0,0-5.67.73c-.33,0-.39-.08-.46-.9l-.45-5.14c-.07-.81,0-.93.29-1a51.63,51.63,0,0,0,5.72-.27l8.31-.73a48.44,48.44,0,0,0,5.68-.73c.33,0,.38.09.45.9l.45,5.14c.08.82,0,.94-.29,1a49.54,49.54,0,0,0-5.72.26l-3.22.28,6.7,76.59,4.16-.37a56.45,56.45,0,0,0,6-.75c.32,0,.38.08.45.9Z"/><path class="cls-1" d="M433.34,127.65c.24-1,.37-1.09.69-.65a71.86,71.86,0,0,1,7.21,12,2.88,2.88,0,0,1,.06,2.23l-.76,3.24c-.28,1.09-.36,1.21-.7.53a77.86,77.86,0,0,0-7.28-12.77c-.33-.44-.35-.68,0-1.76Zm-.1,29.07c.2-1,.39-1,.7-.65A75.92,75.92,0,0,1,441.66,168a1.82,1.82,0,0,1,.1,1.64l-.84,3.36c-.34,1.45-.38,1.57-.72.89a74.69,74.69,0,0,0-7.59-12.51c-.36-.44-.34-.68-.09-1.64Zm9.23,65.07a43.66,43.66,0,0,0-.34,5.32c.06.7-.06,1.42-.25,1.43s-.39-.2-.76-.64a30.92,30.92,0,0,1-2.57-3.54,77.87,77.87,0,0,0,1.35-8.82c.76-7.36,1.45-16.71,1.7-28.38a11.48,11.48,0,0,0,1.93,3.24c.79,1,.8,1.11.73,3.47C443.84,203.67,443.15,213.49,442.47,221.79Zm30.18-81.46c.07.82,0,.94-.29,1a62.1,62.1,0,0,0-6.32.31l-17.75,1.56a131.62,131.62,0,0,1-3.3,17.11c-.21.84-.32,1.2-.46,1.21s-.37-.44-.77-1.22a11.67,11.67,0,0,0-1.72-2.56,110.24,110.24,0,0,0,4.6-29.69,54.49,54.49,0,0,0,0-5.76,12,12,0,0,1,2.94,1.27,1.55,1.55,0,0,1,.67,1.23,4.24,4.24,0,0,1-.18,1.67,15.23,15.23,0,0,0-.56,3.81c-.13,2.36-.32,4.5-.51,6.63l16.53-1.44a63,63,0,0,0,6.29-.79c.32,0,.38.08.45.9ZM477.29,182c.07.81,0,.93-.34,1-.19,0-1.55,0-5.06.2.42,7,.74,13.82,1,20.15a31.33,31.33,0,0,0,4.18-.6c.33,0,.38.08.45.9l.4,4.55c.07.82,0,.94-.29,1s-1.41,0-4.5.16c0,1.17.06,2.35.11,3.4.24,8.68-.75,13.48-4.54,13.81a14,14,0,0,1-2.34.08c-.62-.06-.66-.06-1.1-2.37a25.87,25.87,0,0,0-1.3-4.59,13.18,13.18,0,0,0,4.07.23c1.87-.16,2.59-2.11,2.41-8.44l-.07-1.88-18,1.58c0,2.47-.09,4.94-.15,7.42,0,1.18-.08,1.3-1.58.84s-1.54-.45-1.47-1.75c.25-3.08.36-5.56.42-8.62.11-7.89.07-15.89-.11-23.87-3.07.38-4.27.61-4.51.63s-.38-.09-.45-.91l-.41-4.67c-.06-.7,0-.82.3-.85a42,42,0,0,0,4.93-.19c-.14-5.28-.36-10.56-.59-15.83-.14-2.69-.29-5.5-.58-8.3-.08-.82,0-1.06.32-1.09a53.49,53.49,0,0,0,5.91-.28l9.24-.81a53.7,53.7,0,0,0,5.87-.75c.32,0,.44.2.51,1,.17,3,.35,6.2.57,9.24.35,5,.68,9.94,1,14.85a41.5,41.5,0,0,0,4.84-.65c.37,0,.43.08.49.78Zm-26.13-22.19c.32,6.33.6,12.77.78,19.11l7-.61c-.32-6.32-.64-12.65-1.06-19.08Zm1,25.09c.16,6.58.24,13.39.22,20.22l7.38-.65c-.12-6.69-.34-13.5-.59-20.18Zm8.33-25.9c.42,6.43.74,12.76,1.05,19.08l7.38-.64c-.43-6.55-.86-13.1-1.29-19.06Zm1.29,25.06c.32,6.8.53,13.48.64,20.18l7.8-.68c-.21-6.1-.59-13.13-1-20.15Z"/><path class="cls-1" d="M503.92,142.77c-6.76,3.41-12.61,6.4-18.23,9.95a6.9,6.9,0,0,0-2.63,2.23c-.3.38-.53.87-.81.89s-.56-.42-.75-1c-.67-2.3-1.34-5.06-2-8.18,1.68-.14,2.86-.6,5.66-1.9,6.72-3.41,15.89-7.75,28.07-12.69.45-.16.72.17.87.86.28,1.51.66,4.3.79,5.81.1,1.05,0,1.3-.48,1.46a10.53,10.53,0,0,0-6.51,4.1c-6.23,7.36-10.2,22.18-8.83,37.82,1.69,19.38,9,24.51,15.91,25.31.61.07.77.29.86,1.22.11,1.29.2,4,.21,5.63,0,1.29-.08,1.77-.61,1.7-8-1.06-17.28-8.72-19.34-32.3-1.44-16.46,1.44-30.36,7.92-40.69Zm7.14,16c.12-.24.26-.26.48.08a66.64,66.64,0,0,1,6.51,13.66,1.7,1.7,0,0,1,0,1.29L517,176.68c-.19.49-.44.4-.63-.18A61.16,61.16,0,0,0,509.61,162Zm3.21-7.93c.16-.36.29-.49.51-.16a76.46,76.46,0,0,1,6.51,13.19,1.83,1.83,0,0,1,0,1.42l-1,2.91c-.15.48-.33.5-.58-.18A67.17,67.17,0,0,0,513,153.85Z"/><path class="cls-1" d="M537.65,166.87a38.67,38.67,0,0,0,6.32-3.61,3.64,3.64,0,0,0,1.15-1.39c.12-.25.31-.74.5-.75s.45.31.61.53a28.61,28.61,0,0,1,1.81,3.49,5.92,5.92,0,0,1,.41,1.49,2.28,2.28,0,0,1-.42,1.57,11.19,11.19,0,0,0-1,2.56l-5.84,19.81a2.4,2.4,0,0,1,1.64-1.09c2.24-.2,3.86,3.78,5.07,10.61,1,5.91,2,8.53,5.8,8.2a12.33,12.33,0,0,0,5.34-1.88c.32-.14.42,0,.57,1.13.22,1.39.5,3.49.63,5,.07.82,0,1.18-.4,1.33a13.26,13.26,0,0,1-5.13,1.63c-5.28.46-7.26-2.31-9-12.51-1.07-6.26-2-8.41-3.31-8.29s-2.39,1.73-3.44,5.35c-1.54,5-2.93,10.14-4.37,16.27-.17.72-.4.74-.73.18a36.94,36.94,0,0,1-1.95-3.48,1.82,1.82,0,0,1-.1-1.64C534,204,536,197.25,537.26,193c1.9-6.75,4.45-15.8,6.52-23.39-2.78,1.66-5.77,3.45-9.09,5.86a5.94,5.94,0,0,0-1.48,1.42c-.25.37-.46.63-.65.64s-.54-.3-.8-1.1a71.81,71.81,0,0,1-1.67-7.27C532.53,169.09,534.58,168.32,537.65,166.87ZM545,147.29c.44.2.49.67.47,1.61,0,1.29,0,3.77-.09,4.83-.07.83-.19,1.08-.58.87a37.67,37.67,0,0,1-9.94-6.54c-.3-.21-.38-.55-.35-1.38a52.53,52.53,0,0,1,.34-5.67A41.65,41.65,0,0,0,545,147.29Z"/><path class="cls-1" d="M599.28,137.72c.1,1.05,0,1.18-.5,1.22a90.63,90.63,0,0,0-14.85,1.3c.64,7.35,1.35,15.41,2.08,23.23a123,123,0,0,1,1.63,12.2c1.29,14.71-.14,27.43-5.95,36.88-.4.74-.75,1.12-1,1.14s-.59-.3-.92-.86a10.52,10.52,0,0,0-2.44-3.08c6.08-7.47,8.22-18.48,7.61-30.31-.64,4.52-2.45,6.92-4.55,7.1-3.23.28-6.64-4.83-7.61-15.92-.87-9.92,1.52-16.48,5-16.79,1.77-.15,3.52,1,4.74,3.59-.55-5.72-1-11-1.54-16.45a116.88,116.88,0,0,0-17.11,5c-1.09.45-1.58,1.32-2,1.35s-.5-.31-.66-1.12c-.42-1.49-.9-4.27-1.41-7.4,1.61.09,3.12-.39,5.83-1.22,3.72-1,8.46-2.27,14.59-3.75-.47-4.78-.67-7.11-1-10.84a75.54,75.54,0,0,0-1.15-7.79,11.28,11.28,0,0,1,3.66,1,2,2,0,0,1,1,1.68,9,9,0,0,1-.15,2.13,16.39,16.39,0,0,0-.05,3.18c.13,2.57.33,4.79.78,9.93,5.15-.81,9.73-1.21,14.91-1.66.42,0,.52.07.63,1.24Zm-23.74,32.43c.56,6.42,2.56,9.89,4.66,9.71,2.61-.23,3.81-5.4,3.35-10.65-.51-5.84-2.6-9.77-5-9.56C576.47,159.83,575,163.84,575.54,170.15Z"/><path class="cls-1" d="M620.05,181.43l-3,.26-6.71-66.47,4.95-.43Zm3.38,25.7-5.09.44-1.1-12.49,5.09-.44Z"/><path class="cls-1" d="M643.4,179.38l-3,.27-6.71-66.47,4.95-.43Zm3.37,25.71-5.08.44L640.59,193l5.09-.45Z"/><rect class="cls-2" width="1000" height="265"/></g></svg>