<svg xmlns="http://www.w3.org/2000/svg" viewBox="0 0 1000 265"><defs><style>.cls-1{fill:red;}.cls-2{fill:none;opacity:0.19;}</style></defs><title>アートボード 356</title><g id="CHARACTER"><path class="cls-1" d="M21.34,147.39c.07.81,0,.93-.29,1a51.31,51.31,0,0,0-5.58.25l-1.3.12a174.29,174.29,0,0,0,8.41,22,35.09,35.09,0,0,0-.76,4.77c-.1.95-.16,1.42-.34,1.44s-.32-.44-.57-1.13a230.86,230.86,0,0,1-7.21-22.19C16.45,184.51,19,210.29,19.19,212c.07.81,0,.94-.29,1l-2.34.21c-.33,0-.38-.09-.45-.9C16,210.56,14,184.26,11.43,154a274.5,274.5,0,0,1-4.61,38.75c-.16.84-.27,1.2-.41,1.21s-.36-.32-.58-1.24a26,26,0,0,0-1.68-4.68c2.64-10.7,4.42-22.62,5.81-39l-2.24.19a50.73,50.73,0,0,0-5.54.72c-.32,0-.33-.09-.4-.9l-.4-4.55c-.07-.82-.08-.94.24-1a47.88,47.88,0,0,0,5.58-.25l3-.27L8.63,124.73a41.15,41.15,0,0,1-5.71,4.15c-.9.43-.9.43-1.49-1.51A18.62,18.62,0,0,0,0,124,39.15,39.15,0,0,0,13.13,112.7a12.39,12.39,0,0,0,1.81-3.57A36,36,0,0,1,17.3,113a4.79,4.79,0,0,1,.6,1.94c.06.7-.16,1-.66,1.12a5.14,5.14,0,0,0-1.88,1.69c-1.23,1.52-2.65,3.06-4.16,4.6L13,142.82l2-.17a45.45,45.45,0,0,0,5.54-.72c.32,0,.38.09.45.9Zm14.52,13.78c.5-.75.54-.87.8-.07,4.8,14.05,8.55,27.84,11.8,41.32.16.81.19,1-.28,1.67l-1.27,1.64c-.62.88-.67.88-.89,0L43.43,195c-5.84,3.68-11.37,6.64-18.12,10.17a2.79,2.79,0,0,0-1.54,1.66c-.15.49-.45.87-.63.88s-.47-.54-.7-1.47c-.52-2.18-1.08-4.84-1.55-7.51a16.14,16.14,0,0,0,4.28-1.08c1-26.43,1.17-49,.85-73.12-.08-5.76-.29-9.74-.69-13.82a12.89,12.89,0,0,1,3.34,1.59,1.92,1.92,0,0,1,.77,1.34,5.29,5.29,0,0,1-.08,1.77,28.23,28.23,0,0,0-.36,6c.24,26.45,0,50.24-.87,75a84.53,84.53,0,0,0,13.81-7.21c-2.23-8.27-4.63-16.41-7.35-24.88a1.42,1.42,0,0,1,.19-1.54Z"/><path class="cls-1" d="M55.37,115.23a3.86,3.86,0,0,1,.56,3.13,40.94,40.94,0,0,0-.24,5.9c.07,16.94.58,32.42,1.53,43.28.58,6.65,1.07,12.73,2.09,20.17.43-6.39,1-12.33,1.61-19.32a31,31,0,0,0,1.49,4.69,4.83,4.83,0,0,1,.27,2.57c-.81,9-1.27,15.64-1.19,18.69a49,49,0,0,0,.42,5.25,2,2,0,0,1-.1,1.54,8.15,8.15,0,0,1-2,1.7c-.31.27-.47,0-.69-.88-2.4-9.67-3.82-23.19-4.76-33.93-1.12-12.84-1.47-26-1.82-44-.1-3.88-.35-8.32-.78-11.58A9.85,9.85,0,0,1,55.37,115.23ZM75.65,141a34.58,34.58,0,0,1-10.41,1c-.28,0-.47-.07-.6-1-.24-1.63-.55-4.07-.73-6.17a31.69,31.69,0,0,0,11-1c-.38-4.32-.72-8.75-1.13-13.42a104.28,104.28,0,0,0-1.37-10.36,8,8,0,0,1,3.74,1.33,2,2,0,0,1,.63,1.35,7.16,7.16,0,0,1,0,1.65,40.27,40.27,0,0,0,.11,5.64c.27,4.09.63,8.18,1,13a37.6,37.6,0,0,0,7.14-3.33c.35-.26.42,0,.54.78.2,1.28.47,3.25.59,4.65.07.82,0,1.3-.2,1.43A27.9,27.9,0,0,1,78.53,140c1.24,13.65,2.35,24.73,3.5,35.22a47.49,47.49,0,0,1,9.27,11.3,2,2,0,0,1,.23,1.51,37.31,37.31,0,0,1-.81,5.25c-.13.72-.32.62-.55.17a50.39,50.39,0,0,0-7.48-10.17c.71,10.29-1.14,16-6.42,16.44-4.39.38-7.7-4.15-8.45-12.67s2-14.18,6-14.52a11.08,11.08,0,0,1,5,.85C77.78,163.74,76.7,153,75.65,141Zm3.79,39.54A8.91,8.91,0,0,0,74.17,179c-2.61.23-4.11,3.07-3.69,7.86.37,4.2,2.27,6.5,5.07,6.26,3.31-.29,4.62-4.17,4.08-10.36Z"/><path class="cls-1" d="M131.58,117.15c.07.82,0,.94-.29,1s-1.89-.07-6.61.34l-22.83,2a159.82,159.82,0,0,1-4.6,18.4c-.22.73-.33,1.09-.47,1.1s-.42-.43-.78-1.34a13,13,0,0,0-1.82-3.14c3.81-10.68,5.77-19,6.78-32.7.08-1.19.12-3.43.08-5a18.26,18.26,0,0,1,3,1.62,1.89,1.89,0,0,1,.63,1.24,4,4,0,0,1-.27,1.79,10.47,10.47,0,0,0-.53,3.1c-.29,3.09-.63,5.7-1,8.32L124.12,112a65.59,65.59,0,0,0,6.57-.81c.32,0,.38.09.45.9Zm5.74,41.38c.07.82,0,.94-.29,1a54.5,54.5,0,0,0-6,.29l-1.54.13c.42,7,.74,13.82,1,20.15a58.79,58.79,0,0,0,5.95-.76c.33,0,.39.08.45.78l.42,4.79c.07.82,0,.94-.29,1a61,61,0,0,0-6.28.31l.08,2.58c.24,9.16-1,13.74-4.93,14.08a20.19,20.19,0,0,1-2.45,0c-.71-.06-.71-.06-1.14-2.26a27.1,27.1,0,0,0-1.19-4.48,13.83,13.83,0,0,0,4.17.34c2.1-.18,2.91-2.25,2.68-9.76l0-.23-21.81,1.9c-.09,2.25-.16,4.61-.2,6.84,0,1.3-.12,1.31-1.66,1s-1.59-.45-1.51-1.63c.24-3.2.35-5.68.44-8.51.16-7.78.21-15.78.13-23.77l-1.26.11a53.2,53.2,0,0,0-6,.76c-.33,0-.38-.09-.46-.91l-.42-4.9c-.08-.82,0-.94.29-1a54.44,54.44,0,0,0,6-.29l1.73-.15c-.08-5.28-.23-10.68-.4-15.84,0-2.82-.23-5.39-.43-8.2-.07-.81,0-1.06.33-1.09a61.2,61.2,0,0,0,6.28-.31l11.81-1c4.48-.4,6-.76,6.24-.78s.44.19.51,1c.17,3,.4,6.2.61,9.12.34,5,.64,10.06.92,14.86l1.36-.12a55.38,55.38,0,0,0,6-.75c.33,0,.39.08.46.9Zm-31.83-21.68c.26,6.21.48,12.42.61,18.76l8.55-.74c-.22-6.22-.53-12.43-.89-18.75Zm.7,25.11c.11,6.69.13,13.4,0,20.23l9.11-.8c-.08-6.81-.24-13.5-.45-20.19Zm10.28-26.07c.33,6.44.62,12.53.88,18.74l9.06-.79c-.37-6.44-.79-12.87-1.21-18.72ZM117.58,161c.26,6.8.38,13.5.5,20.19l9.66-.84c-.2-6.1-.57-13-1-20.15Z"/><path class="cls-1" d="M176,154.09c2.93,33.39,3.53,39.22,3.58,39.8.07.82,0,.94-.29,1l-2.24.19c-.33,0-.39-.08-.46-.9L176,187l-21.62,1.89.64,7.36c.07.81,0,.93-.24,1l-2.29.2c-.33,0-.39-.09-.46-.9s-.48-6.55-3.41-40l-2-22.53c-2-22.65-2.6-28.71-2.67-29.41s0-.94.3-1,1.88.07,6.51-.34L164.61,102c4.62-.4,6.19-.78,6.47-.8s.38.08.45.9.5,6.78,2.23,26.51Zm-6.92-45.75-21.62,1.9,2.77,31.64,21.62-1.9Zm3.34,38.18-21.62,1.89,3,33.86,21.62-1.9Z"/><path class="cls-1" d="M195,144.43c.38,4.32-.73,7.83-2.36,8s-3.38-3.12-3.76-7.43c-.35-4.09.69-7.71,2.42-7.86S194.59,140.34,195,144.43Zm15.55-1.36c.38,4.32-.73,7.83-2.36,8s-3.38-3.12-3.76-7.44c-.36-4.08.69-7.7,2.42-7.85S210.14,139,210.5,143.07Zm15.55-1.36c.38,4.32-.73,7.83-2.36,8s-3.38-3.12-3.76-7.44c-.36-4.08.74-7.71,2.42-7.85S225.69,137.62,226.05,141.71Z"/><path class="cls-1" d="M271.24,98.93c.07.82,0,.94-.29,1s-1.75-.08-6.14.3l-21.52,1.89c0,6.7-.21,12.72-.6,18.4l6.67-.58a1,1,0,0,0,.94-.56c.21-.37.29-.49.43-.5s.5.3,1.4,2a8.37,8.37,0,0,1,1.14,2.84,3.22,3.22,0,0,1-.23,1.67c-.25,1-.3,2.49-.25,6.26.08,26.81-3.46,43.82-11.28,58.86-.33.5-.49.86-.62.88s-.42-.44-.84-1.46a12.63,12.63,0,0,0-2-3.35,75.88,75.88,0,0,0,9.64-26.37,88.88,88.88,0,0,0-6.76-12.7c-.33-.56-.3-.8,0-1.89l.64-2.29c.29-1.08.37-1.21.69-.76a76.48,76.48,0,0,1,6.4,11.32,190.63,190.63,0,0,0,1.12-27.51l-7.7.67a123.9,123.9,0,0,1-5.33,25.17c-.26.73-.37,1.09-.51,1.11s-.32-.45-.69-1.36a16.94,16.94,0,0,0-1.67-3.5c4.59-12.63,6.55-26.33,6.56-46.09l-3.27.28c-4.39.39-5.82.75-6.1.77s-.38-.08-.45-.9l-.44-5c-.08-.93-.05-1,.28-1.08s1.75.08,6.14-.3l27.64-2.42c4.39-.39,5.82-.75,6.1-.77s.38.08.46,1Zm-7.78,71.86c.52,6,.7,7.46,1.64,9,.66,1.12,1.55,1.63,5,1.32,2.75-.24,3.8-1.15,4.57-3.1.84-2.31.85-6,.09-16.24a7.11,7.11,0,0,0,2.28,2.39c.8.63.85.63.95,2.85.57,10.3.13,13.28-1,16.32s-3.36,4.06-6.63,4.35c-4.25.37-5.75-.09-7.11-2.21-1-1.56-1.65-3.26-2.18-9.33l-4.76-54.4c-.73-8.29-1.26-13.3-1.76-16.91a11.2,11.2,0,0,1,3,.44,1.33,1.33,0,0,1,.75,1.11,12.14,12.14,0,0,1-.07,2.36c-.13,1.19.05,3.88.85,13L261,142.18a103.35,103.35,0,0,0,7.27-15.81,31.39,31.39,0,0,0,1.62-6.26,29.94,29.94,0,0,1,2.47,4.61,5.52,5.52,0,0,1,.48,1.72,1.45,1.45,0,0,1-.45,1.34c-.56.52-1.07,1.74-2.07,4.29a111,111,0,0,1-8.69,17.35Z"/><path class="cls-1" d="M316.42,142.51c-1-11.33-4.08-26.7-12.11-26a5.85,5.85,0,0,0-3,1.08,324.51,324.51,0,0,1-3,42.38c1,2.74,1.95,5,3,7.38a30.53,30.53,0,0,1-1.24,4.58c-.19.61-.38.51-.66.06-.71-1.7-1.54-3.63-2.34-5.79-1.74,7-3.66,11.37-6.09,11.59-2.66.23-5.19-4.49-6.05-14.29a94.48,94.48,0,0,1,3-32.85c-1-5.68-2.13-12.52-3.09-19.14-.44-2.91-1-6-1.64-9a8,8,0,0,1,3.61,1.45,2.83,2.83,0,0,1,.56,2.07,35.34,35.34,0,0,0,.35,4.56c.57,4.89,1.28,9.77,2.21,15a32.84,32.84,0,0,1,8.38-12.85c0-5.29-.23-9.62-.44-13.61a55.43,55.43,0,0,0-1-8.38,9,9,0,0,1,3.91,2.25,3.27,3.27,0,0,1,.48,2.78,34.16,34.16,0,0,0-.2,5.78c.05,3.29.12,6.69.14,9.63a6.61,6.61,0,0,1,2.51-.92c3.83-.34,7.21,2.31,9.88,7.6,3.13,6.2,5,15.33,5.74,24.2a124.36,124.36,0,0,1,.48,18.31,77.17,77.17,0,0,1,4.86,9.34,2.19,2.19,0,0,1,.24,1.63,34.35,34.35,0,0,1-1.16,4.57c-.18.6-.37.5-.61-.07a82.65,82.65,0,0,0-4.2-8.69c-1.34,7.3-3.5,11-6.82,11.3-4.06.36-6.72-5.29-7.31-12.06-.66-7.47,1.35-14.12,4.94-14.43,2.43-.21,4.7,1,7.05,4.21A96.2,96.2,0,0,0,316.42,142.51Zm-28.83,20.05c.54,6.18,1.81,8.31,2.93,8.21,1.58-.14,3.1-3.8,4.39-10.5-1.89-6.07-4-14.94-5.39-21.88A78.86,78.86,0,0,0,287.59,162.56Zm3.53-30.07a189.92,189.92,0,0,0,5,21.44,275.49,275.49,0,0,0,2.29-34.55A35.21,35.21,0,0,0,291.12,132.49ZM310.29,158c-2.43.22-3.27,4.05-3,7.67.33,3.86,1.88,6.43,4.12,6.23,2.43-.21,4-3.17,4.86-9.48C314.47,159.5,312.39,157.8,310.29,158Z"/><path class="cls-1" d="M342.54,96.34a50.68,50.68,0,0,0,10.23-2c.41-.15.63.18.74,1,.23,1.51.42,3.14.6,5.25.12,1.28,0,1.65-.5,1.8-3.8,1.75-7.62,7.49-10.93,14.37-.35.85-.8,1-1.28.35a6.13,6.13,0,0,0-2.12-2.17,85.56,85.56,0,0,1,7-12.38,24.52,24.52,0,0,1-5,.91,20.92,20.92,0,0,1-9.66-1.27c-.29-.09-.46-.43-.56-1.6-.13-1.52-.3-4-.43-6A24.07,24.07,0,0,0,342.54,96.34ZM335.43,141a1.65,1.65,0,0,1,.28,1.51,39.46,39.46,0,0,0-.47,9.21c.84,9.58,5.54,13.87,13.2,13.2a25.73,25.73,0,0,0,13.11-4.56c.4-.27.55-.17.72.76.25,1.27.7,4.18,1,6,.13.93,0,1.3-.47,1.58-3.48,2.18-7.49,3.71-13.88,4.27-9.06.79-15.13-5.62-16.45-20.68a51.78,51.78,0,0,1,.71-13.94C333.86,139.1,334.7,140.08,335.43,141Z"/><path class="cls-1" d="M377.34,82.12a2,2,0,0,1,.69,1.47c.1,1.17,0,2.24.13,4.11.27,2.56.57,4.89.93,7.45,1.16,8.36,2.4,16.14,3.89,23.42,2.45-3.63,5-7.14,7.39-11.24a16.19,16.19,0,0,0,2.24-5.6,61.29,61.29,0,0,1,2.95,6.33c.5,1.36.55,3-.27,3.31-1.13.57-2.53,2.34-3.79,4.1-3.06,4.27-6.66,9.4-9.43,14.24-4.12,7.3-5.78,13.56-5.07,21.73.91,10.39,5.06,12.61,12.1,11.88a38.2,38.2,0,0,0,11.79-3.5c.41-.15.57.07.74,1,.31,1.86.6,4.07.82,6.05.13,1,0,1.53-.51,1.69a42.86,42.86,0,0,1-12.28,2.72c-8.08.71-14.31-3.22-15.71-19.21-1-11.21,1.44-20.12,6.59-29.63-1.79-8.55-3.82-20.49-5.09-29.67a99.74,99.74,0,0,0-2-11.35A9.53,9.53,0,0,1,377.34,82.12Z"/><path class="cls-1" d="M412.94,85.13a3.83,3.83,0,0,1,.56,3.12,41.1,41.1,0,0,0-.24,5.91c.07,16.93.58,32.41,1.53,43.27.58,6.65,1.06,12.73,2.09,20.17.43-6.39,1-12.32,1.6-19.32A32,32,0,0,0,420,143a4.93,4.93,0,0,1,.27,2.57c-.81,9-1.27,15.64-1.19,18.69a52.59,52.59,0,0,0,.41,5.26,1.93,1.93,0,0,1-.1,1.53,8.42,8.42,0,0,1-2,1.71c-.3.26-.46,0-.68-.89-2.4-9.67-3.84-23.42-4.7-33.23-1.22-13.89-1.54-26.68-1.88-44.65-.11-3.87-.36-8.32-.78-11.58A9.85,9.85,0,0,1,412.94,85.13Zm20.27,25.75a34.48,34.48,0,0,1-10.4,1c-.28,0-.48-.08-.6-1-.24-1.63-.55-4.07-.73-6.17a32,32,0,0,0,11-1c-.38-4.32-.72-8.76-1.13-13.43A104,104,0,0,0,430,80a8,8,0,0,1,3.74,1.32,2,2,0,0,1,.64,1.35,7.76,7.76,0,0,1,0,1.65,37.37,37.37,0,0,0,.11,5.64c.27,4.09.62,8.18,1,13a38,38,0,0,0,7.15-3.33c.35-.27.42,0,.53.77.21,1.28.48,3.25.6,4.66.07.81,0,1.29-.21,1.42a27.4,27.4,0,0,1-7.45,3.48c1.24,13.66,2.35,24.73,3.5,35.22a48.14,48.14,0,0,1,9.27,11.3,2,2,0,0,1,.23,1.51,37.31,37.31,0,0,1-.81,5.25c-.13.72-.33.62-.55.17a50.78,50.78,0,0,0-7.48-10.17c.71,10.29-1.14,16-6.42,16.44-4.39.39-7.7-4.15-8.45-12.67s2-14.17,6-14.52a11.1,11.1,0,0,1,5,.85C435.35,133.63,434.27,122.9,433.21,110.88ZM437,150.43a8.81,8.81,0,0,0-5.26-1.54c-2.61.23-4.11,3.06-3.69,7.85.37,4.2,2.26,6.5,5.07,6.26,3.31-.29,4.62-4.17,4.08-10.36ZM437.18,74c.17-.25.26-.26.49.19A103,103,0,0,1,443,89.31a1.58,1.58,0,0,1,0,1.19l-1.3,2.34c-.25.38-.45.28-.61-.41a96.87,96.87,0,0,0-5.57-15.87Zm3.88-5.75c.16-.25.29-.38.52.07A112.73,112.73,0,0,1,447,82.85a1.56,1.56,0,0,1-.12,1.42l-1.15,2.34c-.21.37-.39.39-.61-.42a105.5,105.5,0,0,0-5.49-15.51Z"/><path class="cls-1" d="M466.66,84.9a101.86,101.86,0,0,0-.56-11.25A15.24,15.24,0,0,1,470,76.49a3.23,3.23,0,0,1,.46,3,14.32,14.32,0,0,0-.46,3.92c-.2,5.78-.33,11.32-.53,17.1a17.63,17.63,0,0,1,4.46-1.21c4.06-.36,6.52,4.6,7.72,18.26,1.34,15.41,1.53,29.39.73,37.93-.61,6.53-2.23,9.49-4.52,9.69a6.43,6.43,0,0,1-4.95-1.68,2.62,2.62,0,0,1-.73-1.94,49.66,49.66,0,0,0-1.17-7c2.25,2,4.06,2.93,5.7,2.79,1.35-.12,2.14-1.36,2.6-6.34.58-6.76.48-18.63-.77-33-.8-9.11-1.78-12.32-4.31-12.09a14.42,14.42,0,0,0-4.93,1.72c-.94,20.43-2.38,38.91-4.69,56.05-.12.84-.39,1-.74.66a23.7,23.7,0,0,1-2.15-3,2.89,2.89,0,0,1-.26-1.86,492.48,492.48,0,0,0,4.62-50.52c-1.85.87-3.7,1.85-5.94,3.11a4.69,4.69,0,0,0-1.92,1.7c-.44.86-.86.89-1.27-.48-.54-2-1.15-4.61-1.77-7.85a13.12,13.12,0,0,0,4.81-1c2.51-.93,4.27-1.79,6.39-2.8C466.52,96.2,466.62,91.49,466.66,84.9Zm18,8.07c.26-.26.46-.16.74.41,3.88,6.71,7.48,16.63,10,27.59a3.42,3.42,0,0,1,0,2,17.71,17.71,0,0,1-1.64,3.32c-.32.61-.66.52-.86-.64-2.63-11.76-5.83-21.48-10-28.88A36.46,36.46,0,0,1,484.63,93Z"/><path class="cls-1" d="M507.63,73a2.74,2.74,0,0,1,.76,1.7,6.62,6.62,0,0,1-.05,1.53,21.28,21.28,0,0,0-.44,4.63c.06,10.93.49,20.66.94,27,.35,4.44.77,9.23,1.35,13.18.55-5,1.37-11.77,2-17.12a30.82,30.82,0,0,0,1.35,4.71,5.53,5.53,0,0,1,.23,3.15c-.74,5.48-1.32,11.3-1.59,15.67a21.85,21.85,0,0,0,0,3.76c.14,1.05.07,1.41-.19,1.67a13.74,13.74,0,0,1-2.17,1c-.23,0-.41-.43-.56-1.13A169.83,169.83,0,0,1,506.16,111c-.62-7.13-1.06-18-1.33-27.53-.15-4.93-.24-8.68-.71-13A10.43,10.43,0,0,1,507.63,73Zm14.66-2.46c.73.29.89,1.1.9,2.27a48.85,48.85,0,0,0,.39,5.5c1.5,12.92,2.54,22.6,3.27,30.89,1.46,16.69,1.39,29.4-.48,38.62a57,57,0,0,1-6.23,17.6c-.4.75-.73.77-1.23-.12a9.2,9.2,0,0,0-2.67-3.06A45.88,45.88,0,0,0,523,145.49c1.85-9,2.19-19,.73-35.71-.7-8-1.86-19.12-2.9-27.74a114.67,114.67,0,0,0-2-12.17A7.35,7.35,0,0,1,522.29,70.5Z"/><path class="cls-1" d="M578.53,98.05c.07.81,0,.94-.3,1a58.64,58.64,0,0,0-6.09.3l-9.34.82a106.32,106.32,0,0,1-6.38,13c-.06,1.53-.1,3.18-.2,4.72a72.54,72.54,0,0,0,11.12-6.74,7.9,7.9,0,0,0,3.22-3.57,27.86,27.86,0,0,1,2.58,4.24,5.1,5.1,0,0,1,.53,1.72c.05.58-.13,1.19-.6,1.23a6.76,6.76,0,0,0-2.13.89,94.18,94.18,0,0,1-15,8.26c-.15,2.13-.24,4.25-.4,6.27l12.8-1.12a51.4,51.4,0,0,0,5.63-.73c.33,0,.44.2.51,1,.13,3,.32,6.33.42,9.14.38,9.61.38,16.08-.07,19.06-.48,4.16-1.89,5.82-3.66,6a17.72,17.72,0,0,1-4-.12c-.95-.15-.91-.16-1.3-2.48a32.16,32.16,0,0,0-1.29-5.06,13.56,13.56,0,0,0,5.15.73c1.26-.11,2-.77,2.34-3.86a177,177,0,0,0-.33-17.85L555,136.34c-.2,2.6-.5,5.1-.75,7.59-.08.71-.11.83-.6.64l-2-.89c-.5-.31-.61-.53-.49-1.25,1.17-8.21,2-16.28,2.33-24.55A96.87,96.87,0,0,1,542,132c-.77.89-.77.89-1.46-1a15.77,15.77,0,0,0-1.77-3.61,77.07,77.07,0,0,0,20-26.8l-14.57,1.27a57.79,57.79,0,0,0-6,.77c-.33,0-.39-.09-.46-.9l-.42-4.79c-.07-.82,0-.94.29-1a56.35,56.35,0,0,0,6.09-.29l10.65-.94-1.09-12.49-4.81.42a59.38,59.38,0,0,0-6,.76c-.33,0-.38-.08-.45-.9l-.42-4.79c-.07-.81,0-.94.29-1s1.7.08,6-.29L552.6,76l-.2-2.22c-.54-6.19-.87-9.45-1.52-13.16a12.32,12.32,0,0,1,3.19.42,1.17,1.17,0,0,1,.69,1,12,12,0,0,1,0,2.12,71.76,71.76,0,0,0,.48,9.26l.21,2.33,2.15-.19a55.86,55.86,0,0,0,5.91-.75c.32,0,.38.08.45.9l.42,4.79c.07.81,0,.94-.29,1a57,57,0,0,0-5.95.29l-2.15.19L557,94.4l4.3-.38a146.93,146.93,0,0,0,6.17-20.89,49,49,0,0,0,1.14-8,23.38,23.38,0,0,1,3,3.5,3.31,3.31,0,0,1,.57,1.6,1.77,1.77,0,0,1-.32,1.2c-.59.76-1.12,2.33-1.74,4.86-1.61,6.37-3.26,12.28-5.07,17.38l6.49-.57a58.84,58.84,0,0,0,6-.76c.33,0,.39.08.46.9Z"/><path class="cls-1" d="M597.76,93.07a64.2,64.2,0,0,0,8.32-5,4.35,4.35,0,0,0,1.32-1.53c.16-.37.29-.49.52-.52s.3.21.57.54a29,29,0,0,1,2,3.59,5.45,5.45,0,0,1,.48,1.72,3.1,3.1,0,0,1-.35,1.91A13.75,13.75,0,0,0,609.3,97c-2.61,8.82-5,17.62-7.59,26.66a3.74,3.74,0,0,1,2.61-1.87c2.43-.21,4.69,4.18,6.08,12.52,1.85,10.9,2.89,12.57,7.93,12.13a17,17,0,0,0,6.76-2.35c.36-.27.53.07.66,1.11.22,1.4.52,3.72.69,5.71.07.81-.08,1.18-.49,1.33a17.23,17.23,0,0,1-6.55,2.11c-6.72.58-9.1-3-11.06-14.56-1.38-8.24-2.56-12.6-4.71-12.41-1.49.13-3.26,2.52-4.68,7.23-1.88,5.93-3.92,14.34-5.48,20.71-.15.49-.42.63-.74.18-.77-1.22-1.55-2.68-2.18-3.92a3.31,3.31,0,0,1-.09-2.11c2.69-9.06,5.3-18,6.93-23.55,2.27-8,4.88-17.83,8.38-30.61-4.77,3-8.52,5.33-12.31,7.78a9.49,9.49,0,0,0-1.77,1.8c-.38.51-.51.64-.79.66s-.46-.43-.73-1.35c-.54-1.83-1.26-4.71-1.92-7.94C591.38,96,593.57,95.2,597.76,93.07ZM607,67.92c.44.19.51.54.52,1.71,0,1.77-.11,4.13-.23,5.44,0,.59-.24,1-.53.87A48.21,48.21,0,0,1,594,67.4a1.79,1.79,0,0,1-.41-1.49c0-1.77.21-4,.38-6.39A53.61,53.61,0,0,0,607,67.92Z"/><path class="cls-1" d="M650.31,75.77c-6.76,3.41-12.61,6.4-18.23,10A6.9,6.9,0,0,0,629.45,88c-.3.37-.53.87-.81.89s-.56-.42-.75-1c-.67-2.3-1.34-5.06-2-8.18,1.68-.14,2.86-.6,5.66-1.91,6.72-3.41,15.89-7.74,28.07-12.68.45-.16.72.17.87.86.28,1.51.66,4.29.79,5.81.1,1,0,1.3-.48,1.46a10.56,10.56,0,0,0-6.51,4.09c-6.23,7.37-10.2,22.19-8.83,37.83,1.69,19.38,9,24.51,15.91,25.31.61.07.77.29.86,1.22.11,1.29.2,4,.21,5.63,0,1.29-.08,1.77-.61,1.7-8-1.06-17.28-8.72-19.34-32.3C641,100.23,643.9,86.33,650.38,76Z"/><path class="cls-1" d="M675.34,69.23a2.06,2.06,0,0,1,.53,1.24c0,.59,0,1.3,0,2.12a97,97,0,0,0,.56,10.77c.66,7.48,1.33,14.59,3,26.45,1.9,13.71,4.79,23.57,7,23.38,1.87-.16,3-7.79,3.39-18.77a23.4,23.4,0,0,0,2,5.71,5.21,5.21,0,0,1,.63,2.88c-.48,9.57-2.22,18.67-5.35,18.94-3.92.34-8-12.94-10.68-31.18-1.68-11.62-3-24.79-3.69-32.5-.39-4.43-.68-7.23-1.36-11.17A8.11,8.11,0,0,1,675.34,69.23Zm23.06,7c.25-.38.47-.52.7-.06,5.67,10,10.1,24.05,12.64,39.59a2.12,2.12,0,0,1-.2,1.55,10.69,10.69,0,0,1-1.91,2.87c-.3.26-.57-.07-.69-.88-2.87-17.75-6.89-29.86-12.32-39.74A26.69,26.69,0,0,1,698.4,76.27Z"/><path class="cls-1" d="M728.61,98.33c2.88-5.78,5.95-8.88,9.31-9.17,6.73-.59,11.79,9.44,13.12,24.61,1.52,17.4-2.89,30.49-12.79,31.35-5.6.49-8.67-5.59-9.33-13.06-.53-6.07,1.11-12.09,4.43-12.38,4.2-.37,7.64,6.15,9.4,16,3.73-3.62,6-10.4,5-21.84-1-11.91-5.31-18.83-9.75-18.44-4.62.41-8.72,6.76-11.69,14.32-1.24,3.05-2.17,6.3-3.27,9.93-.29,1-.51,1.1-.91.31-.69-1.35-1.54-3-2.14-4.51a2.15,2.15,0,0,1,0-1.77c3-8.38,4.84-14.54,8.27-27,2.07-7.59,4.21-15.31,6.88-26.24-3.74,1.85-7.23,3.92-11.21,6.27a4.87,4.87,0,0,0-1.55,1.19,1.75,1.75,0,0,1-.83.67c-.33,0-.6-.42-.87-1.34a77.15,77.15,0,0,1-1.83-8,7.15,7.15,0,0,0,4.12-.24,60.78,60.78,0,0,0,11.26-5.22,3.34,3.34,0,0,0,1.36-1.18c.15-.36.39-.86.58-.87s.49.19.92.86a30.68,30.68,0,0,1,2.44,4.73,6.52,6.52,0,0,1,.5,1.95,3.16,3.16,0,0,1-.51,2.28c-.56.52-1,1.38-1.84,4.28-3.19,11.34-5.6,19.78-9.23,32.1ZM734,126c-1.49.13-2.68,2.12-2.37,5.74.34,3.85,2.31,7,5.44,6.7a7.2,7.2,0,0,0,3-.85C738.85,131,736.65,125.74,734,126Z"/><path class="cls-1" d="M773.47,132.4c.78,9-1.57,16.49-5.17,16.8s-7.21-6.66-8-15.65,1.57-16.49,5.16-16.8S772.68,123.41,773.47,132.4Zm-10.74.94c.5,5.72,2.77,10.22,5.06,10s3.75-5,3.25-10.75-2.73-10.23-5.07-10S762.23,127.62,762.73,133.34Z"/><rect class="cls-2" width="1000" height="265"/></g></svg>