<svg xmlns="http://www.w3.org/2000/svg" viewBox="0 0 1000 265"><defs><style>.cls-1{isolation:isolate;}.cls-2{mix-blend-mode:soft-light;}.cls-3{fill:red;}.cls-4{fill:none;opacity:0.19;}</style></defs><title>アートボード 363</title><g class="cls-1"><g id="CHARACTER"><g class="cls-2"><path class="cls-3" d="M8.72,119.58c-.44-5-.86-8.28-1.33-10.94a9.34,9.34,0,0,1,3.89,1.42,2.35,2.35,0,0,1,.71,1.7,6.51,6.51,0,0,1-.1,1.54,28.2,28.2,0,0,0,0,6c.18,3.17.42,6.44.7,10.18A29.18,29.18,0,0,0,19,124c.34-.38.54-.28.68.77.23,1.62.47,3.25.61,4.88.1,1.06,0,1.18-.38,1.57A28.76,28.76,0,0,1,13,136.61c.57,7.6,1.24,15.3,2,23,4-5.76,7.54-9.6,11.41-9.94,5.75-.5,9.93,8.08,11,19.87,1.24,14.12-1.95,21.81-7.83,22.33a5.86,5.86,0,0,1-3.86-1.08c-.49-.31-.71-1.11-.92-3a33.24,33.24,0,0,0-1.21-5.3,6.3,6.3,0,0,0,5.21,2c3.73-.32,6.17-5.24,5.32-14.93-.74-8.52-3.52-13.93-7.67-13.56-2.76.24-6.18,3.6-10.77,10.82.36,4.2,1,10.62,1.79,17.84.58,5.48,1.09,9.2,1.25,11.07.15,1.63.16,2.34-.28,2.73a5,5,0,0,1-1.89,1c-.42,0-.75-1.11-2.14-4A72,72,0,0,0,6.46,183c-.61,1.11-1,2-1.37,2.7-.19.49-.34.86-.58.88s-.51-.43-.81-1.22c-.55-1.49-1.29-4-2.07-7a17.62,17.62,0,0,0,4.17-4.48c1.84-2.63,4.18-6.6,6.67-10.94-.78-8.28-1.53-16.92-2.24-25a26.62,26.62,0,0,1-8.43,2c-.61.05-.84-.52-1-1.68C.5,136.89.24,135,0,132.81A24.28,24.28,0,0,0,9.63,131C9.31,126.82,9.07,123.55,8.72,119.58Zm-.79,60.3c2.53,3.07,4.33,5.38,6.53,7.9.36.43.48.19.39-.86-.53-5-1-10.15-1.73-16.56C11.24,173.59,9.87,176.3,7.93,179.88Zm17.88-58.62c.12-.83.23-1.08.57-1,3.81,1.55,7.47,5.23,10.32,11.45a2.08,2.08,0,0,1,.13,1.51,49.75,49.75,0,0,1-1.07,4.92c-.18.61-.38.51-.61.06-3-6.33-6.23-10.4-10-12C25.29,124.48,25.53,122.93,25.81,121.26Z"/><path class="cls-3" d="M83.66,118.79c.07.81,0,.93-.29,1a59.57,59.57,0,0,0-6.14.3l-27.79,2.44a60,60,0,0,0-6,.76c-.32,0-.38-.08-.45-.9l-.44-5c-.07-.82,0-.94.29-1a58.47,58.47,0,0,0,6.09-.3l16.53-1.44c.94-4.32,1.72-8.86,2.46-13.86.27-2.26.45-4.51.49-6.28a16.09,16.09,0,0,1,3,2,1.86,1.86,0,0,1,.58,1.25,2.43,2.43,0,0,1-.3,1.43c-.28.5-.44,1.34-1.07,4.92-.47,2.75-1.24,6.81-2,10.3l8.13-.72a53.31,53.31,0,0,0,6.09-.77c.33,0,.39.09.46.91ZM66.65,175c.55,6.31,1.16,12.25,1.44,15.41.31,3.5.39,6.08-.3,7.9-.55,1.23-1.7,2-5.16,2.34-.93.08-.92.2-1.31-2.12a30.1,30.1,0,0,0-1.25-4.6,16.6,16.6,0,0,0,3.53,0c1.68-.14,2-1,1.71-4.14l-1.24-14.13-9.85.86.85,9.69c.9,10.28,1.37,14.59,1.42,15.17s0,.82-.3.85l-2.1.18c-.33,0-.39-.08-.45-.78s-.31-4.68-1.23-15.19l-3.24-37c-.92-10.51-1.38-14.7-1.44-15.4s0-.94.29-1a37.5,37.5,0,0,0,4.74-.18l5.13-.45a37.35,37.35,0,0,0,4.7-.64c.33,0,.38.08.45.9.05.58.39,5.49,1.31,16ZM52.44,97.05c.46-.63.55-.75.84-.07a101.66,101.66,0,0,1,4.3,12.56c.21.8.18.93-.37,1.68L56,112.62c-.6.75-.69.76-.91-.16A118.58,118.58,0,0,0,51.05,100c-.3-.79-.28-1,.2-1.54Zm8.36,41.26-9.85.87L52,151.55l9.86-.86Zm1.61,18.33-9.85.86,1.12,12.85,9.85-.87Zm8.14-8c-.56-6.43-.89-10.28-1.58-14.33a11,11,0,0,1,3,.44c.33.09.55.42.6,1a18.35,18.35,0,0,1-.1,2c-.07,1.41.13,3.63.73,10.52l1.31,14.94c.7,8.06,1.09,11.44,1.14,12,.07.82,0,.94-.24,1l-2.1.18c-.33,0-.39-.08-.46-.9s-.25-4-1-12Zm8.63-6.29c-.58-6.65-1-10.62-1.53-13.74a17.56,17.56,0,0,1,3.08.31,1.08,1.08,0,0,1,.65.89,12,12,0,0,1-.13,2.36c-.06,1,.11,3.4.68,9.82l2.51,28.72c.56,6.42,1.09,11.91,1.47,16.34.44,5,.27,7.39-.52,9.11s-1.77,2.27-6,2.64c-.94.08-.94.08-1.38-2.23a26.2,26.2,0,0,0-1.32-4.94,13.56,13.56,0,0,0,4.44.2c1.73-.16,2.31-1,1.88-5.93Z"/><path class="cls-3" d="M97.63,125.21a3.36,3.36,0,0,1,.54,2.89,32.27,32.27,0,0,0-.22,5.55c.08,8,.44,19,1,26.85,3.69-14.32,8.86-21.94,14.46-22.44,6.35-.55,10.84,8.23,12,21.42,1,11.79-.92,19.61-4.83,25.48a22.19,22.19,0,0,1-10.67,8.7c-.73.3-1,.32-1.31-.94a22,22,0,0,0-2.6-5.54A21.8,21.8,0,0,0,118,178.83c3.27-4.52,4.66-11.23,3.92-19.75-.73-8.29-3.39-14.53-8.34-14.09-4.44.38-8.91,7.83-12.28,19.42a42.78,42.78,0,0,0-1.45,7.07c-.15,1-.29,1-.69.65a17.43,17.43,0,0,1-2.1-1.94c-.31-.32-.43-.55-.52-1.6-1-13.09-1.46-25.28-1.85-36.77-.11-3.41-.19-6.46-.48-9.73A15.52,15.52,0,0,1,97.63,125.21Zm-.24-28.56c.15-.49.27-.73.62-.41a42.61,42.61,0,0,1,9.71,12.56,1.9,1.9,0,0,1,.24,1.63,50.93,50.93,0,0,1-1.1,5.15c-.17.72-.41.74-.75.06a51.05,51.05,0,0,0-9.88-13.48A47.06,47.06,0,0,1,97.39,96.65Z"/><path class="cls-3" d="M151.87,116.94c2.83-3.08,5.68-5,8.48-5.22,5.37-.47,9.4,6.36,10.49,18.73,1.26,14.48-2.88,22-9.6,22.6a6.88,6.88,0,0,1-2.22,0c-.47-.08-.64-.41-.85-1.1a40,40,0,0,0-1.93-6.54,9.91,9.91,0,0,0,4.24.57c4.67-.4,7.86-5.27,6.94-15.78-.81-9.34-3.89-11.66-6.46-11.43-3.08.27-5.13,2.09-7.12,4a102.74,102.74,0,0,0-8.07,9.41c4.25,18.45,8.17,35.29,12.3,53.51.29,1.15.32,1.5-.1,2.13a7.35,7.35,0,0,1-2.1,2.3c-.27.14-.33,0-.48-.67-4.07-19.05-7.66-35.32-12.06-53.88-2,2.65-3.46,4.54-5,6.55a15.26,15.26,0,0,0-2.2,3.84c-.18.61-.43,1-.62,1s-.54-.31-.89-1.1a65.31,65.31,0,0,1-2.6-7.06,19.67,19.67,0,0,0,4.42-3.8c1.62-1.91,3.09-3.45,5.21-6.1-.93-4.16-1.84-8.08-2.95-12.69a83.61,83.61,0,0,0-3.18-10.54,9.32,9.32,0,0,1,3.88-1.4c.56-.05.67.65.76,1.7a20.68,20.68,0,0,0,.44,3.37c.27,1.51.65,3.24,1.6,7.63.86,3.92,1.36,5.88,2,8.65A95.92,95.92,0,0,1,151.87,116.94ZM149.05,93.3c.24-.49.33-.5.7-.06a57.11,57.11,0,0,1,6,10.65,2.77,2.77,0,0,1,.15,1.75,22,22,0,0,1-1.43,4c-.16.37-.4.27-.64-.3a47.41,47.41,0,0,0-6.59-11.89A44.78,44.78,0,0,1,149.05,93.3Z"/><path class="cls-3" d="M200,99.43a58.58,58.58,0,0,0-.52-8.66A11.63,11.63,0,0,1,203.4,94a3.79,3.79,0,0,1,.48,3.25,23,23,0,0,0-.54,4.64c-.17,2.83-.38,5.79-.69,10.88,8.19.58,14.28,12.63,15.86,30.72,1.82,20.78-3.63,32.2-11.08,37.44-.62.41-.88.08-1.31-1.06a14.27,14.27,0,0,0-2.34-4.15c8-4.47,13-15.37,11.53-32.18-.95-10.86-4.73-25.11-12.94-24.75-1,14.56-2.42,26.09-4.12,36.24.94,2.62,2,5,3.32,7.83a19,19,0,0,1-1.2,4c-.2.49-.51.64-.91-.15-.75-1.58-1.62-3.51-2.53-5.78-2.19,8.9-4.42,13.44-6.94,13.67s-5.35-4.6-6.38-16.39a74.35,74.35,0,0,1,3.93-32c-.86-4.52-1.95-10.54-2.87-15.63a109.52,109.52,0,0,0-2.31-10.74,6.7,6.7,0,0,1,3.47.87c.6.42.71,1.12.77,2.4.1,1.64.33,3.15.67,5.47.81,5,1.66,9.86,2.36,13.56,2.61-4.58,6.43-8.33,10-9.22C199.88,108.5,200,104.14,200,99.43Zm-13.66,57.89c.53,6.07,1.88,9.6,3.14,9.49,1.68-.14,3.4-3.12,5.27-11.87-2.26-7-4.31-14.8-5.89-22.07A66.78,66.78,0,0,0,186.36,157.32Zm9.76-8.38c1.12-6.57,2.36-18.2,3.15-29.68-2.93,1-6.29,4.55-8.49,9C192.37,135.62,194.38,143.57,196.12,148.94Z"/><path class="cls-3" d="M238.1,133.39c3.51-7.25,7.27-9.93,10.31-10.2,6.86-.6,11.87,8.85,13.13,23.2,1.39,15.88-2.43,29.74-14.36,36-.67.41-.9.44-1.34-.82a16.54,16.54,0,0,0-2.54-4.84c10.91-4.95,16.22-15.77,14.89-30.94-.84-9.58-4.4-16.44-9.63-16s-10.31,8.08-14,18.28c-1.09,3.16-2.2,7.13-2.93,10.14-.25.84-.47,1.1-.9.43a31.41,31.41,0,0,1-2-4.06,2.06,2.06,0,0,1-.16-1.75c2.71-8.35,4.94-15.61,7.76-25.85,2.09-7.83,5-19.5,8.23-32.84-3.81,2.1-7.45,4.07-10.86,6a8.49,8.49,0,0,0-1.8,1.45c-.38.51-.59.76-.87.78s-.51-.42-.83-1.45a77.76,77.76,0,0,1-1.89-7.6,12.28,12.28,0,0,0,5.59-1.2,89.52,89.52,0,0,0,9.92-4.86,3,3,0,0,0,1.46-1.66c.26-.73.68-.77,1.12-.1A25,25,0,0,1,249,91a4.29,4.29,0,0,1-.2,3.67,12.2,12.2,0,0,0-1.35,3.88c-2.88,10.72-5.54,20.13-9.55,34.48Z"/><path class="cls-3" d="M276.25,130.05c.38,4.32-.73,7.83-2.36,8s-3.38-3.12-3.76-7.43c-.35-4.09.69-7.71,2.42-7.86S275.89,126,276.25,130.05Zm15.55-1.36c.38,4.32-.73,7.83-2.36,8s-3.38-3.12-3.76-7.44c-.35-4.08.69-7.7,2.42-7.85S291.44,124.6,291.8,128.69Zm15.55-1.36c.38,4.32-.73,7.83-2.36,8s-3.38-3.12-3.76-7.44c-.35-4.08.74-7.71,2.42-7.85S307,123.24,307.35,127.33Z"/><path class="cls-3" d="M330.64,118.7c1.92,22,2.33,25.56,2.38,26.15.07.81,0,.93-.29,1l-2.1.19c-.33,0-.38-.09-.46-.9l-.65-7.48-8.73.77,1,12c.07.82,0,.94-.29,1l-2.1.18c-.33,0-.39-.08-.46-.9-.05-.58-.28-4.33-2.32-27.56L315.27,107c-1.41-16.11-1.84-19.95-1.91-20.65s0-.94.3-1a33.79,33.79,0,0,0,4.55-.16l4.62-.41a33.26,33.26,0,0,0,4.51-.63c.32,0,.38.09.45.9s.3,4.45,1.42,17.29ZM325.44,91l-8.73.77L320.23,132l8.73-.77Zm19.28-12a43,43,0,0,0,5.21-.7c.33,0,.38.09.45.91s.44,6.07,1.48,18l2.58,29.42c.73,8.41,1.15,12.6,1.41,15.64.37,4.2.52,7.48-.06,10-.67,3.12-1.94,4.17-6.39,4.45-.93.08-1,.2-1.37-2.24a33.89,33.89,0,0,0-1.32-5.41,15.57,15.57,0,0,0,4.2.22c1.92-.17,2.45-1.63,1.95-7.35l-4.93-56.38-11.58,1,6,68.41c1.26,14.36,1.91,20.77,2,21.36.08.81,0,.93-.29,1l-2.29.2c-.32,0-.38-.08-.45-.9s-.54-7.24-1.91-22.89L335,103.85c-1.38-15.76-2.06-22.4-2.12-23.1s0-.94.29-1a41.73,41.73,0,0,0,5.21-.22Z"/><path class="cls-3" d="M363.9,109c.34-.5.54-.28.9.51a115.24,115.24,0,0,1,5.26,16c.28,1.15.3,1.38-.05,2.12a11.26,11.26,0,0,1-1.6,2.26c-.37.5-.6,0-.82-.87a131.5,131.5,0,0,0-5.54-17C362.79,110.72,363.41,109.72,363.9,109Zm8.69-6.17c.29-.38.54-.28.85.63a128,128,0,0,1,4.92,15.92,2.11,2.11,0,0,1-.16,1.9,19.57,19.57,0,0,1-1.67,2.38c-.3.38-.47,0-.75-1a128,128,0,0,0-5.11-17A34.32,34.32,0,0,1,372.59,102.8Zm16.26,4.11a3.26,3.26,0,0,1,.29,2.79,28,28,0,0,0-.86,5.73,246.39,246.39,0,0,1-4.23,30.71c-2.08,9.6-4.23,16.25-7.49,23-.28.61-.68.88-1,.21a6.63,6.63,0,0,0-2.68-2.71,94,94,0,0,0,8.42-24.14,201,201,0,0,0,3.84-29.28c.16-3.07.12-5.65,0-9.64A11.86,11.86,0,0,1,388.85,106.91Z"/><path class="cls-3" d="M415.77,83.85c.07.81,0,.93-.29,1a55.33,55.33,0,0,0-5.67.26l-2.57.23.85,9.69,1.68-.15a41.3,41.3,0,0,0,5-.67c.32,0,.38.08.45.9.05.59.2,3.4.87,11l1.43,16.35c.66,7.59,1,10.38,1.05,11,.07.82,0,.94-.29,1a40.25,40.25,0,0,0-5,.2l-1.68.15.87,9.92,2.38-.2a48.92,48.92,0,0,0,5.63-.73c.33,0,.38.08.46.9l.38,4.43c.08.82,0,.94-.29,1a48.84,48.84,0,0,0-5.67.26l-2.38.21c1.13,13,1.75,18.91,1.8,19.49.07.82,0,.94-.29,1l-2,.18c-.33,0-.38-.08-.46-.9-.05-.58-.47-6.55-1.61-19.5l-3.22.28a45.62,45.62,0,0,0-5.63.73c-.33,0-.38-.09-.46-.91l-.38-4.43c-.08-.82,0-.94.29-1a48.6,48.6,0,0,0,5.67-.26l3.22-.28L409,134.9l-1.58.14a40.87,40.87,0,0,0-5,.67c-.33,0-.38-.08-.46-.9s-.2-3.39-.86-11l-1.43-16.34c-.67-7.59-1-10.38-1.06-11-.07-.82,0-.94.3-1a41.87,41.87,0,0,0,5-.21l1.59-.14-.85-9.69-2.94.26a45.08,45.08,0,0,0-5.58.73c-.33,0-.39-.09-.46-.91l-.39-4.43c-.07-.82,0-.94.3-1a47.72,47.72,0,0,0,5.62-.26l2.94-.25c-.6-6.89-.92-10-1.53-13.75a10.46,10.46,0,0,1,2.9.33c.38.09.6.42.65,1s0,1.18-.07,1.88a98.54,98.54,0,0,0,.59,10l0,.35,2.57-.22a51.4,51.4,0,0,0,5.63-.73c.32,0,.38.08.45.9ZM406,100.46l-4.49.39,1,11.56L407,112Zm1.46,16.7-4.49.39L404.1,130l4.48-.39Zm5.63-17.32-4.62.41,1,11.55,4.63-.4Zm1.47,16.7-4.63.4,1.1,12.49,4.62-.4Zm25.77-8.14c.08.82,0,.94-.29,1a55.6,55.6,0,0,0-5.72.27l-.41,0,3.79,43.42c.86,9.81,1.32,14,1.39,14.71s0,.82-.31.84l-2.24.2c-.28,0-.34-.09-.4-.79s-.33-4.91-1.19-14.71l-3.8-43.43-7.28.64c1.32,15.17,1.85,24.42,1.65,35a111.94,111.94,0,0,1-2.72,23.3c-.2.84-.3,1.32-.49,1.33s-.36-.32-.75-1a8.12,8.12,0,0,0-1.95-2.42c2-6.64,3.1-14.62,3.18-25,0-6.82-.17-14.33-1.63-31l-1.63-18.56c-.46-5.25-1-10.85-1.59-15a8.83,8.83,0,0,1,3.13,2c3.63-2.09,6.31-4.79,9.45-9.3a14.37,14.37,0,0,0,1.85-4A37.29,37.29,0,0,1,435,70.64a3.7,3.7,0,0,1,.4,1.37,1.17,1.17,0,0,1-.5,1.22,4.8,4.8,0,0,0-1.51,1.55c-3.93,5.16-7.28,8.28-11.67,10.78l1.63,18.68,10.46-.91a50,50,0,0,0,5.68-.74c.33,0,.38.09.46.91Z"/><path class="cls-3" d="M456.83,114.84c2.88-5.78,6-8.87,9.32-9.17,6.72-.59,11.79,9.44,13.11,24.62,1.53,17.39-2.88,30.48-12.78,31.35-5.6.49-8.68-5.6-9.33-13.07-.53-6.07,1.11-12.09,4.42-12.38,4.2-.37,7.64,6.15,9.4,16,3.73-3.62,6-10.41,5-21.85-1-11.91-5.32-18.83-9.76-18.44-4.62.41-8.72,6.77-11.68,14.32-1.24,3.05-2.18,6.31-3.27,9.93-.3,1-.52,1.11-.92.32-.68-1.36-1.53-3-2.13-4.52a2.15,2.15,0,0,1,0-1.77c3-8.38,4.84-14.54,8.28-27,2.06-7.59,4.21-15.3,6.87-26.24-3.74,1.85-7.23,3.92-11.21,6.27a4.62,4.62,0,0,0-1.54,1.2,1.73,1.73,0,0,1-.84.66c-.33,0-.6-.42-.87-1.34a80.43,80.43,0,0,1-1.82-8,7.07,7.07,0,0,0,4.12-.24,60.09,60.09,0,0,0,11.26-5.22,3.29,3.29,0,0,0,1.35-1.17c.16-.37.4-.86.58-.88s.49.19.93.86a30.55,30.55,0,0,1,2.43,4.73,6.22,6.22,0,0,1,.5,2,3.18,3.18,0,0,1-.5,2.27c-.57.52-1,1.39-1.84,4.28-3.2,11.34-5.61,19.78-9.24,32.1Zm5.39,27.64c-1.5.13-2.69,2.12-2.37,5.74.33,3.85,2.3,7,5.43,6.7a7.16,7.16,0,0,0,3-.85C467.08,147.47,464.88,142.25,462.22,142.48Z"/><path class="cls-3" d="M508.61,110.19A99.55,99.55,0,0,0,491,124.9c-.78.78-1.13,1.63-1.41,1.66s-.47-.55-.73-1.35c-.45-1.37-1-3.44-1.65-6a6,6,0,0,0,1.74-1.57,28,28,0,0,0,4.53-8.51c3.83-10,7.47-20.53,12.34-36.37-3.82,2-7.6,4-11.14,6-.62.41-1.15.81-1.6,1.08s-.9,1-1.27,1.06-.53-.66-.85-1.69-1.05-3.91-1.71-7.15a9.58,9.58,0,0,0,4.12-.24,106.17,106.17,0,0,0,11.87-5.27,3.38,3.38,0,0,0,1.64-1.68c.24-.49.45-.74.64-.76s.49.19.87.87a25.35,25.35,0,0,1,2.05,4,7.24,7.24,0,0,1,.57,2.19,3.22,3.22,0,0,1-.43,2,10.91,10.91,0,0,0-1.45,2.84c-4.91,14.31-9.3,26-13.87,37.21l.17.33a94.13,94.13,0,0,1,24.42-16.13c.46-.16.66.06.83.87.25,1.27.59,3.59.85,5.92.12.93,0,1.18-.6,1.23a16.13,16.13,0,0,0-8.14,4.83c-5,5.26-8.2,14.48-7.27,25.1,1.18,13.43,7.66,16.51,14,16.07.37,0,.55.31.64,1.36.09,1.63.18,4.22.21,5.62.05,1.18-.06,1.54-.57,1.58a14.38,14.38,0,0,1-2.94-.21c-7.49-1.23-12.86-8.29-14.11-22.53-.78-9,.55-19.57,5.83-27Zm5.92-39.34c.12-.24.26-.25.48.08a66.9,66.9,0,0,1,6.51,13.66,1.72,1.72,0,0,1,0,1.3l-1.11,2.92c-.19.48-.43.39-.63-.18a60.79,60.79,0,0,0-6.72-14.47Zm3.21-7.92c.16-.37.29-.5.51-.17A76.22,76.22,0,0,1,524.76,76a1.77,1.77,0,0,1,0,1.41l-1,2.91c-.14.49-.33.5-.58-.18A66.86,66.86,0,0,0,516.5,66Z"/></g><rect class="cls-4" width="1000" height="265"/></g></g></svg>