<svg xmlns="http://www.w3.org/2000/svg" viewBox="0 0 1000 265"><defs><style>.cls-1{isolation:isolate;}.cls-2{mix-blend-mode:soft-light;}.cls-3{fill:red;}.cls-4{fill:none;opacity:0.19;}</style></defs><title>アートボード 364</title><g class="cls-1"><g id="CHARACTER"><g class="cls-2"><path class="cls-3" d="M8.72,124.94c-.44-5-.86-8.27-1.33-10.94a9.34,9.34,0,0,1,3.89,1.42,2.36,2.36,0,0,1,.71,1.71,6.46,6.46,0,0,1-.1,1.53,28.3,28.3,0,0,0,0,6c.18,3.16.42,6.43.7,10.17a29.39,29.39,0,0,0,6.44-5.5c.34-.39.54-.29.68.76.23,1.63.47,3.25.61,4.89.1,1,0,1.18-.38,1.56A28.76,28.76,0,0,1,13,142c.57,7.6,1.24,15.3,2,23,4-5.76,7.54-9.6,11.41-9.94,5.75-.51,9.93,8.07,11,19.86,1.24,14.13-1.95,21.81-7.83,22.33a5.85,5.85,0,0,1-3.86-1.07c-.49-.31-.71-1.12-.92-3a33.09,33.09,0,0,0-1.21-5.31,6.31,6.31,0,0,0,5.21,2c3.73-.33,6.17-5.25,5.32-14.94-.74-8.52-3.52-13.92-7.67-13.56-2.76.24-6.18,3.6-10.77,10.82.36,4.21,1,10.62,1.79,17.84.58,5.48,1.09,9.2,1.25,11.07.15,1.63.16,2.34-.28,2.73a5,5,0,0,1-1.89,1c-.42,0-.75-1.11-2.14-4.05a72.38,72.38,0,0,0-7.91-12.48c-.61,1.11-1,2-1.37,2.71-.19.48-.34.85-.58.87s-.51-.43-.81-1.22c-.55-1.48-1.29-4-2.07-7a17.62,17.62,0,0,0,4.17-4.48c1.84-2.63,4.18-6.6,6.67-10.93-.78-8.29-1.53-16.93-2.24-25a26.61,26.61,0,0,1-8.43,2c-.61.05-.84-.51-1-1.67-.26-1.39-.52-3.25-.76-5.47a24.28,24.28,0,0,0,9.63-1.78C9.31,132.18,9.07,128.91,8.72,124.94Zm-.79,60.3c2.53,3.07,4.33,5.39,6.53,7.9.36.44.48.19.39-.86-.53-5-1-10.14-1.73-16.55C11.24,179,9.87,181.66,7.93,185.24Zm17.88-58.62c.12-.83.23-1.08.57-1,3.81,1.55,7.47,5.23,10.32,11.45a2.11,2.11,0,0,1,.13,1.52c-.25,1.43-.67,3.59-1.07,4.92-.18.6-.38.5-.61,0-3-6.32-6.23-10.4-10-11.95C25.29,129.84,25.53,128.29,25.81,126.62Z"/><path class="cls-3" d="M50.91,113.37a2.58,2.58,0,0,1,.64,1.47,5.86,5.86,0,0,1-.12,1.31c-.16.83-.17,1.78-.17,6.13,0,17.17.77,34.63,1.78,46.07.62,7.12,1.18,13.55,2,19,.42-6,.92-12.08,1.47-18.72.46,2,1,3.8,1.43,5.06a5.65,5.65,0,0,1,.36,1.38,9.62,9.62,0,0,1-.07,1.41c-.43,5.81-.88,11.37-1.09,15.51a30.62,30.62,0,0,0,0,4.35c.08.93.18,1.51.36,2.56.17.81.16,1.28-.14,1.54a9.37,9.37,0,0,1-1.82,1.81c-.37.14-.55-.31-.69-.89-2.43-9.43-3.74-22.25-4.7-33.23-1.14-13.07-1.75-31.84-2-44.76-.16-5.52-.33-9.15-.7-12.29A8.94,8.94,0,0,1,50.91,113.37Zm9,11.8q-.44-3.32-.69-6.3c0-.58.1-1,.46-1.1a92.45,92.45,0,0,1,9.11-2.91,45.47,45.47,0,0,1,9.32-1.64c.46,0,.65.41.71,1.12.2,1.74.34,3.38.43,4.9,0,.82,0,1.06-.29,1.08-2,.18-3.95.47-6,.76.58,8.19,1.1,14.14,1.68,21.38a33.33,33.33,0,0,0,6.41-3.73c.21-.26.33.08.43.66.29,1.74.5,3.61.72,5.59.06.58,0,.94-.23,1.08a40.69,40.69,0,0,1-6.61,3.52c.76,8.63,1.65,17.26,2.61,25.53,3.22,2.42,6.76,6.82,9.38,10.94a2.12,2.12,0,0,1,.33,1.62A52.92,52.92,0,0,1,87,193c-.13.6-.27.61-.66-.06a46.36,46.36,0,0,0-7.65-10c.59,10.54-1.38,15.53-6.28,16-3.87.34-7.4-3.94-8.15-12.46s2-13.58,5.7-13.91a8.83,8.83,0,0,1,4.83.87c-.79-7.46-1.58-14.8-2.32-22.74a19,19,0,0,1-9.68.62c-.29-.1-.41-.32-.51-.9-.26-2-.51-4.31-.68-6.18a18.87,18.87,0,0,0,10.19-.77c-.62-7.12-1.2-13.77-1.84-21.6A47.28,47.28,0,0,0,59.94,125.17Zm10.57,53.65c-2.66.24-3.94,2.82-3.57,7s2.08,6.52,4.41,6.32c1.92-.17,3.31-1.47,4-3.76.5-1.81.55-4.4.18-8.13A7.76,7.76,0,0,0,70.51,178.82Z"/><path class="cls-3" d="M97.09,109.33a2.53,2.53,0,0,1,.65,1.47,6.52,6.52,0,0,1-.12,1.31c-.17.83-.18,1.78-.17,6.13,0,17.17.77,34.63,1.77,46.07.62,7.12,1.18,13.54,2,19,.41-6,.92-12.08,1.47-18.72a49.51,49.51,0,0,0,1.43,5,5.81,5.81,0,0,1,.35,1.38,11,11,0,0,1-.06,1.42c-.44,5.8-.89,11.37-1.09,15.51a29.45,29.45,0,0,0,0,4.35,24.3,24.3,0,0,0,.37,2.56c.16.81.16,1.28-.15,1.54a9.29,9.29,0,0,1-1.82,1.8c-.36.15-.54-.3-.69-.88-2.42-9.43-3.73-22.26-4.69-33.23-1.15-13.07-1.75-31.84-2-44.76-.15-5.52-.33-9.15-.7-12.29A8.94,8.94,0,0,1,97.09,109.33Zm9,11.8q-.44-3.31-.69-6.3c-.05-.58.11-1,.47-1.1a91.61,91.61,0,0,1,9.11-2.91,45.37,45.37,0,0,1,9.31-1.64c.47,0,.65.41.71,1.11.2,1.75.34,3.39.43,4.91,0,.82,0,1.06-.28,1.08-2,.18-4,.47-6,.76.57,8.19,1.09,14.14,1.68,21.38a33.56,33.56,0,0,0,6.4-3.73c.21-.26.34.08.43.66.3,1.74.51,3.61.73,5.59.05.58-.06.94-.24,1.08a40.69,40.69,0,0,1-6.61,3.52c.76,8.63,1.66,17.26,2.61,25.53,3.23,2.42,6.76,6.82,9.38,10.94a2.07,2.07,0,0,1,.33,1.62c-.11,1.42-.38,3.68-.7,5.36-.14.6-.28.61-.67-.07a46.19,46.19,0,0,0-7.65-10c.59,10.54-1.37,15.53-6.27,16-3.88.34-7.41-3.94-8.15-12.46s2-13.59,5.7-13.91a8.74,8.74,0,0,1,4.83.87c-.8-7.46-1.58-14.8-2.32-22.74a19,19,0,0,1-9.69.62c-.29-.1-.4-.32-.5-.9-.27-2-.52-4.31-.68-6.18a18.87,18.87,0,0,0,10.19-.77c-.63-7.12-1.21-13.78-1.85-21.6A47.28,47.28,0,0,0,106.12,121.13Zm10.58,53.65c-2.66.24-3.94,2.82-3.58,7s2.08,6.52,4.42,6.32c1.91-.17,3.3-1.47,3.95-3.76.5-1.81.55-4.4.18-8.13A7.73,7.73,0,0,0,116.7,174.78Z"/><path class="cls-3" d="M143.27,105.29a2.53,2.53,0,0,1,.65,1.47,6.52,6.52,0,0,1-.12,1.31c-.16.83-.17,1.77-.17,6.13,0,17.17.77,34.63,1.77,46.07.63,7.12,1.19,13.54,2,19,.41-6,.92-12.08,1.47-18.72a49.51,49.51,0,0,0,1.43,5,5.89,5.89,0,0,1,.36,1.38,11.34,11.34,0,0,1-.07,1.42c-.43,5.8-.88,11.37-1.09,15.51a29.18,29.18,0,0,0,0,4.35c.08.93.18,1.51.36,2.56.17.81.16,1.28-.15,1.54a9,9,0,0,1-1.81,1.8c-.37.15-.55-.3-.69-.88-2.43-9.43-3.74-22.26-4.7-33.23-1.14-13.08-1.75-31.84-2-44.76-.15-5.52-.33-9.15-.69-12.29A8.91,8.91,0,0,1,143.27,105.29Zm9,11.79c-.29-2.21-.52-4.3-.7-6.29-.05-.58.11-1,.47-1.1a89.06,89.06,0,0,1,9.11-2.91,44.8,44.8,0,0,1,9.32-1.64c.46,0,.64.41.71,1.11.2,1.75.34,3.39.42,4.91,0,.82,0,1.06-.28,1.08-2,.18-4,.47-6,.76.57,8.19,1.1,14.14,1.68,21.38a33,33,0,0,0,6.4-3.73c.22-.26.34.08.44.66.29,1.74.5,3.61.72,5.59.05.58-.06.94-.23,1.07a39.19,39.19,0,0,1-6.61,3.52c.75,8.64,1.65,17.27,2.61,25.54,3.22,2.42,6.76,6.82,9.38,10.94a2.11,2.11,0,0,1,.33,1.62c-.11,1.42-.39,3.68-.71,5.35-.14.6-.28.62-.66-.06a46.18,46.18,0,0,0-7.66-10c.6,10.53-1.37,15.53-6.27,16-3.88.34-7.4-3.94-8.15-12.46s2-13.59,5.7-13.91a8.74,8.74,0,0,1,4.83.87c-.79-7.46-1.58-14.8-2.32-22.74a18.9,18.9,0,0,1-9.69.61c-.29-.09-.4-.31-.5-.89-.26-2-.52-4.31-.68-6.18a18.87,18.87,0,0,0,10.19-.77c-.62-7.12-1.2-13.78-1.84-21.6A47.84,47.84,0,0,0,152.31,117.08Zm10.57,53.66c-2.66.23-3.94,2.82-3.57,7s2.08,6.52,4.41,6.32c1.91-.17,3.31-1.47,3.95-3.76.5-1.81.56-4.4.19-8.13A7.76,7.76,0,0,0,162.88,170.74Z"/><path class="cls-3" d="M189.46,101.25a2.52,2.52,0,0,1,.64,1.47A5.21,5.21,0,0,1,190,104a39.94,39.94,0,0,0-.17,6.14c0,17.17.78,34.63,1.78,46.07.62,7.12,1.18,13.54,2,19,.41-6,.92-12.08,1.46-18.72a52.24,52.24,0,0,0,1.43,5.05,5.77,5.77,0,0,1,.36,1.38,11.09,11.09,0,0,1-.06,1.42c-.44,5.8-.89,11.37-1.09,15.51a29.45,29.45,0,0,0,0,4.35c.08.93.18,1.51.36,2.55.17.81.16,1.28-.14,1.55a9.29,9.29,0,0,1-1.82,1.8c-.36.15-.55-.3-.69-.88C191,179.81,189.7,167,188.74,156c-1.14-13.08-1.75-31.84-2-44.76-.16-5.52-.33-9.15-.7-12.29A8.94,8.94,0,0,1,189.46,101.25Zm9,11.79c-.29-2.21-.52-4.3-.69-6.29-.05-.58.1-1,.47-1.1a88.28,88.28,0,0,1,9.11-2.91,44.58,44.58,0,0,1,9.31-1.64c.47,0,.65.41.71,1.11.2,1.75.34,3.38.43,4.91,0,.82-.05,1.06-.28,1.08-2,.18-4,.46-6,.76.58,8.18,1.1,14.14,1.69,21.38a33.1,33.1,0,0,0,6.4-3.74c.21-.25.33.09.43.67.3,1.74.51,3.61.73,5.58.05.59-.06,1-.24,1.08a39.93,39.93,0,0,1-6.61,3.52c.76,8.64,1.65,17.27,2.61,25.54,3.23,2.42,6.76,6.82,9.38,10.94a2.11,2.11,0,0,1,.33,1.62,52.38,52.38,0,0,1-.71,5.35c-.13.6-.27.62-.66-.06a46.51,46.51,0,0,0-7.65-10c.59,10.53-1.37,15.53-6.28,16-3.87.34-7.4-3.94-8.15-12.46s2-13.59,5.71-13.91a8.71,8.71,0,0,1,4.82.87c-.79-7.46-1.57-14.8-2.32-22.74a18.86,18.86,0,0,1-9.68.61c-.29-.09-.41-.31-.5-.89-.27-2-.52-4.31-.69-6.18a19,19,0,0,0,10.2-.77c-.63-7.12-1.21-13.78-1.85-21.6A47.84,47.84,0,0,0,198.49,113Zm10.58,53.66c-2.67.23-3.95,2.82-3.58,7s2.08,6.52,4.41,6.32c1.92-.17,3.31-1.47,4-3.76.5-1.81.55-4.4.18-8.13A7.74,7.74,0,0,0,209.07,166.7Z"/><path class="cls-3" d="M235.64,97.21a2.48,2.48,0,0,1,.65,1.47,6.36,6.36,0,0,1-.12,1.3c-.16.84-.18,1.78-.17,6.14,0,17.17.77,34.63,1.77,46.07.63,7.12,1.19,13.54,2,19,.41-6,.92-12.08,1.47-18.72a49.51,49.51,0,0,0,1.43,5.05,5.7,5.7,0,0,1,.35,1.38,11.09,11.09,0,0,1-.06,1.42c-.43,5.8-.89,11.37-1.09,15.51a29.45,29.45,0,0,0,0,4.35c.09.93.18,1.51.37,2.55.16.81.16,1.28-.15,1.55a9,9,0,0,1-1.82,1.8c-.36.15-.54-.3-.69-.88-2.42-9.43-3.73-22.26-4.69-33.23-1.15-13.08-1.75-31.85-2-44.76-.15-5.52-.33-9.15-.7-12.29A8.94,8.94,0,0,1,235.64,97.21Zm9,11.79c-.28-2.21-.51-4.3-.69-6.29,0-.58.11-.95.47-1.1a86.66,86.66,0,0,1,9.11-2.91,44.82,44.82,0,0,1,9.31-1.64c.47,0,.65.41.71,1.11.2,1.75.35,3.38.43,4.91,0,.82-.05,1.06-.28,1.08-2,.18-4,.46-6,.76.57,8.18,1.09,14.14,1.68,21.38a32.81,32.81,0,0,0,6.4-3.74c.21-.25.34.09.44.67.29,1.74.5,3.6.72,5.58,0,.59-.06.95-.24,1.08a40.26,40.26,0,0,1-6.6,3.52c.75,8.64,1.65,17.27,2.61,25.54,3.22,2.42,6.76,6.82,9.38,10.94a2.15,2.15,0,0,1,.33,1.62c-.11,1.42-.39,3.68-.71,5.35-.14.6-.28.62-.67-.06a46.19,46.19,0,0,0-7.65-10c.59,10.53-1.37,15.53-6.27,16-3.88.34-7.41-3.94-8.15-12.47s2-13.58,5.7-13.9a8.74,8.74,0,0,1,4.83.87c-.8-7.46-1.58-14.81-2.32-22.74a19.12,19.12,0,0,1-9.69.61c-.29-.09-.4-.31-.5-.89-.27-2-.52-4.31-.68-6.18a19,19,0,0,0,10.19-.77c-.62-7.12-1.21-13.78-1.84-21.6A47.93,47.93,0,0,0,244.67,109Zm10.58,53.66c-2.66.23-3.94,2.81-3.57,7s2.07,6.52,4.41,6.32c1.91-.17,3.31-1.47,4-3.76.5-1.81.56-4.4.18-8.13A7.65,7.65,0,0,0,255.25,162.66Z"/><path class="cls-3" d="M281.83,93.17a2.53,2.53,0,0,1,.64,1.47,6.42,6.42,0,0,1-.12,1.3,39.85,39.85,0,0,0-.17,6.13c0,17.18.77,34.64,1.78,46.08.62,7.12,1.18,13.54,2,19,.42-6,.92-12.08,1.47-18.72a52.24,52.24,0,0,0,1.43,5,5.65,5.65,0,0,1,.36,1.38,9.75,9.75,0,0,1-.07,1.42c-.43,5.8-.88,11.37-1.09,15.51a30.62,30.62,0,0,0,0,4.35c.08.93.18,1.51.36,2.55.17.81.16,1.28-.14,1.55a9.29,9.29,0,0,1-1.82,1.8c-.37.15-.55-.3-.69-.88-2.43-9.43-3.74-22.26-4.7-33.23-1.14-13.08-1.75-31.85-2-44.76-.16-5.52-.33-9.15-.7-12.29A8.94,8.94,0,0,1,281.83,93.17Zm9,11.79c-.29-2.21-.52-4.3-.69-6.29-.05-.58.1-1,.46-1.1a87.41,87.41,0,0,1,9.11-2.91A44.8,44.8,0,0,1,309.06,93c.46,0,.65.41.71,1.11.2,1.75.34,3.38.43,4.91,0,.82-.05,1.06-.29,1.08-2,.17-4,.46-6,.76.58,8.18,1.1,14.14,1.68,21.38a32.87,32.87,0,0,0,6.41-3.74c.21-.25.33.09.43.67.29,1.74.5,3.6.72,5.58.05.59,0,1-.23,1.08a39.93,39.93,0,0,1-6.61,3.52c.76,8.64,1.65,17.27,2.61,25.54,3.22,2.42,6.76,6.82,9.38,10.94a2.1,2.1,0,0,1,.33,1.62,52.38,52.38,0,0,1-.71,5.35c-.13.6-.27.61-.66-.06a46.18,46.18,0,0,0-7.66-10c.6,10.53-1.37,15.53-6.27,16-3.87.34-7.4-3.94-8.15-12.47s2-13.58,5.7-13.91a8.84,8.84,0,0,1,4.83.88c-.79-7.46-1.58-14.81-2.32-22.74a19.08,19.08,0,0,1-9.68.61c-.29-.09-.41-.31-.51-.89-.26-2-.51-4.31-.68-6.18a19,19,0,0,0,10.19-.77c-.62-7.12-1.2-13.78-1.84-21.6A47.27,47.27,0,0,0,290.86,105Zm10.57,53.66c-2.66.23-3.94,2.81-3.57,7s2.08,6.52,4.41,6.32c1.92-.17,3.31-1.47,4-3.76.51-1.81.56-4.4.19-8.13A7.7,7.7,0,0,0,301.43,158.62Z"/><path class="cls-3" d="M328,89.13a2.48,2.48,0,0,1,.65,1.47,6.42,6.42,0,0,1-.12,1.3c-.17.84-.18,1.78-.17,6.13,0,17.18.77,34.64,1.77,46.08.62,7.12,1.18,13.54,2,19,.41-6,.92-12.08,1.47-18.72a49.51,49.51,0,0,0,1.43,5.05,5.59,5.59,0,0,1,.35,1.38,11.09,11.09,0,0,1-.06,1.42c-.44,5.8-.89,11.37-1.09,15.5a29.59,29.59,0,0,0,0,4.36,23.77,23.77,0,0,0,.37,2.55c.16.81.16,1.28-.15,1.54a9.1,9.1,0,0,1-1.82,1.81c-.36.15-.54-.3-.69-.88-2.42-9.43-3.73-22.26-4.69-33.23-1.15-13.08-1.75-31.85-2-44.77-.15-5.51-.33-9.14-.7-12.29A8.86,8.86,0,0,1,328,89.13Zm9,11.79q-.44-3.32-.69-6.29c-.05-.58.11-.95.47-1.1a86.66,86.66,0,0,1,9.11-2.91A44.05,44.05,0,0,1,355.24,89c.47,0,.65.41.71,1.11.2,1.75.34,3.38.43,4.9,0,.83-.05,1.07-.28,1.09-2,.17-4,.46-6,.76.57,8.18,1.09,14.14,1.68,21.38a33.62,33.62,0,0,0,6.4-3.74c.21-.25.34.09.43.67.3,1.74.51,3.6.73,5.58.05.59-.06,1-.24,1.08a39.93,39.93,0,0,1-6.61,3.52c.76,8.64,1.66,17.27,2.61,25.54,3.23,2.42,6.77,6.81,9.38,10.94a2,2,0,0,1,.33,1.61c-.11,1.43-.38,3.69-.7,5.36-.14.6-.28.61-.67-.06a45.94,45.94,0,0,0-7.65-10c.59,10.53-1.37,15.53-6.27,16-3.88.33-7.41-3.94-8.15-12.47s2-13.58,5.7-13.91a8.84,8.84,0,0,1,4.83.88c-.8-7.46-1.58-14.81-2.32-22.74a19.12,19.12,0,0,1-9.69.61c-.29-.09-.4-.31-.5-.89-.27-2-.52-4.31-.68-6.18a19,19,0,0,0,10.19-.77c-.63-7.13-1.21-13.78-1.85-21.61A47.86,47.86,0,0,0,337,100.92Zm10.58,53.66c-2.66.23-3.94,2.81-3.58,7s2.08,6.52,4.42,6.32c1.91-.17,3.3-1.47,4-3.76.5-1.81.55-4.4.18-8.14A7.72,7.72,0,0,0,347.62,154.58Z"/><path class="cls-3" d="M374.19,85.08a2.53,2.53,0,0,1,.65,1.48,6.42,6.42,0,0,1-.12,1.3,39.85,39.85,0,0,0-.17,6.13c0,17.18.77,34.64,1.77,46.08.63,7.12,1.19,13.54,2,19,.41-6,.92-12.08,1.47-18.71a50.27,50.27,0,0,0,1.43,5.05,6.14,6.14,0,0,1,.36,1.38,11.42,11.42,0,0,1-.07,1.42c-.43,5.8-.89,11.37-1.09,15.5a28,28,0,0,0,0,4.36c.08.93.18,1.51.36,2.55.16.81.16,1.28-.15,1.54a8.84,8.84,0,0,1-1.82,1.81c-.36.15-.54-.31-.68-.88-2.43-9.43-3.74-22.26-4.7-33.23-1.14-13.08-1.75-31.85-2-44.77-.15-5.51-.33-9.14-.7-12.29A8.94,8.94,0,0,1,374.19,85.08Zm9,11.8q-.44-3.31-.7-6.29c0-.59.11-1,.47-1.1a89.14,89.14,0,0,1,9.11-2.92,44.85,44.85,0,0,1,9.32-1.63c.46,0,.64.41.7,1.11.2,1.75.35,3.38.43,4.9,0,.82,0,1.07-.28,1.09-2,.17-4,.46-6,.76.57,8.18,1.09,14.14,1.68,21.38a33.84,33.84,0,0,0,6.4-3.74c.22-.25.34.09.44.67.29,1.74.5,3.6.72,5.58.05.59-.06,1-.23,1.08a40.74,40.74,0,0,1-6.61,3.52c.75,8.64,1.65,17.27,2.61,25.53,3.22,2.43,6.76,6.82,9.38,11a2.09,2.09,0,0,1,.33,1.61c-.11,1.43-.39,3.68-.71,5.36-.14.6-.28.61-.66-.06a45.94,45.94,0,0,0-7.66-10c.59,10.53-1.37,15.53-6.27,15.95-3.88.34-7.4-3.93-8.15-12.46s2-13.58,5.7-13.91a8.92,8.92,0,0,1,4.83.87c-.79-7.45-1.58-14.8-2.32-22.73a19.12,19.12,0,0,1-9.69.61c-.29-.09-.4-.32-.5-.9-.27-2-.52-4.3-.68-6.17a19,19,0,0,0,10.19-.77c-.62-7.13-1.2-13.78-1.84-21.61A47.86,47.86,0,0,0,383.23,96.88Zm10.57,53.66c-2.66.23-3.94,2.81-3.57,7s2.07,6.52,4.41,6.31c1.91-.16,3.31-1.46,3.95-3.75.5-1.81.56-4.4.18-8.14A7.7,7.7,0,0,0,393.8,150.54Z"/><path class="cls-3" d="M420.38,81a2.52,2.52,0,0,1,.64,1.48,5.25,5.25,0,0,1-.12,1.3,39.85,39.85,0,0,0-.17,6.13c0,17.18.78,34.64,1.78,46.08.62,7.12,1.18,13.54,2,19,.42-6,.92-12.08,1.47-18.71.46,2,1,3.79,1.43,5.05a5.65,5.65,0,0,1,.36,1.38,9.75,9.75,0,0,1-.07,1.42c-.43,5.8-.88,11.37-1.09,15.5a30.6,30.6,0,0,0,0,4.35c.08.94.18,1.52.36,2.56.17.81.16,1.28-.14,1.54a9.1,9.1,0,0,1-1.82,1.81c-.36.15-.55-.31-.69-.88-2.43-9.44-3.74-22.26-4.7-33.23-1.14-13.08-1.75-31.85-2-44.77-.16-5.51-.33-9.14-.7-12.29A8.94,8.94,0,0,1,420.38,81Zm9,11.8q-.44-3.32-.69-6.29c-.05-.59.1-1,.47-1.1a89,89,0,0,1,9.1-2.92,44.85,44.85,0,0,1,9.32-1.63c.47-.05.65.41.71,1.11.2,1.75.34,3.38.43,4.9,0,.82-.05,1.07-.28,1.09-2,.17-4,.46-6,.76.58,8.18,1.1,14.13,1.68,21.38a33.91,33.91,0,0,0,6.41-3.74c.21-.25.33.09.43.67.29,1.74.5,3.6.73,5.58.05.59-.06.95-.24,1.08a39.93,39.93,0,0,1-6.61,3.52c.76,8.64,1.65,17.26,2.61,25.53,3.22,2.43,6.76,6.82,9.38,10.95a2.09,2.09,0,0,1,.33,1.61,52.56,52.56,0,0,1-.71,5.36c-.13.6-.27.61-.66-.06a46.61,46.61,0,0,0-7.65-10c.59,10.54-1.37,15.53-6.28,16-3.87.34-7.4-3.94-8.15-12.46s2-13.58,5.7-13.91a8.82,8.82,0,0,1,4.83.87c-.79-7.45-1.57-14.8-2.32-22.73a19.08,19.08,0,0,1-9.68.61c-.29-.09-.41-.32-.5-.9-.27-2-.52-4.3-.69-6.17a18.87,18.87,0,0,0,10.19-.78c-.62-7.12-1.2-13.77-1.84-21.6A47.86,47.86,0,0,0,429.41,92.84ZM440,146.5c-2.67.23-3.95,2.81-3.58,7s2.08,6.53,4.41,6.32c1.92-.16,3.31-1.46,4-3.75.5-1.81.55-4.4.18-8.14A7.73,7.73,0,0,0,440,146.5Z"/><path class="cls-3" d="M466.56,77a2.53,2.53,0,0,1,.65,1.47,6.52,6.52,0,0,1-.12,1.31c-.16.84-.18,1.78-.17,6.13,0,17.18.77,34.64,1.77,46.08.62,7.12,1.19,13.54,2,19,.41-6,.92-12.08,1.47-18.71a50.27,50.27,0,0,0,1.43,5,5.59,5.59,0,0,1,.35,1.38,11.15,11.15,0,0,1-.06,1.42c-.43,5.8-.89,11.37-1.09,15.5a29.45,29.45,0,0,0,0,4.35c.09.94.18,1.52.37,2.56.16.81.16,1.28-.15,1.54a9.1,9.1,0,0,1-1.82,1.81c-.36.15-.54-.31-.69-.88-2.42-9.44-3.73-22.26-4.69-33.24-1.15-13.07-1.75-31.84-2-44.76-.15-5.51-.33-9.15-.7-12.29A8.94,8.94,0,0,1,466.56,77Zm9,11.8q-.42-3.31-.69-6.29c0-.59.11-1,.47-1.1a89.14,89.14,0,0,1,9.11-2.92,45.49,45.49,0,0,1,9.31-1.64c.47,0,.65.42.71,1.12.2,1.75.34,3.38.43,4.9,0,.82-.05,1.06-.28,1.09-2,.17-4,.46-6,.76.57,8.18,1.09,14.13,1.68,21.38a34.16,34.16,0,0,0,6.4-3.74c.21-.25.34.09.44.67.29,1.74.5,3.6.72,5.58.05.58-.06,1-.24,1.08a39.93,39.93,0,0,1-6.61,3.52c.76,8.64,1.66,17.26,2.62,25.53,3.22,2.43,6.76,6.82,9.38,10.95a2.13,2.13,0,0,1,.33,1.61c-.12,1.42-.39,3.68-.71,5.36-.14.6-.28.61-.67-.06a46.29,46.29,0,0,0-7.65-10c.59,10.54-1.37,15.53-6.27,16-3.88.34-7.41-3.94-8.15-12.46s2-13.58,5.7-13.91a8.83,8.83,0,0,1,4.83.87c-.8-7.46-1.58-14.8-2.32-22.73a19.12,19.12,0,0,1-9.69.61c-.29-.09-.4-.32-.5-.9-.27-2-.52-4.3-.68-6.17a18.87,18.87,0,0,0,10.19-.78c-.62-7.12-1.21-13.77-1.84-21.6A47.75,47.75,0,0,0,475.59,88.8Zm10.58,53.66c-2.66.23-3.94,2.81-3.57,7s2.07,6.53,4.41,6.32c1.91-.16,3.3-1.46,3.95-3.75.5-1.81.56-4.41.18-8.14A7.7,7.7,0,0,0,486.17,142.46Z"/><path class="cls-3" d="M512.75,73a2.58,2.58,0,0,1,.64,1.47,6.52,6.52,0,0,1-.12,1.31,39.85,39.85,0,0,0-.17,6.13c0,17.17.77,34.63,1.77,46.08.63,7.12,1.19,13.54,2,19,.42-6,.92-12.08,1.47-18.71a50.27,50.27,0,0,0,1.43,5.05,5.65,5.65,0,0,1,.36,1.38,11.5,11.5,0,0,1-.07,1.42c-.43,5.8-.89,11.37-1.09,15.5a29.18,29.18,0,0,0,0,4.35c.08.94.18,1.52.36,2.56.17.81.16,1.28-.15,1.54a8.82,8.82,0,0,1-1.81,1.81c-.37.15-.55-.31-.69-.88-2.43-9.44-3.74-22.26-4.7-33.24-1.14-13.07-1.75-31.84-2-44.76-.15-5.51-.33-9.15-.69-12.29A9,9,0,0,1,512.75,73Zm9,11.8q-.43-3.32-.7-6.29c-.05-.59.11-1,.47-1.1a89.14,89.14,0,0,1,9.11-2.92A45.47,45.47,0,0,1,540,72.81c.46,0,.64.42.71,1.12.2,1.75.34,3.38.43,4.9,0,.82,0,1.06-.29,1.08-2,.18-4,.47-6,.76.57,8.19,1.1,14.14,1.68,21.39a33.54,33.54,0,0,0,6.4-3.74c.22-.25.34.09.44.67.29,1.73.5,3.6.72,5.58,0,.58-.06,1-.23,1.08a39.93,39.93,0,0,1-6.61,3.52c.75,8.64,1.65,17.26,2.61,25.53,3.22,2.43,6.76,6.82,9.38,10.94a2.12,2.12,0,0,1,.33,1.62,52.92,52.92,0,0,1-.71,5.36c-.13.6-.28.61-.66-.06a46.28,46.28,0,0,0-7.66-10c.6,10.54-1.37,15.53-6.27,16-3.88.34-7.4-3.94-8.15-12.46s2-13.58,5.7-13.91a8.83,8.83,0,0,1,4.83.87c-.79-7.46-1.58-14.8-2.32-22.73a19.12,19.12,0,0,1-9.69.61c-.29-.09-.4-.32-.5-.9-.26-2-.52-4.31-.68-6.17a18.87,18.87,0,0,0,10.19-.78c-.62-7.12-1.2-13.77-1.84-21.6A47.86,47.86,0,0,0,521.78,84.76Zm10.57,53.66c-2.66.23-3.94,2.81-3.57,7s2.08,6.53,4.41,6.32c1.92-.17,3.31-1.46,3.95-3.75.5-1.81.56-4.41.19-8.14A7.74,7.74,0,0,0,532.35,138.42Z"/><path class="cls-3" d="M558.93,68.92a2.6,2.6,0,0,1,.65,1.47,6.52,6.52,0,0,1-.12,1.31c-.17.84-.18,1.78-.17,6.13,0,17.17.77,34.63,1.77,46.07.62,7.13,1.18,13.55,2,19,.41-6,.92-12.08,1.46-18.71.46,2,1,3.79,1.44,5.05a5.59,5.59,0,0,1,.35,1.38,11.15,11.15,0,0,1-.06,1.42c-.44,5.8-.89,11.37-1.09,15.5a29.45,29.45,0,0,0,0,4.35,23.58,23.58,0,0,0,.37,2.56c.16.81.15,1.28-.15,1.54a9.1,9.1,0,0,1-1.82,1.81c-.36.15-.54-.31-.69-.88-2.42-9.44-3.73-22.26-4.7-33.24-1.14-13.07-1.75-31.84-2-44.76-.15-5.52-.33-9.15-.7-12.29A8.94,8.94,0,0,1,558.93,68.92Zm9,11.8q-.44-3.31-.69-6.3c0-.58.1-1,.47-1.09a88.36,88.36,0,0,1,9.11-2.92,45.37,45.37,0,0,1,9.31-1.64c.47,0,.65.42.71,1.12.2,1.74.34,3.38.43,4.9,0,.82,0,1.06-.28,1.08-2,.18-4,.47-6,.76.58,8.19,1.1,14.14,1.69,21.38a33.56,33.56,0,0,0,6.4-3.73c.21-.26.34.09.43.67.3,1.73.51,3.6.73,5.58,0,.58-.06,1-.24,1.08a39.93,39.93,0,0,1-6.61,3.52c.76,8.64,1.65,17.26,2.61,25.53,3.23,2.42,6.76,6.82,9.38,10.94a2.12,2.12,0,0,1,.33,1.62c-.11,1.42-.38,3.68-.7,5.36-.14.6-.28.61-.67-.06a46.61,46.61,0,0,0-7.65-10c.59,10.54-1.37,15.53-6.28,16-3.87.34-7.4-3.94-8.14-12.46s2-13.58,5.7-13.91a8.8,8.8,0,0,1,4.82.87c-.79-7.46-1.57-14.8-2.31-22.73a19.12,19.12,0,0,1-9.69.61c-.29-.09-.41-.32-.5-.9-.27-2-.52-4.31-.69-6.17a18.91,18.91,0,0,0,10.2-.78c-.63-7.12-1.21-13.77-1.85-21.6A47.28,47.28,0,0,0,568,80.72Zm10.58,53.66c-2.66.23-3.94,2.81-3.58,7s2.08,6.53,4.42,6.32c1.91-.17,3.3-1.46,4-3.76.5-1.8.55-4.4.18-8.13A7.73,7.73,0,0,0,578.54,134.38Z"/><path class="cls-3" d="M611.38,126.8l-3,.26-6.71-66.47,5-.43Zm3.37,25.7-5.08.44-1.1-12.49,5.09-.44Z"/></g><rect class="cls-4" width="1000" height="265"/></g></g></svg>