<svg xmlns="http://www.w3.org/2000/svg" viewBox="0 0 1000 265"><defs><style>.cls-1{isolation:isolate;}.cls-2{mix-blend-mode:soft-light;}.cls-3{fill:red;}.cls-4{fill:none;opacity:0.19;}</style></defs><title>アートボード 368</title><g class="cls-1"><g id="CHARACTER"><g class="cls-2"><path class="cls-3" d="M3.92,63.61a1.93,1.93,0,0,1,.69,1.47c.11,1.17,0,2.24.13,4.1.27,2.57.57,4.89.93,7.45C6.83,85,8.07,92.77,9.56,100.06c2.46-3.63,5-7.15,7.39-11.24a16.24,16.24,0,0,0,2.24-5.61,60.19,60.19,0,0,1,2.95,6.33c.5,1.37.55,3-.27,3.32-1.13.57-2.53,2.34-3.79,4.1-3.06,4.26-6.65,9.4-9.43,14.23-4.11,7.3-5.78,13.56-5.06,21.74.91,10.38,5.05,12.61,12.09,11.88a38.39,38.39,0,0,0,11.79-3.5c.41-.16.57.06.75,1,.3,1.85.59,4.06.81,6,.14,1,0,1.54-.51,1.7a43.2,43.2,0,0,1-12.28,2.72c-8.08.71-14.31-3.22-15.7-19.21-1-11.21,1.43-20.13,6.58-29.64C5.33,95.36,3.3,83.43,2,74.24A100.59,100.59,0,0,0,0,62.89,9.53,9.53,0,0,1,3.92,63.61Zm15.64-.9c.15-.36.3-.26.52.07a66.48,66.48,0,0,1,6.51,13.67,1.65,1.65,0,0,1,0,1.29L25.5,80.66c-.19.49-.43.39-.62-.18A61.36,61.36,0,0,0,18.15,66Zm3.26-7.93c.15-.37.28-.49.5-.16a76.1,76.1,0,0,1,6.52,13.19,1.83,1.83,0,0,1,0,1.42l-1,2.91c-.15.48-.34.5-.59-.19a67.3,67.3,0,0,0-6.64-14.12Z"/><path class="cls-3" d="M42.4,71.06a2.06,2.06,0,0,1,.54,1.25,18.87,18.87,0,0,1,0,2.12A101.05,101.05,0,0,0,43.5,85.2c.65,7.47,1.32,14.59,3,26.44,1.91,13.72,4.79,23.59,7,23.39,1.86-.16,3-7.79,3.39-18.77A23.4,23.4,0,0,0,59,122a5.21,5.21,0,0,1,.63,2.88c-.48,9.57-2.23,18.66-5.35,18.94-3.93.34-8-12.94-10.68-31.18-1.68-11.62-3-24.79-3.69-32.5-.39-4.44-.69-7.23-1.36-11.17A8.1,8.1,0,0,1,42.4,71.06Zm23.07,7c.24-.38.47-.52.7-.07,5.67,10,10.1,24.06,12.64,39.6a2.24,2.24,0,0,1-.2,1.55,11.1,11.1,0,0,1-1.91,2.87c-.31.26-.57-.07-.69-.88-2.87-17.75-6.9-29.87-12.32-39.74A26.69,26.69,0,0,1,65.47,78.11Z"/><path class="cls-3" d="M91.6,78.29C97.35,72,102.82,68.37,106.65,68c7.75-.68,13.52,10.35,15,27.62,1.26,14.48-.59,23.94-5,31.14a29.1,29.1,0,0,1-11.65,11c-.63.29-.92-.27-1.29-1.3a20.46,20.46,0,0,0-2.54-5.3,24.25,24.25,0,0,0,12.42-10.27c3.77-5.85,5.54-13.65,4.51-25.33-1.13-13-5.5-20.93-11.24-20.42-4.3.37-9.64,5.43-16.46,14a19.72,19.72,0,0,0-2.82,4.37c-.4.85-.61,1.11-.8,1.13s-.6-.42-1-1.33A82.89,82.89,0,0,1,83.1,85.5C84.65,84.9,86.83,83.53,91.6,78.29Z"/><path class="cls-3" d="M144.67,120.23c1.05,11.91,3.92,15.77,8.64,15.36,5-.44,8.84-6.54,7.77-18.8-.54-6.18-1.86-12.07-6.13-20.52a5,5,0,0,0,2.86-.72c.31-.14.55-.16.82.28a56.26,56.26,0,0,1,5.73,20.8c1.38,15.76-3.11,25.79-9.88,26.39-7.29.63-11.39-7-12.74-22.42-.36-4.2-.56-9.6-.8-14.51a24.19,24.19,0,0,1-7.74-3c-.24-.1-.41-.44-.55-1.48-.28-2.1-.48-4.43-.62-6.54a18,18,0,0,0,8.65,3.71c-.21-7.27-.43-14.07-.68-20.17a19.5,19.5,0,0,1-8.27-3c-.34-.21-.4-.32-.55-1.48-.2-1.75-.46-4.19-.66-6.53a20.29,20.29,0,0,0,9.36,3.77c-.18-6.34-.28-9.15-.54-14.19a84.87,84.87,0,0,0-.82-9.93,11.42,11.42,0,0,1,3.89,2.49,2.87,2.87,0,0,1,.86,1.81,4.76,4.76,0,0,1-.18,1.66,21.11,21.11,0,0,0-.36,5.56c.07,4.58.13,8,.28,12.91a17.75,17.75,0,0,0,6.52-.8c.19,0,.3.21.36.91.16,1.75.33,3.73.43,5.37.08.93-.09,1.18-.37,1.21a26.89,26.89,0,0,1-6.81.71c.13,5.76.33,12.91.54,20.07a23.33,23.33,0,0,0,7.54-.89c.41-.16.57.06.63.76.11,1.29.28,3.74.36,5.15,0,1-.08,1.3-.31,1.32a30.68,30.68,0,0,1-8,.82C144.15,111,144.36,116.61,144.67,120.23Z"/><path class="cls-3" d="M185.4,56.55a50.55,50.55,0,0,0,10.23-1.95c.41-.15.63.18.75,1,.22,1.51.41,3.14.6,5.24.11,1.29,0,1.65-.5,1.81-3.8,1.75-7.63,7.49-10.93,14.37-.35.85-.81,1-1.29.35a6,6,0,0,0-2.12-2.17,86.51,86.51,0,0,1,7-12.38,24.43,24.43,0,0,1-5,.91,20.9,20.9,0,0,1-9.66-1.27c-.29-.09-.47-.43-.57-1.6-.13-1.52-.3-4-.42-6A24,24,0,0,0,185.4,56.55Zm-7.1,44.62a1.63,1.63,0,0,1,.27,1.51,39.5,39.5,0,0,0-.46,9.21c.83,9.58,5.54,13.87,13.2,13.2a25.72,25.72,0,0,0,13.1-4.56c.4-.27.55-.16.73.76.25,1.27.69,4.18,1,6,.13.93,0,1.3-.48,1.57-3.47,2.19-7.48,3.72-13.88,4.28-9.06.79-15.12-5.62-16.44-20.68A51.78,51.78,0,0,1,176,98.55C176.72,99.31,177.56,100.3,178.3,101.17Z"/><path class="cls-3" d="M215.6,55.91a2,2,0,0,1,.54,1.25,18.87,18.87,0,0,1,0,2.12,101.15,101.15,0,0,0,.57,10.77c.65,7.47,1.32,14.59,3,26.44,1.91,13.72,4.79,23.58,7,23.38,1.86-.16,3-7.79,3.39-18.76a23.28,23.28,0,0,0,2.05,5.7,5.27,5.27,0,0,1,.63,2.89c-.48,9.57-2.23,18.66-5.36,18.94-3.92.34-8-12.95-10.67-31.19-1.68-11.61-3-24.79-3.7-32.49-.38-4.44-.67-7.24-1.35-11.18A8.25,8.25,0,0,1,215.6,55.91Zm23.07,7c.24-.37.47-.51.7-.06,5.67,10,10.1,24,12.63,39.6a2.16,2.16,0,0,1-.19,1.54,10.77,10.77,0,0,1-1.91,2.87c-.31.27-.57-.06-.69-.88-2.87-17.74-6.9-29.86-12.32-39.74A28.29,28.29,0,0,1,238.67,63Z"/><path class="cls-3" d="M264.8,63.14c5.75-6.27,11.22-9.93,15.05-10.26,7.75-.68,13.52,10.34,15,27.62,1.26,14.48-.59,23.93-5,31.14a29,29,0,0,1-11.64,11c-.63.29-.92-.27-1.29-1.3a20.53,20.53,0,0,0-2.54-5.31,24.28,24.28,0,0,0,12.42-10.26c3.77-5.86,5.54-13.66,4.51-25.33-1.13-13-5.5-20.93-11.24-20.43-4.3.38-9.64,5.43-16.47,14a20,20,0,0,0-2.81,4.36c-.4.86-.61,1.12-.8,1.13s-.6-.42-1-1.32a80.15,80.15,0,0,1-2.71-7.88C257.85,69.74,260,68.38,264.8,63.14Z"/><path class="cls-3" d="M317.87,105.07c1.05,11.91,3.92,15.78,8.64,15.37,5-.45,8.84-6.54,7.77-18.8-.54-6.19-1.86-12.07-6.13-20.52A5,5,0,0,0,331,80.4c.31-.15.55-.17.82.28a56.16,56.16,0,0,1,5.73,20.79c1.38,15.76-3.11,25.8-9.88,26.39-7.29.64-11.39-7-12.74-22.41-.37-4.2-.56-9.6-.8-14.52a24,24,0,0,1-7.74-3c-.24-.09-.41-.43-.55-1.48-.28-2.09-.48-4.43-.62-6.53a18.08,18.08,0,0,0,8.65,3.71c-.21-7.27-.43-14.08-.68-20.17a19.64,19.64,0,0,1-8.27-3c-.34-.21-.4-.32-.55-1.48-.2-1.75-.46-4.2-.66-6.53a20.4,20.4,0,0,0,9.36,3.77c-.18-6.34-.28-9.15-.54-14.19a84.69,84.69,0,0,0-.82-9.93,11.56,11.56,0,0,1,3.89,2.48,2.89,2.89,0,0,1,.86,1.81,4.82,4.82,0,0,1-.18,1.67,21,21,0,0,0-.36,5.55c.07,4.59.13,8,.28,12.92a17.75,17.75,0,0,0,6.52-.8c.19,0,.3.2.36.9.16,1.75.33,3.74.43,5.38.08.93-.09,1.18-.37,1.21a26.89,26.89,0,0,1-6.81.71c.13,5.75.33,12.91.54,20.07a23.61,23.61,0,0,0,7.54-.9c.41-.15.57.07.63.77.11,1.28.28,3.74.36,5.14,0,1.06-.08,1.31-.31,1.33a30.26,30.26,0,0,1-8,.81C317.35,95.83,317.56,101.46,317.87,105.07Z"/><path class="cls-3" d="M366.16,46.5c1.39-.24,1.79-.51,2.22-1.48.27-.62.67-.42,1.25.36a30.71,30.71,0,0,1,2.21,3.68,4.62,4.62,0,0,1,.4,3.5,16.46,16.46,0,0,0-.86,4.19Q369.1,79.9,365.56,94c-3.16,12.39-7.23,23.34-11.93,31.51-.32.62-.67.42-1.06-.26a8,8,0,0,0-2.91-3.15c6-9.94,9.42-19.3,12.75-32.29,2.62-10.46,4.33-21,5.66-36.49L354.7,55.39c-2.52,11-4.36,18.5-7.06,25.79-.41,1.21-.83,1.25-1.43.36a6,6,0,0,0-2.59-2.24,155.51,155.51,0,0,0,9.21-35,73,73,0,0,0,1.06-14.8,12.91,12.91,0,0,1,3.86,3.78,3.31,3.31,0,0,1,.26,3A16.14,16.14,0,0,0,357,40.37c-.46,2.86-.77,5.12-1.22,7.52Z"/><path class="cls-3" d="M405,39.93c1.59-.14,2.09-.3,2.58-1.17.24-.49.59-.28,1,.27a34.76,34.76,0,0,1,2.33,4.62,3.6,3.6,0,0,1,0,2.7,21.68,21.68,0,0,0-1,4.44c-1.29,8.94-2.92,17.78-4.72,25.71a225.76,225.76,0,0,1,16,28.13,2.65,2.65,0,0,1,.26,2.44c-.38,1.57-.87,3-1.32,4.35-.26.73-.45.75-.86-.16a214.78,214.78,0,0,0-15.48-28.52C399.65,97,395,108.33,390,116.77c-.45.74-.72.88-1.19-.13a14.15,14.15,0,0,0-2.8-4c6.29-9.37,10.86-20.59,14.42-33.14a223.63,223.63,0,0,0,6.14-32.06l-14.06,1.23A38.59,38.59,0,0,0,385.8,50c-.42,0-.5-.31-.68-1.23-.28-1.63-.72-5.12-.93-7.45a34.18,34.18,0,0,0,7.28-.17Zm4.51-14.63c.16-.37.3-.38.51-.05a67,67,0,0,1,6.52,13.67,1.75,1.75,0,0,1,0,1.29l-1.11,2.92c-.2.49-.44.39-.63-.18a61.36,61.36,0,0,0-6.73-14.47Zm3.25-8c.15-.36.28-.49.5-.16a75.74,75.74,0,0,1,6.52,13.19,1.83,1.83,0,0,1,0,1.42l-1,2.91c-.15.48-.34.5-.58-.19a67.59,67.59,0,0,0-6.65-14.12Z"/><path class="cls-3" d="M433.86,29.76a3.84,3.84,0,0,1,.56,3.13,40.85,40.85,0,0,0-.24,5.9c.07,16.93.58,32.41,1.53,43.27.58,6.66,1.06,12.73,2.09,20.17.43-6.39,1-12.32,1.61-19.32a31.17,31.17,0,0,0,1.49,4.7,4.88,4.88,0,0,1,.27,2.56c-.81,9-1.27,15.64-1.19,18.69a52.34,52.34,0,0,0,.41,5.26,2,2,0,0,1-.1,1.54,8.33,8.33,0,0,1-2,1.7c-.31.26-.47,0-.69-.88-2.4-9.67-3.84-23.43-4.7-33.24-1.21-13.89-1.53-26.68-1.88-44.65-.11-3.87-.35-8.32-.78-11.58A9.85,9.85,0,0,1,433.86,29.76Zm20.27,25.75a34.48,34.48,0,0,1-10.4,1c-.28,0-.48-.08-.6-1-.24-1.62-.55-4.07-.73-6.17a32,32,0,0,0,11-1c-.38-4.32-.72-8.76-1.13-13.43a104.34,104.34,0,0,0-1.38-10.35,8,8,0,0,1,3.74,1.32,2,2,0,0,1,.64,1.35,7.86,7.86,0,0,1,0,1.66,37.24,37.24,0,0,0,.11,5.63c.27,4.1.62,8.18,1,13a38,38,0,0,0,7.15-3.33c.35-.27.42,0,.53.77.21,1.28.48,3.25.6,4.66.07.81,0,1.29-.2,1.43A27.57,27.57,0,0,1,457,54.55c1.24,13.66,2.35,24.74,3.5,35.22a48,48,0,0,1,9.27,11.31c.28.44.3.68.23,1.51a37.39,37.39,0,0,1-.81,5.24c-.13.72-.33.62-.55.17a51.07,51.07,0,0,0-7.48-10.17c.71,10.29-1.14,16-6.42,16.44-4.39.39-7.7-4.15-8.45-12.67s2-14.17,6-14.52a11,11,0,0,1,5,.86C456.27,78.26,455.19,67.53,454.13,55.51Zm3.79,39.55a8.86,8.86,0,0,0-5.26-1.54c-2.61.23-4.11,3.06-3.69,7.85.37,4.2,2.27,6.51,5.07,6.26,3.31-.29,4.62-4.17,4.08-10.36Zm.18-76.48c.17-.25.26-.26.49.19A102.76,102.76,0,0,1,464,34a1.56,1.56,0,0,1,0,1.18l-1.3,2.35c-.25.37-.45.27-.6-.42a97.79,97.79,0,0,0-5.58-15.87ZM462,12.83c.16-.25.29-.38.52.07a113.84,113.84,0,0,1,5.42,14.58,1.6,1.6,0,0,1-.11,1.42l-1.16,2.34c-.21.37-.39.39-.61-.42a105.5,105.5,0,0,0-5.49-15.51Z"/><path class="cls-3" d="M482.9,61.58c4.71-4.29,8.43-7.44,12-7.76,5.79-.5,10.49,8.14,11.7,21.92,1,11.2-.35,18.61-4.05,24.7a22.87,22.87,0,0,1-9,8.67c-.49.28-.71-.06-1-1.09a19.6,19.6,0,0,0-2.2-4.74,21.88,21.88,0,0,0,10-8.64c2.69-4.24,3.83-10,3-19.09-.91-10.39-4.11-15.29-8.27-14.92-3.45.3-8.15,4.71-12.95,10.54a13.8,13.8,0,0,0-1.94,3.11c-.29.5-.57,1.11-.8,1.13s-.6-.42-.95-1.21a78.82,78.82,0,0,1-2.36-7.56C477.91,65.9,479.46,64.71,482.9,61.58Z"/><path class="cls-3" d="M525.45,26.21A101.68,101.68,0,0,0,524.89,15a15.66,15.66,0,0,1,3.92,2.83,3.27,3.27,0,0,1,.45,3,14.44,14.44,0,0,0-.46,3.92c-.2,5.79-.33,11.32-.53,17.11a18.13,18.13,0,0,1,4.46-1.22c4.07-.35,6.52,4.61,7.72,18.27,1.35,15.41,1.53,29.39.73,37.93-.61,6.52-2.23,9.49-4.52,9.69a6.37,6.37,0,0,1-4.94-1.69,2.53,2.53,0,0,1-.74-1.93,50,50,0,0,0-1.17-7c2.25,2,4.07,2.94,5.7,2.8,1.36-.12,2.14-1.36,2.6-6.35.58-6.75.49-18.63-.77-33-.8-9.1-1.78-12.31-4.3-12.09A14.43,14.43,0,0,0,528.1,49c-.94,20.43-2.38,38.91-4.69,56.05-.12.83-.39,1-.74.65a22.32,22.32,0,0,1-2.15-3,2.81,2.81,0,0,1-.25-1.86,494.86,494.86,0,0,0,4.61-50.51c-1.85.87-3.7,1.85-5.94,3.11A4.74,4.74,0,0,0,517,55.18c-.44.87-.86.9-1.27-.47-.54-2-1.15-4.61-1.76-7.85a12.9,12.9,0,0,0,4.8-1,67.9,67.9,0,0,0,6.39-2.79C525.31,37.52,525.41,32.81,525.45,26.21Zm18,8.08c.26-.26.46-.16.75.4,3.88,6.72,7.47,16.64,10,27.6a3.46,3.46,0,0,1,0,2,17.41,17.41,0,0,1-1.64,3.32c-.32.62-.66.53-.86-.63-2.62-11.77-5.83-21.49-10.05-28.88A38.63,38.63,0,0,1,543.42,34.29Z"/><path class="cls-3" d="M566.42,14.28a2.64,2.64,0,0,1,.76,1.7,6.1,6.1,0,0,1,0,1.53,21.28,21.28,0,0,0-.44,4.63c.06,10.93.49,20.66.95,27,.34,4.44.76,9.22,1.34,13.17.55-5,1.37-11.76,2-17.11a31.8,31.8,0,0,0,1.36,4.71,5.61,5.61,0,0,1,.22,3.15c-.74,5.48-1.31,11.29-1.59,15.67a21.85,21.85,0,0,0,0,3.76c.14,1.05.08,1.41-.18,1.67a14.66,14.66,0,0,1-2.17,1c-.24,0-.42-.43-.57-1.13A170.1,170.1,0,0,1,565,52.29c-.62-7.13-1.06-18-1.33-27.53-.15-4.93-.24-8.69-.71-13A10.43,10.43,0,0,1,566.42,14.28Zm14.66-2.46c.73.29.89,1.1.9,2.27a51.36,51.36,0,0,0,.39,5.5c1.51,12.92,2.54,22.6,3.27,30.89,1.46,16.69,1.39,29.4-.48,38.62a57.09,57.09,0,0,1-6.23,17.6c-.4.74-.73.77-1.23-.13a9.2,9.2,0,0,0-2.67-3.06,45.65,45.65,0,0,0,6.73-16.7c1.85-9,2.19-19,.73-35.71-.7-8.05-1.86-19.13-2.9-27.74a115.37,115.37,0,0,0-2-12.18A7.44,7.44,0,0,1,581.08,11.82Z"/><path class="cls-3" d="M618.19,24c.35-.26.51,0,.63.77.21,1.39.48,3.37.65,4.77.15,1.16.09,1.52-.31,1.79a44,44,0,0,1-8,5.52c-.73,24-1.8,44.51-3.46,63.71-.09,1.07-.28,1.09-.64.76a30.08,30.08,0,0,1-2.42-2.37,2.3,2.3,0,0,1-.32-1.5c2.08-20.89,3.15-39.33,3.64-59a42.69,42.69,0,0,1-9.31,2.22c-.56,0-.66-.06-.85-1.1-.24-1.63-.59-4.06-.93-6.39a10.88,10.88,0,0,0,3,0A30.5,30.5,0,0,0,608.07,31c.11-6.24.12-10.48.07-14.82-.06-3.29-.16-7.17-.59-11a12.41,12.41,0,0,1,4,2.36A1.84,1.84,0,0,1,612,8.76a6,6,0,0,1-.21,1.9,21,21,0,0,0-.35,4.62c-.14,4.83-.14,9.66-.27,14.14A35.09,35.09,0,0,0,618.19,24Zm2.34,53.67c.37,0,.49.2.61,1.13,1.25,10.47,4.17,13.75,10.06,13.23A21.16,21.16,0,0,0,638,89.89c.37-.15.51-.16.64.77.21,1.39.53,4,.67,5.58.11,1.17,0,1.42-.38,1.57a18,18,0,0,1-6,1.7c-5,.44-8.32-.92-10.84-5.52-1.94-3.36-3-8.56-3.67-15.56A6.68,6.68,0,0,1,620.53,77.65Zm-1.46-30.1c-.09-1,0-1.41.46-1.81a16.86,16.86,0,0,1,8-3.16,19.67,19.67,0,0,1,5.9.66c.58.18.7.53.81,1.22.15,1.17.41,3.61.49,5.13s0,1.77-.47,1.57a16.05,16.05,0,0,0-6.09-.76,18.54,18.54,0,0,0-8.37,3.32C619.49,51.75,619.19,49,619.07,47.55Zm6.6-35.87c.12-.24.26-.26.48.08a66.64,66.64,0,0,1,6.51,13.66,1.7,1.7,0,0,1,0,1.29l-1.11,2.92c-.19.49-.43.4-.62-.18A61.55,61.55,0,0,0,624.22,15Zm3.22-7.93c.15-.36.28-.49.5-.16a77.19,77.19,0,0,1,6.52,13.19,1.83,1.83,0,0,1,0,1.42l-1,2.91c-.14.48-.33.5-.58-.18A67.15,67.15,0,0,0,627.65,6.8Z"/><path class="cls-3" d="M659.62,88.82c.79,9-1.57,16.49-5.16,16.8s-7.22-6.66-8-15.65,1.57-16.49,5.17-16.8S658.83,79.83,659.62,88.82Zm-10.74.94c.5,5.72,2.78,10.23,5.07,10s3.74-5,3.24-10.76-2.73-10.23-5.06-10S648.38,84,648.88,89.76Z"/><path class="cls-3" d="M19.33,184.92A50.55,50.55,0,0,0,29.56,183c.41-.16.63.18.75,1,.22,1.51.41,3.14.6,5.24.11,1.28-.05,1.65-.5,1.81-3.8,1.74-7.63,7.49-10.93,14.37-.35.85-.81,1-1.29.34a5.93,5.93,0,0,0-2.12-2.16,86.51,86.51,0,0,1,7-12.38,25.86,25.86,0,0,1-5,.91,21,21,0,0,1-9.66-1.28c-.29-.09-.46-.42-.57-1.59-.13-1.52-.3-4-.43-6A24.32,24.32,0,0,0,19.33,184.92Zm-7.1,44.62a1.6,1.6,0,0,1,.27,1.5,39.62,39.62,0,0,0-.46,9.22c.83,9.57,5.54,13.87,13.2,13.2a25.72,25.72,0,0,0,13.1-4.56c.4-.27.55-.17.73.76.25,1.27.69,4.17,1,6,.13.93,0,1.3-.48,1.57-3.47,2.19-7.48,3.72-13.88,4.28-9.06.79-15.12-5.62-16.44-20.68a51.88,51.88,0,0,1,.71-14C10.65,227.67,11.49,228.66,12.23,229.54Z"/><path class="cls-3" d="M49.53,184.28a2,2,0,0,1,.54,1.25,18.7,18.7,0,0,1,0,2.11,101.3,101.3,0,0,0,.57,10.78c.65,7.47,1.32,14.58,3,26.44,1.91,13.71,4.79,23.58,7,23.38,1.86-.16,3-7.79,3.39-18.76a23.28,23.28,0,0,0,2,5.7,5.21,5.21,0,0,1,.63,2.88c-.48,9.57-2.23,18.67-5.35,18.94-3.93.34-8-12.94-10.69-31.18C49,214.2,47.66,201,47,193.32c-.39-4.43-.69-7.23-1.36-11.17A8.2,8.2,0,0,1,49.53,184.28Zm23.06,7c.25-.38.48-.51.71-.06,5.67,10,10.1,24.05,12.63,39.59a2.18,2.18,0,0,1-.19,1.55,10.93,10.93,0,0,1-1.91,2.87c-.31.26-.57-.07-.69-.88-2.87-17.75-6.9-29.86-12.32-39.74A28.48,28.48,0,0,1,72.59,191.32Z"/><path class="cls-3" d="M98.73,191.5c5.75-6.27,11.22-9.92,15-10.26,7.75-.67,13.52,10.35,15,27.63,1.26,14.47-.59,23.93-5,31.14a29.1,29.1,0,0,1-11.65,11c-.63.28-.92-.28-1.29-1.3a20.53,20.53,0,0,0-2.54-5.31,24.24,24.24,0,0,0,12.42-10.26c3.77-5.86,5.54-13.66,4.51-25.34-1.13-12.95-5.5-20.93-11.24-20.42-4.3.37-9.64,5.43-16.47,14a20,20,0,0,0-2.81,4.36c-.4.86-.61,1.11-.8,1.13s-.6-.42-1-1.33a80.78,80.78,0,0,1-2.71-7.87C91.78,198.11,94,196.74,98.73,191.5Z"/><path class="cls-3" d="M143.19,188.79a3.36,3.36,0,0,1,.54,2.89,32.27,32.27,0,0,0-.22,5.55c.08,8,.44,19,1,26.85,3.69-14.32,8.86-22,14.46-22.44,6.35-.55,10.84,8.23,12,21.42,1,11.79-.92,19.61-4.83,25.48a22.25,22.25,0,0,1-10.67,8.7c-.73.3-1,.32-1.31-.95a22.44,22.44,0,0,0-2.6-5.53,21.85,21.85,0,0,0,12.07-8.35c3.27-4.52,4.66-11.23,3.92-19.75-.73-8.29-3.39-14.53-8.34-14.1-4.44.39-8.91,7.84-12.28,19.43a42.58,42.58,0,0,0-1.45,7.07c-.15.95-.29,1-.7.65a19.06,19.06,0,0,1-2.09-1.94c-.31-.32-.43-.55-.52-1.6-1-13.09-1.46-25.28-1.85-36.78-.11-3.4-.19-6.45-.48-9.72A15.28,15.28,0,0,1,143.19,188.79ZM143,160.22c.15-.48.27-.73.62-.4a42.61,42.61,0,0,1,9.71,12.56,2,2,0,0,1,.24,1.62,51.11,51.11,0,0,1-1.1,5.16c-.17.72-.41.74-.75.06a51.05,51.05,0,0,0-9.88-13.48A47.77,47.77,0,0,1,143,160.22Z"/><path class="cls-3" d="M183.4,164.33a3.85,3.85,0,0,1,.56,3.13,40.85,40.85,0,0,0-.24,5.9c.07,16.93.58,32.42,1.53,43.27.58,6.66,1.06,12.73,2.09,20.17.43-6.39,1-12.32,1.61-19.31a31,31,0,0,0,1.49,4.69,4.89,4.89,0,0,1,.27,2.56c-.81,9-1.27,15.64-1.19,18.69a52.34,52.34,0,0,0,.41,5.26,2,2,0,0,1-.1,1.54,8.33,8.33,0,0,1-2,1.7c-.31.26-.47,0-.69-.88-2.4-9.67-3.82-23.19-4.76-33.93-1.12-12.84-1.47-26-1.82-44-.11-3.87-.35-8.32-.78-11.57A9.94,9.94,0,0,1,183.4,164.33Zm20.27,25.75a34.48,34.48,0,0,1-10.4,1c-.28,0-.48-.07-.6-1-.24-1.63-.55-4.07-.73-6.18a31.69,31.69,0,0,0,11-1c-.38-4.32-.72-8.76-1.13-13.43-.29-3.27-.65-6.41-1.37-10.35a8.07,8.07,0,0,1,3.73,1.32,2,2,0,0,1,.64,1.36,7.77,7.77,0,0,1,0,1.65,37.24,37.24,0,0,0,.11,5.63c.27,4.1.62,8.18,1,13a38,38,0,0,0,7.15-3.33c.35-.27.42,0,.53.78.21,1.27.48,3.25.6,4.65.07.82,0,1.3-.2,1.43a27.9,27.9,0,0,1-7.46,3.48c1.24,13.65,2.35,24.73,3.5,35.21a48,48,0,0,1,9.27,11.31,2,2,0,0,1,.23,1.51,37.16,37.16,0,0,1-.81,5.24c-.13.72-.33.62-.55.17a51.07,51.07,0,0,0-7.48-10.17c.71,10.29-1.14,16-6.42,16.45-4.39.38-7.7-4.15-8.45-12.68s2-14.17,6-14.52a11,11,0,0,1,5,.86C205.81,212.84,204.73,202.11,203.67,190.08Zm3.79,39.55a8.88,8.88,0,0,0-5.26-1.54c-2.61.23-4.11,3.06-3.69,7.85.37,4.2,2.27,6.51,5.07,6.26,3.31-.29,4.62-4.16,4.08-10.35Z"/><path class="cls-3" d="M243.36,174.73c.07.82.09.93-.19,1a54.5,54.5,0,0,0-6,.29l-3.27.28.65,7.47,2.52-.22a51.68,51.68,0,0,0,5.54-.71c.33,0,.38.08.46.9.05.58.15,2.81.74,9.58l1,11.44c.57,6.53.88,9,.93,9.56.07.82,0,.94-.29,1a41,41,0,0,0-5.58.25l-2.52.22.65,7.47,2.48-.21a48.82,48.82,0,0,0,5.68-.74c.32,0,.38.09.45.91l.37,4.2c.07.82,0,.94-.29,1a54.82,54.82,0,0,0-5.72.27l-2.47.22.73,8.4a57.86,57.86,0,0,0,8.29-4.25,35,35,0,0,0,0,3.53c.12,2.46.11,2.34-.79,2.89a97.83,97.83,0,0,1-16.12,7.76,4,4,0,0,0-1.74,1.1c-.16.25-.32.61-.5.63s-.46-.31-.69-1.35c-.34-1.74-.84-4.28-1.23-6.6a17.64,17.64,0,0,0,4.78-.77c1.6-.49,3.52-1.13,5.57-1.9L236,229l-3.26.28A48.82,48.82,0,0,0,227,230c-.33,0-.39-.09-.46-.91l-.36-4.2c-.08-.82,0-.94.29-1a54.68,54.68,0,0,0,5.71-.27l3.27-.29-.65-7.47-2.29.2a53.42,53.42,0,0,0-5.54.72c-.32,0-.38-.08-.45-.9s-.17-3-.74-9.58l-1-11.32c-.59-6.77-.89-9.1-.94-9.68-.07-.82,0-.94.3-1a54.09,54.09,0,0,0,5.57-.25L232,184l-.65-7.48-4,.35a55.32,55.32,0,0,0-5.91.75c-.33,0-.39-.08-.46-.9l-.38-4.32c-.07-.81,0-.93.3-1a57.11,57.11,0,0,0,5.95-.29l4-.35-.68-7.7a60.39,60.39,0,0,1-7,2.73c-.83.19-.91.31-1.34-1.3a21.91,21.91,0,0,0-1.38-4A36.48,36.48,0,0,0,236.05,153a7.25,7.25,0,0,0,2-2.41,39.83,39.83,0,0,1,2.16,3.7,3.76,3.76,0,0,1,.51,1.6c.06.7-.28,1.08-.7,1.12a6.22,6.22,0,0,0-1.75,1,62.25,62.25,0,0,1-5.6,3.79l.77,8.75,3.27-.28a51.66,51.66,0,0,0,5.91-.76c.28,0,.33.09.41.91ZM232.47,189l-5.65.49.73,8.41,5.66-.5Zm1.15,13.19-5.65.49.78,8.87,5.65-.49Zm7.3-13.94-5.93.52.74,8.41,5.93-.52Zm1.16,13.2-5.93.52.77,8.87,5.93-.52Zm13.41-26.82a44.25,44.25,0,0,0,5.12-.68c.33,0,.44.19.51,1,.22,3.63.51,6.9.82,10.4,1.53,18.57,2.87,37.63,3.19,52.07.15,8.22-1.13,11.86-4,12.11a25.68,25.68,0,0,1-3.34.06c-.8-.05-.85-.63-1-1.91a30.59,30.59,0,0,0-1.15-5.55,10.69,10.69,0,0,0,4.67.65c1.54-.13,2.1-2.3,2-8.29-.27-12.68-1.62-32.44-3.49-53.8l-5.6.49c.84,11.81,1.33,23.29,1.18,32.83-.33,15.09-1.71,26.74-5.76,36.85-.32.74-.43,1.1-.61,1.12s-.36-.33-.7-1a8.61,8.61,0,0,0-2.15-3c4.56-8.75,6.09-20.77,6.43-36.21.17-7.77-.32-18.79-1.1-30.37l-.47,0a34.84,34.84,0,0,0-5,.67c-.38,0-.43-.08-.5-.9l-.43-4.91c-.07-.81,0-.93.34-1a37.84,37.84,0,0,0,5-.2l.56,0c-.34-4.44-.68-8.88-1.06-13.2-.63-7.24-.92-10-1.58-14.33a9.22,9.22,0,0,1,3.11.55c.33.09.56.54.6,1a17.16,17.16,0,0,1,0,2.47c-.08,1.18.13,4.69.67,10.88.36,4.09.73,8.29,1,12.38Z"/><path class="cls-3" d="M289.71,153.73a4.48,4.48,0,0,1,.46,1.5,2.3,2.3,0,0,1-.33,1.55,10,10,0,0,0-1.47,3.19c-3.66,10.79-8.21,24.48-10.89,34.13a7.75,7.75,0,0,0-.4,3,3.74,3.74,0,0,0,.79,2.05,348.12,348.12,0,0,1,21.4,36.95,2.74,2.74,0,0,1,.25,2.33c-.42,1.68-1,3.5-1.39,4.59-.31.73-.49.87-.91-.16a303.38,303.38,0,0,0-21.06-38,15,15,0,0,1-2.47-7.2,19.47,19.47,0,0,1,1-7.73c2.91-10.37,6.91-23.19,10.15-34.06a41.17,41.17,0,0,0,1.42-7.42A43.53,43.53,0,0,1,289.71,153.73Z"/><path class="cls-3" d="M316,152.84c.32-.61.47-.51.71.06a148.46,148.46,0,0,1,6.85,18.58,2.24,2.24,0,0,1-.16,1.89l-1,1.74c-.2.37-.37.62-.51.63s-.26-.33-.4-.79c-.49-1.84-1.09-3.9-1.68-5.85a110,110,0,0,1-13.76,6.26c-1.14.45-1.49.72-1.85,1.46-.16.36-.29.49-.52.51s-.36-.32-.59-1.36c-.41-2-.81-4.4-1.15-6.72a22.86,22.86,0,0,0,4-.59c.91-6.78,1.65-14.49,1.91-18.52.17-2.83.24-5.31.19-8a8.46,8.46,0,0,1,2.77,1.52,1.85,1.85,0,0,1,.79,1.46,4.21,4.21,0,0,1-.31,1.91,14.37,14.37,0,0,0-.53,3.11c-.49,5.1-1.28,12.22-2,17.58a74.68,74.68,0,0,0,9.31-3.75c-1-2.86-2.08-5.58-3.09-8a1.61,1.61,0,0,1,.18-1.66ZM325.16,219c.54,6.19,1.13,12.37,1.39,15.41.3,3.38.43,6-.27,7.67-.59,1.34-1.26,2.22-4.62,2.52-.89.07-1,0-1.37-2.24a36.66,36.66,0,0,0-1.14-4.37,8.57,8.57,0,0,0,2.94.22c1.54-.14,2-1.35,1.69-4.86l-1.16-13.19-9.9.87.86,9.8c.86,9.81,1.31,13.89,1.36,14.47.07.82,0,.94-.29,1l-2,.17c-.32,0-.38-.08-.45-.9-.05-.58-.28-4.21-1.17-14.36l-2.94-33.63c-.88-10-1.31-13.88-1.37-14.58s0-.94.29-1a35.9,35.9,0,0,0,4.74-.17l5.09-.45a37.82,37.82,0,0,0,4.7-.65c.32,0,.33.09.41.91s.41,5.26,1.29,15.3Zm-5.44-32-9.9.86.94,10.74,9.9-.86Zm1.43,16.34-9.9.87,1,11.2,9.9-.86Zm7.72-26.91c.26,3,.54,4.07,1.59,4.69.69.41,2.2.51,4.59.3,3.12-.27,5-1.14,5.53-2.84s.52-4.27.07-11.06a10.46,10.46,0,0,0,2.05,2.41c.77.76.87.87.95,2.86.3,6.56,0,8.82-.81,11.13s-3.32,3.46-7.38,3.82c-3,.26-5.39.24-6.76-.82-1.21-.95-1.91-2.54-2.33-7.33l-2.26-25.8c-.46-5.25-.81-8.75-1.32-11.88a11.62,11.62,0,0,1,3,.44,1.09,1.09,0,0,1,.7,1,8.69,8.69,0,0,1-.11,2c-.08,1.18,0,2.12.47,8l.73,8.41a52.36,52.36,0,0,0,7.64-10.08,17.41,17.41,0,0,0,2.06-4.89,39.29,39.29,0,0,1,2.36,4.38,3.49,3.49,0,0,1,.45,1.37,1.22,1.22,0,0,1-.5,1.22,9.37,9.37,0,0,0-1.86,2.4,84.94,84.94,0,0,1-9.59,12Zm4.79,53.7c.26,2.92.66,4.29,1.68,5.26.77.64,2.38.85,5,.63,2.06-.18,4.54-1.34,5.15-3,.75-2.18.66-4.77.21-11.55a14,14,0,0,0,2.14,2.4c.87.75.87.75.91,2.86.25,6.57-.1,9.07-1,11.38-.85,2.08-3.23,3.93-7,4.26-3.22.28-5.62.25-7.17-1.26-1.13-1.07-2-3.11-2.48-8.49l-2.37-27.08c-.47-5.37-.81-8.75-1.31-11.76a12.34,12.34,0,0,1,3.05.43c.38.09.6.42.65,1a10.83,10.83,0,0,1-.1,2.12c0,1-.07,1.89.45,7.84l.66,7.48a55.54,55.54,0,0,0,8-10.82,18.14,18.14,0,0,0,2.07-4.89,37,37,0,0,1,2.28,4,4.24,4.24,0,0,1,.52,1.72c0,.47-.14,1.08-.5,1.22s-1.12,1.16-1.91,2.41A70.43,70.43,0,0,1,332.69,219Z"/><path class="cls-3" d="M369.42,159.11c.4-.27.56-.05.67.65.22,1.39.49,3.48.67,5,.14,1.05.07,1.29-.3,1.44a81,81,0,0,1-7.5,4.07c-1.1,18.56-2.92,36.48-5.07,50.08-.15,1-.4.86-.72.42a21.56,21.56,0,0,1-2.17-3.34,2.56,2.56,0,0,1-.22-2,386.78,386.78,0,0,0,5-44.2,25.32,25.32,0,0,1-5.81,1.33,10.31,10.31,0,0,1-2.49,0c-.43-.08-.49-.2-.69-1.36-.27-1.5-.55-3.59-.79-5.81a16.57,16.57,0,0,0,3.73.15,25,25,0,0,0,6.27-1.49c.17-4.49.22-8.84.21-13.78a84.37,84.37,0,0,0-.43-9.14,11.93,11.93,0,0,1,3.85,2,1.68,1.68,0,0,1,.53,1.25,4.14,4.14,0,0,1-.22,1.78,20.4,20.4,0,0,0-.33,3.68c-.15,4.25-.29,8.61-.39,12.74A32.1,32.1,0,0,0,369.42,159.11Zm5.32,28c-.2-2.33-.43-4.43-.93-7.44a7.82,7.82,0,0,1,3.31,1.24,1.64,1.64,0,0,1,.63,1.35,13.86,13.86,0,0,1-.09,2.13,44,44,0,0,0,.29,5.5c.61,7,1.46,14,2.44,21.43a51.84,51.84,0,0,1,9.85,10.91c.42.55.4.9.35,1.85-.1,1.54-.43,3.68-.68,5.23-.16.84-.4.74-.73.18A44.11,44.11,0,0,0,381.11,219c1.08,11.79-.74,18.42-6.77,18.95-3.55.31-7.63-3.92-8.48-13.61-.77-8.76,2.08-15,6.65-15.41a10.49,10.49,0,0,1,4.79,1C376.39,202.73,375.34,193.41,374.74,187.11Zm-1.53,28.25c-3.73.33-5.1,4.1-4.72,8.42.47,5.36,2.41,7.67,5.5,7.4,3.82-.34,4.79-5.48,4.26-11.44-.13-1.51-.19-2.21-.29-2.79A7.82,7.82,0,0,0,373.21,215.36Zm3.37-53c.15-1,.28-1.08.73-.77a37.07,37.07,0,0,1,10.11,10.17,2.68,2.68,0,0,1,.28,2.09c-.15,1.55-.41,3.45-.67,4.77-.16.84-.31.73-.63.29a37.05,37.05,0,0,0-10.57-11.08C376.12,165.82,376.33,163.8,376.58,162.37Z"/><path class="cls-3" d="M401,141.88a2,2,0,0,1,.9,1.69,19.43,19.43,0,0,1-.1,3.07c-.07,1.41.06,5.05.49,12.07,1.12,17.66,2.24,33.68,3.65,49.79,1.14,13.08,2.94,16.92,7,16.56,5.93-.51,11.21-10,14.86-23.76a59.6,59.6,0,0,0,1.39,6.7,14.08,14.08,0,0,1,.32,1.61,4.87,4.87,0,0,1-.36,2.27c-3.87,12.22-9.4,20.59-16.08,21.17-5.27.46-8.67-5.59-10.17-22.75-1.45-16.58-2.7-35.65-3.91-52.13a161,161,0,0,0-1.91-17.59A9.28,9.28,0,0,1,401,141.88Z"/><path class="cls-3" d="M473.75,202.8c.82,9.34,1.4,14.94,1.73,18.67.26,3.51.28,5.86-.49,7.81-.62,1.58-2.1,2.42-5.79,2.74-.93.08-.93.08-1.36-2.12a35,35,0,0,0-1.37-5.4,15.65,15.65,0,0,0,4.54.19c1.26-.11,1.71-1.45,1.41-4.83l-5.78-66.08L452.54,155c3.25,10.3,7.34,19.35,14.36,24.27a21.36,21.36,0,0,0-.88,4.54c-.11,1.42-.21,1.9-.39,1.92s-.4-.2-.76-.52c-6.4-6-10.43-15.44-13.45-25.29-.8,11.36-3.39,19.94-8.54,27.8-.33.5-.49.75-.68.77s-.37-.44-.74-1.47a16.17,16.17,0,0,0-1.8-3.84c6-7,8.8-16.18,9.24-27.86l-13,1.13,5.25,60c1.07,12.14,1.62,17.38,1.67,18,.07.81,0,.93-.25,1l-2.28.2c-.33,0-.39-.09-.46-.9,0-.59-.41-5.73-1.55-18.81l-4-45.76c-1.15-13.07-1.7-18.32-1.75-18.9-.07-.82,0-.94.29-1s1.89.07,6.51-.33l9.62-.85c-.07-1.87-.15-3.86-.29-6-.35-5.14-.76-9.81-1.23-13.07a12.15,12.15,0,0,1,2.78.58,1.25,1.25,0,0,1,.85,1.11,8.79,8.79,0,0,1-.05,1.65,37.35,37.35,0,0,0,.13,5.75c.21,3.51.35,6.67.43,9.73l10.55-.93c4.62-.4,6.24-.78,6.47-.8s.38.09.46.9c.05.59.46,6.43,1.61,19.51Zm-5.69,11.32c-.11,1.42-.16,1.9-.4,1.92s-.34-.21-.71-.64c-5.21-5.19-9.22-12.37-12.51-22.55-.82,11.13-3.66,19-8.53,25.68-.33.5-.5.75-.69.77s-.41-.44-.78-1.46A15.65,15.65,0,0,0,442.5,214c6.65-6.82,9.33-16.58,9.41-27.41a113.21,113.21,0,0,0-.45-11.61,8.38,8.38,0,0,1,2.66.83,1.22,1.22,0,0,1,.77,1.22,5.73,5.73,0,0,1-.1,1.54,57.12,57.12,0,0,0-.12,6.13c3.47,12.28,7.46,19.23,14.36,24.86A18.46,18.46,0,0,0,468.06,214.12Z"/><path class="cls-3" d="M500.4,148.12c.35-.26.51,0,.63.77.22,1.39.49,3.37.65,4.77.15,1.16.09,1.52-.31,1.79a44,44,0,0,1-8,5.53c-.73,23.94-1.8,44.5-3.46,63.7-.1,1.07-.28,1.09-.64.76a28.51,28.51,0,0,1-2.42-2.37,2.24,2.24,0,0,1-.32-1.5c2.08-20.89,3.15-39.33,3.63-59a43.15,43.15,0,0,1-9.31,2.23c-.56,0-.66-.06-.84-1.11-.24-1.62-.6-4.06-.94-6.38a11.35,11.35,0,0,0,3,0,30.78,30.78,0,0,0,8.29-2.13c.11-6.25.11-10.49.06-14.83-.05-3.29-.15-7.16-.58-11a12.63,12.63,0,0,1,4,2.36,1.89,1.89,0,0,1,.48,1.25,6,6,0,0,1-.21,1.9,21.7,21.7,0,0,0-.35,4.62c-.14,4.83-.14,9.66-.27,14.14A34.53,34.53,0,0,0,500.4,148.12Zm2.34,53.68c.38,0,.49.19.62,1.12,1.25,10.47,4.17,13.75,10,13.23a21.22,21.22,0,0,0,6.78-2.12c.36-.15.5-.16.63.77.22,1.39.54,3.95.68,5.59.1,1.17,0,1.41-.38,1.56a17.92,17.92,0,0,1-6,1.7c-5,.44-8.31-.92-10.83-5.52-1.94-3.36-3-8.56-3.67-15.56A6.28,6.28,0,0,1,502.74,201.8Zm-1.45-30.11c-.1-1.05,0-1.41.45-1.8a16.81,16.81,0,0,1,8-3.17,19.93,19.93,0,0,1,5.89.66c.58.18.7.53.81,1.22.15,1.17.41,3.61.5,5.14s0,1.76-.48,1.57a15.62,15.62,0,0,0-6.09-.76,18.32,18.32,0,0,0-8.36,3.32C501.7,175.89,501.41,173.09,501.29,171.69Zm6.6-35.87c.12-.24.26-.26.48.08a67.43,67.43,0,0,1,6.51,13.66,1.77,1.77,0,0,1,0,1.3l-1.11,2.92c-.19.48-.44.39-.63-.19a61.28,61.28,0,0,0-6.72-14.46Zm3.21-7.93c.16-.36.29-.49.5-.16a75.51,75.51,0,0,1,6.52,13.2,1.77,1.77,0,0,1,0,1.41l-1,2.91c-.15.48-.33.5-.58-.18A67.35,67.35,0,0,0,509.86,131Z"/><path class="cls-3" d="M537,175.39c2.88-5.79,6-8.88,9.32-9.17,6.72-.59,11.79,9.43,13.11,24.61,1.53,17.4-2.88,30.49-12.78,31.35-5.6.49-8.68-5.59-9.33-13.06-.53-6.07,1.1-12.1,4.42-12.39,4.2-.36,7.64,6.16,9.4,16,3.73-3.62,6-10.4,5-21.84-1-11.91-5.32-18.83-9.76-18.44-4.62.4-8.72,6.76-11.68,14.32-1.24,3-2.18,6.3-3.28,9.93-.29,1-.51,1.1-.91.31-.68-1.35-1.53-3-2.13-4.52a2.12,2.12,0,0,1,0-1.76c3-8.38,4.84-14.54,8.27-27,2.07-7.59,4.22-15.31,6.88-26.25-3.74,1.86-7.23,3.93-11.21,6.28a4.47,4.47,0,0,0-1.54,1.19,1.67,1.67,0,0,1-.84.66c-.33,0-.6-.42-.87-1.33-.6-2.07-1.12-4.26-1.82-8a7.15,7.15,0,0,0,4.12-.24,61.38,61.38,0,0,0,11.26-5.22,3.37,3.37,0,0,0,1.35-1.18c.16-.37.4-.86.58-.87s.49.19.92.86a30.19,30.19,0,0,1,2.44,4.72,6.29,6.29,0,0,1,.5,2,3.22,3.22,0,0,1-.5,2.28c-.57.52-1,1.38-1.84,4.28-3.2,11.34-5.61,19.78-9.24,32.1ZM542.42,203c-1.49.13-2.68,2.11-2.36,5.73.33,3.86,2.3,7,5.43,6.71a7.16,7.16,0,0,0,3-.85C547.28,208,545.09,202.8,542.42,203Z"/><path class="cls-3" d="M582.12,173.79a36.39,36.39,0,0,1-10.77.59c-.37,0-.5-.31-.63-1.35-.23-1.51-.52-4.31-.67-5.94a28.53,28.53,0,0,0,11.38-.18c-.5-5.72-1.08-11.78-1.57-17.39a35.91,35.91,0,0,1-12.43.5c-.29-.09-.4-.31-.52-1.13-.25-1.74-.49-3.48-.72-6a32.57,32.57,0,0,0,13.07-.2c-.42-4.79-.76-8.06-1.13-12.37a67.91,67.91,0,0,0-1.1-7.67,9.25,9.25,0,0,1,3.82,1.19,3.16,3.16,0,0,1,.66,2.65,24.25,24.25,0,0,0-.09,5.42c.23,3.74.46,6.31.76,10.28a50.36,50.36,0,0,0,11.05-4.84c.36-.27.47-.05.59.77.26,1.86.47,3.72.59,5.12.08.94-.09,1.19-.23,1.2a51.74,51.74,0,0,1-11.42,4.41c.5,5.72,1,11.79,1.56,17.27a35.71,35.71,0,0,0,10-4.29c.31-.26.47,0,.57.54.12,1.4.36,3.62.53,5.6.06.7-.05,1.06-.36,1.21A38.38,38.38,0,0,1,585,173.19c.64,7.23,1.31,13.29,2.11,20.28,4.46,2.55,9.28,7.07,13.78,14a3,3,0,0,1,.36,2,27.47,27.47,0,0,1-.72,5.12c-.18.72-.35.85-.67.41-4.43-7-7.94-11.07-11.95-13.89,1.19,13.07-1.11,18.44-6.76,18.94-5.47.48-8.73-4.53-9.48-13.17-.67-7.59,1.92-14.52,7.34-15a12.72,12.72,0,0,1,5,.51C583.3,185.69,582.76,180.56,582.12,173.79Zm-2.52,24.46c-3.92.34-5.6,3.66-5.24,7.87.43,4.9,2.46,7.07,5.87,6.78a4.86,4.86,0,0,0,4.44-4c.41-1.8.58-4.75,0-9.53A10,10,0,0,0,579.6,198.25Z"/><path class="cls-3" d="M626.2,137.12c.36-.27.52-.05.63.77.22,1.39.49,3.36.66,4.76.15,1.16.08,1.52-.32,1.79a43.7,43.7,0,0,1-8,5.53c-.73,23.94-1.8,44.5-3.46,63.71-.1,1.06-.28,1.08-.64.76a30.47,30.47,0,0,1-2.42-2.38,2.3,2.3,0,0,1-.32-1.5c2.08-20.89,3.15-39.33,3.64-59a42.84,42.84,0,0,1-9.31,2.23c-.56,0-.67-.06-.85-1.1-.24-1.63-.59-4.07-.94-6.39a10.93,10.93,0,0,0,3,0,30.78,30.78,0,0,0,8.29-2.13c.11-6.24.12-10.48.06-14.83,0-3.29-.15-7.16-.58-11a12.59,12.59,0,0,1,4,2.36,1.91,1.91,0,0,1,.48,1.25,5.53,5.53,0,0,1-.21,1.91,21.05,21.05,0,0,0-.34,4.61c-.15,4.84-.15,9.66-.27,14.14A34.33,34.33,0,0,0,626.2,137.12Zm2.35,53.67c.37,0,.48.19.61,1.12,1.25,10.48,4.17,13.75,10.05,13.24A21.73,21.73,0,0,0,646,203c.36-.15.51-.17.63.76.22,1.4.54,4,.68,5.59.1,1.17,0,1.41-.38,1.56a18.08,18.08,0,0,1-6,1.71c-5,.44-8.31-.92-10.83-5.53-1.94-3.36-3-8.56-3.67-15.56A6.32,6.32,0,0,1,628.55,190.79Zm-1.46-30.11c-.09-1.05,0-1.4.45-1.8a17,17,0,0,1,8-3.17,20.27,20.27,0,0,1,5.89.66c.58.19.71.53.82,1.23.14,1.16.41,3.61.49,5.13s0,1.77-.47,1.57a16.05,16.05,0,0,0-6.09-.76,18.42,18.42,0,0,0-8.37,3.32C627.5,164.88,627.21,162.08,627.09,160.68Zm6.6-35.87c.12-.24.26-.25.48.08a67,67,0,0,1,6.51,13.67,1.7,1.7,0,0,1,0,1.29l-1.11,2.92c-.19.49-.44.39-.63-.18a61,61,0,0,0-6.72-14.47Zm3.21-7.92c.16-.37.29-.5.51-.16a76.1,76.1,0,0,1,6.51,13.19,1.77,1.77,0,0,1,0,1.41l-1,2.91c-.14.49-.33.5-.58-.18a67.09,67.09,0,0,0-6.65-14.12Z"/><path class="cls-3" d="M663.66,184.42l-3,.26L654,118.22l4.95-.43Zm3.38,25.7-5.09.45-1.1-12.49,5.09-.45Z"/></g><rect class="cls-4" width="1000" height="265"/></g></g></svg>