<svg xmlns="http://www.w3.org/2000/svg" viewBox="0 0 1000 265"><defs><style>.cls-1{isolation:isolate;}.cls-2{mix-blend-mode:soft-light;}.cls-3{fill:red;}.cls-4{fill:none;opacity:0.19;}</style></defs><title>アートボード 362</title><g class="cls-1"><g id="CHARACTER"><g class="cls-2"><path class="cls-3" d="M18.94,120.94a90,90,0,0,0,.39-13.79,21.35,21.35,0,0,1,4.32,4.68,3.81,3.81,0,0,1,.24,3.27c-.48,1-.85,3.25-1.39,7.3-1,9.61-2.22,18.66-3.67,26.32a129.7,129.7,0,0,1,8.71,15.7,3.08,3.08,0,0,1,.25,2.22c-.36,1.79-.77,3.12-1.19,4.69-.26.84-.5.75-.85,0a123.54,123.54,0,0,0-8.16-15.76Q12.11,180.9,4.28,195.87c-.41.74-.85,1.13-1.35.23A8.73,8.73,0,0,0,0,192.71c6.53-11.39,11-25,14.55-41.85A103.7,103.7,0,0,0,3.87,137.44c.51-2.28,1-4.56,1.28-5.76.19-.6.38-.5.75-.07a134.45,134.45,0,0,1,9.92,12.31C17.2,136,18.33,127.94,18.94,120.94Z"/><path class="cls-3" d="M37.74,113.65c.25-.84.5-.75.82-.3a82.47,82.47,0,0,1,9.76,14.79,3,3,0,0,1,.34,2.2c-.26,1.44-.86,4.2-1.15,5.16s-.34,1-.74.19a100.34,100.34,0,0,0-10.38-16.51C36.83,117.26,37.35,115.1,37.74,113.65Zm9.61,61.51A128.12,128.12,0,0,0,59,152.26a199.72,199.72,0,0,0,9.86-32.5c.47,3.25,1,5.44,1.47,7.63a7,7,0,0,1,0,4.12,225.43,225.43,0,0,1-9,27.84,158.6,158.6,0,0,1-12,24,33.59,33.59,0,0,0-2.17,4.78c-.37,1.09-.75,1.12-1.27,0a64.94,64.94,0,0,1-3-7.74A22.72,22.72,0,0,0,47.35,175.16Z"/><path class="cls-3" d="M83.27,140.37c1.28-4.23,3.2-10.75,5.16-17.39.88-2.9,1.45-3.89,2.43-4s1.74.55,3.12,2.9a328.82,328.82,0,0,0,24.79,36.41,2.7,2.7,0,0,1,.47,2.2c-.26,2.37-.6,4.4-.93,6-.17.84-.38,1.09-.81.42-8.54-12.07-16.85-24.75-24.63-37.84-.33-.56-.67-1.23-1.05-1.2s-.61.53-.79,1.13c-1.64,5.44-3.62,12.43-6,21.23a61.73,61.73,0,0,0-1.46,6.48c-.17,1.19-.54,1.34-1,.56a59.84,59.84,0,0,1-3.25-5.95A74.23,74.23,0,0,0,83.27,140.37Z"/><path class="cls-3" d="M132.07,131.28a28,28,0,0,0-6.53,1.16c-.41.15-.64-.3-.83-1.46-.31-1.85-.68-4.52-1-7.32a32.56,32.56,0,0,0,7.83.14l16.72-1.47a2.61,2.61,0,0,0,2.21-1c.5-.75.72-.89,1.27,0a26.58,26.58,0,0,1,2.1,4.05c.6,1.48.61,2.19.18,3.16a14,14,0,0,0-.73,4.07c-2.05,23.35-6.39,40.91-15.1,54.37-.49.75-.82.78-1.28-.12a11,11,0,0,0-2.93-3.39c8.69-12.53,14.28-30.42,15.77-53.73Zm1.66-24.61a38.25,38.25,0,0,0-6.59,1c-.41.16-.54-.3-.7-1.58-.25-1.74-.67-4.88-.85-7a26.43,26.43,0,0,0,7.68.16l7.24-.64a44.47,44.47,0,0,0,7.19-1.21c.42,0,.54.3.63,1.35.18,1.51.37,3.62.46,5.26.12,1.28.05,1.64-.47,1.57-2.15.18-4.13.12-7,.37Z"/><path class="cls-3" d="M170.64,132.73c4.71-4.3,8.43-7.44,12-7.76,5.79-.51,10.5,8.14,11.7,21.92,1,11.2-.34,18.61-4.05,24.7a22.87,22.87,0,0,1-9,8.67c-.49.28-.71-.06-1-1.09a20.12,20.12,0,0,0-2.21-4.75,21.72,21.72,0,0,0,10-8.64c2.69-4.23,3.83-10,3-19.08-.91-10.39-4.12-15.29-8.27-14.93-3.46.31-8.15,4.72-13,10.55a13.58,13.58,0,0,0-1.94,3.11c-.29.5-.56,1.11-.8,1.13s-.6-.42-.95-1.21a79,79,0,0,1-2.35-7.56C165.66,137.05,167.2,135.85,170.64,132.73Z"/><path class="cls-3" d="M224.3,103.33c-6.76,3.41-12.62,6.4-18.23,10a6.9,6.9,0,0,0-2.63,2.23c-.3.38-.54.87-.82.89s-.55-.42-.74-1c-.67-2.3-1.34-5.06-2-8.18,1.68-.14,2.87-.6,5.67-1.9,6.71-3.41,15.89-7.74,28.06-12.69.46-.16.73.17.88.86.27,1.51.66,4.3.79,5.81.09,1,0,1.3-.48,1.46a10.53,10.53,0,0,0-6.51,4.1c-6.23,7.36-10.2,22.18-8.83,37.82,1.69,19.38,9,24.51,15.9,25.32.62.06.78.28.86,1.22.11,1.28.21,4,.21,5.62,0,1.3-.08,1.77-.6,1.7-8-1.06-17.28-8.72-19.34-32.3-1.44-16.46,1.43-30.36,7.92-40.69Z"/><path class="cls-3" d="M256.46,123.46c1.9,21.71,2.3,25.2,2.35,25.79.07.81,0,.94-.34,1l-1.91.17c-.28,0-.34-.09-.41-.91l-.65-7.35-6.16.53,1,11.33c.07.82,0,.94-.29,1l-2,.17c-.33,0-.39-.09-.46-.9s-.28-4.33-2.29-27.33l-1.42-16.23c-1.36-15.52-1.8-19.48-1.86-20.19s0-.82.3-.85a24.77,24.77,0,0,0,3.89-.1l3-.27a21.8,21.8,0,0,0,3.81-.57c.37,0,.43.08.49.79s.29,4.44,1.42,17.28Zm-5-27.91-6.17.53,3.52,40.16,6.16-.54Zm35.13,41.15c.07.82,0,.94-.3,1s-1.84-.07-6.46.33l-5.6.49L275.29,151c.52,6,1.1,11.55,1.47,15.75.44,5,.33,7.5-.49,9.46s-1.81,2.39-6.16,2.77c-.93.08-.93.08-1.37-2.23a39.75,39.75,0,0,0-1.4-5.29,17.71,17.71,0,0,0,4.49.2c1.77-.16,2.29-1.15,1.89-5.82l-2.37-27.08-4.81.42a62.87,62.87,0,0,0-6.43.8c-.32,0-.38-.09-.45-.9l-.46-5.26c-.06-.7,0-.82.3-.85a62.56,62.56,0,0,0,6.47-.33l4.8-.42-3.63-41.56A52,52,0,0,1,258.49,94c-.83.19-.83.19-1.33-1.77a23.72,23.72,0,0,0-1.37-4.35c8.08-1.76,13.15-4.56,17-8a10.13,10.13,0,0,0,3.06-3.8,36.77,36.77,0,0,1,2.53,4.13A4.24,4.24,0,0,1,278.9,82c.05.58-.1,1.06-.57,1.11a6.09,6.09,0,0,0-2.26,1.49,54.26,54.26,0,0,1-6.19,4.54L273.62,132l5.61-.49a58.79,58.79,0,0,0,6.42-.8c.33,0,.38.09.45.79Zm-26.5-36c.48-.51.52-.51.78.29a195.32,195.32,0,0,1,5,20,1.3,1.3,0,0,1-.43,1.56l-1.12,1.16c-.59.76-.68.77-.86-.16a192.35,192.35,0,0,0-4.87-20.16c-.26-.8-.21-.8.35-1.44Zm21.24.73a17.87,17.87,0,0,0-.54,3.46c-.35,4.62-.86,10.66-1.85,17.57-.18,1.19-.27,1.79-.5,1.81s-.4-.2-.77-.76a3.07,3.07,0,0,0-1.76-1.25c1.19-7.4,1.87-15.22,2.17-20.31a46.94,46.94,0,0,0,0-5.65,20.39,20.39,0,0,1,2.78,2.23,2.11,2.11,0,0,1,.69,1.47A2.64,2.64,0,0,1,281.3,101.4Z"/><path class="cls-3" d="M297.28,85.53a3.82,3.82,0,0,1,.55,3.13,39.89,39.89,0,0,0-.23,5.9c.07,16.94.57,32.42,1.52,43.28.59,6.65,1.07,12.73,2.1,20.17.43-6.39,1-12.32,1.6-19.32a32.17,32.17,0,0,0,1.49,4.69,4.84,4.84,0,0,1,.28,2.57c-.82,9-1.27,15.64-1.19,18.69a52.59,52.59,0,0,0,.41,5.26,2,2,0,0,1-.1,1.53,8.42,8.42,0,0,1-2,1.71c-.3.26-.47,0-.69-.89-2.4-9.67-3.83-23.42-4.69-33.23-1.22-13.89-1.54-26.69-1.89-44.65-.1-3.88-.35-8.32-.77-11.58A10,10,0,0,1,297.28,85.53Zm20.27,25.76a34.48,34.48,0,0,1-10.4,1c-.28,0-.48-.07-.61-1-.23-1.63-.54-4.07-.73-6.17a31.75,31.75,0,0,0,11-1c-.38-4.31-.72-8.76-1.13-13.43-.29-3.26-.66-6.41-1.38-10.34a7.89,7.89,0,0,1,3.74,1.32,2,2,0,0,1,.64,1.35,7.19,7.19,0,0,1,0,1.65,39.07,39.07,0,0,0,.12,5.64c.26,4.09.62,8.18,1,13A37,37,0,0,0,327,100c.36-.26.42,0,.54.78.21,1.28.47,3.25.6,4.65.07.82,0,1.3-.21,1.43a27.6,27.6,0,0,1-7.46,3.48c1.24,13.65,2.35,24.73,3.51,35.22a47.93,47.93,0,0,1,9.27,11.3,2,2,0,0,1,.22,1.51,35.9,35.9,0,0,1-.81,5.25c-.12.72-.32.62-.55.17a50.38,50.38,0,0,0-7.47-10.17c.71,10.29-1.15,16-6.42,16.44-4.39.38-7.71-4.15-8.45-12.67s2-14.17,6-14.52a11.12,11.12,0,0,1,5,.85C319.68,134,318.6,123.31,317.55,111.29Zm3.79,39.54a8.88,8.88,0,0,0-5.26-1.53c-2.62.22-4.11,3.06-3.69,7.85.37,4.2,2.26,6.5,5.06,6.26,3.32-.29,4.63-4.17,4.09-10.36Zm.18-76.47c.17-.25.26-.26.49.19a103,103,0,0,1,5.37,15.17,1.5,1.5,0,0,1,0,1.18L326,93.25c-.25.38-.44.28-.6-.42A97.07,97.07,0,0,0,319.87,77Zm3.87-5.75c.17-.25.3-.38.53.07a112.74,112.74,0,0,1,5.41,14.58,1.56,1.56,0,0,1-.11,1.42L330.06,87c-.2.37-.39.39-.6-.42A104.91,104.91,0,0,0,324,71.08Z"/><path class="cls-3" d="M357.67,90.13c.4-.27.56,0,.67.65.22,1.39.5,3.49.68,5,.13,1,.06,1.29-.3,1.44a79.88,79.88,0,0,1-7.5,4.06c-1.11,18.57-2.93,36.49-5.08,50.09-.15.95-.4.86-.72.42a21.56,21.56,0,0,1-2.17-3.34,2.6,2.6,0,0,1-.22-2,389.31,389.31,0,0,0,5-44.2,25.56,25.56,0,0,1-5.81,1.33,10.39,10.39,0,0,1-2.5,0c-.43-.08-.49-.2-.68-1.36-.28-1.5-.55-3.59-.79-5.81a16.55,16.55,0,0,0,3.73.15,25.22,25.22,0,0,0,6.27-1.49c.17-4.49.21-8.85.2-13.79a84.18,84.18,0,0,0-.42-9.13,12,12,0,0,1,3.84,2,1.65,1.65,0,0,1,.54,1.25,4.3,4.3,0,0,1-.22,1.78,21,21,0,0,0-.34,3.68c-.15,4.25-.28,8.61-.39,12.74A32.34,32.34,0,0,0,357.67,90.13Zm5.32,28c-.2-2.33-.43-4.43-.93-7.44a7.64,7.64,0,0,1,3.31,1.24,1.61,1.61,0,0,1,.63,1.35,12.65,12.65,0,0,1-.09,2.13,44,44,0,0,0,.29,5.5c.61,7,1.46,14,2.44,21.43a51.48,51.48,0,0,1,9.85,10.9c.42.56.41.91.35,1.86-.1,1.54-.43,3.68-.67,5.23-.16.84-.41.74-.74.18A44.11,44.11,0,0,0,369.36,150c1.08,11.79-.74,18.42-6.76,19-3.55.31-7.64-3.92-8.49-13.61-.76-8.76,2.08-15,6.65-15.41a10.4,10.4,0,0,1,4.8,1C364.64,133.75,363.59,124.43,363,118.13Zm-1.52,28.25c-3.74.33-5.1,4.1-4.73,8.41.47,5.37,2.42,7.68,5.5,7.41,3.83-.34,4.79-5.48,4.27-11.44-.13-1.51-.2-2.21-.29-2.79A7.84,7.84,0,0,0,361.47,146.38Zm3.36-53c.15-1,.28-1.09.73-.77a37.07,37.07,0,0,1,10.11,10.17,2.68,2.68,0,0,1,.28,2.09c-.15,1.55-.4,3.45-.66,4.77-.17.83-.32.73-.64.29a36.93,36.93,0,0,0-10.57-11.08C364.38,96.84,364.58,94.82,364.83,93.39Z"/><path class="cls-3" d="M388.25,84.63a2.08,2.08,0,0,1,.53,1.25c.05.58,0,1.29,0,2.12a95.5,95.5,0,0,0,.57,10.77c.65,7.47,1.32,14.59,3,26.44,1.9,13.72,4.79,23.58,7,23.39,1.87-.17,3-7.79,3.39-18.77a23,23,0,0,0,2.06,5.7,5.36,5.36,0,0,1,.62,2.89c-.48,9.57-2.22,18.66-5.35,18.94-3.92.34-8.05-12.94-10.68-31.18-1.68-11.62-3-24.8-3.69-32.5-.39-4.44-.68-7.24-1.35-11.18A8.29,8.29,0,0,1,388.25,84.63Zm23.06,7c.25-.37.47-.51.7-.06,5.67,10,10.1,24.06,12.64,39.6a2.16,2.16,0,0,1-.19,1.54,10.77,10.77,0,0,1-1.92,2.88c-.3.26-.57-.07-.69-.88C419,117,415,104.88,409.53,95A29.37,29.37,0,0,1,411.31,91.67Z"/><path class="cls-3" d="M452.9,84c-6.76,3.41-12.62,6.39-18.24,9.94A7,7,0,0,0,432,96.21c-.29.38-.53.87-.81.9s-.56-.42-.75-1c-.67-2.29-1.33-5.06-2-8.17,1.68-.15,2.87-.6,5.67-1.91,6.71-3.41,15.88-7.74,28.06-12.69.46-.15.72.18.88.87.27,1.5.66,4.29.79,5.81.09,1,0,1.3-.49,1.45a10.6,10.6,0,0,0-6.51,4.1c-6.22,7.37-10.2,22.19-8.83,37.83,1.7,19.38,9,24.51,15.91,25.31.62.06.78.29.86,1.22.11,1.28.21,4,.21,5.63,0,1.29-.08,1.77-.61,1.7-8-1.06-17.27-8.72-19.34-32.31-1.44-16.46,1.44-30.35,7.92-40.68ZM460,100c.12-.25.26-.26.48.07A66.48,66.48,0,0,1,467,113.74a1.7,1.7,0,0,1,0,1.29L465.93,118c-.19.49-.43.39-.62-.18a61.36,61.36,0,0,0-6.73-14.47Zm3.22-7.93c.15-.37.28-.5.5-.16a76.82,76.82,0,0,1,6.52,13.19,1.81,1.81,0,0,1,0,1.41l-1,2.92c-.14.48-.33.5-.58-.19A67.06,67.06,0,0,0,462,95.12Z"/><path class="cls-3" d="M483.4,109.48c.38,4.32-.72,7.83-2.36,8s-3.38-3.11-3.75-7.43c-.36-4.09.69-7.71,2.41-7.86S483.05,105.4,483.4,109.48ZM499,108.12c.38,4.32-.72,7.83-2.36,8s-3.38-3.11-3.75-7.43c-.36-4.09.68-7.71,2.41-7.86S498.6,104,499,108.12Zm15.55-1.36c.38,4.32-.73,7.83-2.36,8s-3.38-3.12-3.75-7.43c-.36-4.09.73-7.72,2.41-7.86S514.14,102.67,514.5,106.76Z"/></g><rect class="cls-4" width="1000" height="265"/></g></g></svg>