<svg xmlns="http://www.w3.org/2000/svg" viewBox="0 0 1000 265"><defs><style>.cls-1{isolation:isolate;}.cls-2{mix-blend-mode:soft-light;}.cls-3{fill:red;}.cls-4{fill:none;opacity:0.19;}</style></defs><title>アートボード 366</title><g class="cls-1"><g id="CHARACTER"><g class="cls-2"><path class="cls-3" d="M3.92,107.86a1.93,1.93,0,0,1,.69,1.47c.11,1.16,0,2.23.13,4.1.27,2.57.57,4.89.93,7.45,1.16,8.37,2.4,16.14,3.89,23.42,2.46-3.62,5-7.14,7.39-11.23a16.24,16.24,0,0,0,2.24-5.61,60.19,60.19,0,0,1,2.95,6.33c.5,1.37.55,3-.27,3.32-1.13.57-2.53,2.34-3.79,4.09-3.06,4.27-6.65,9.41-9.43,14.24-4.11,7.3-5.78,13.56-5.06,21.73.91,10.39,5.05,12.62,12.09,11.88a37.84,37.84,0,0,0,11.79-3.5c.41-.15.57.07.75,1,.3,1.85.59,4.06.81,6,.14,1,0,1.53-.51,1.69A42.84,42.84,0,0,1,16.24,197c-8.08.7-14.31-3.22-15.7-19.22-1-11.2,1.43-20.12,6.58-29.63C5.33,139.61,3.3,127.67,2,118.49a100.59,100.59,0,0,0-2-11.35A9.53,9.53,0,0,1,3.92,107.86Z"/><path class="cls-3" d="M39.79,107a2.74,2.74,0,0,1,.76,1.7,6.68,6.68,0,0,1,0,1.54,21.11,21.11,0,0,0-.44,4.62c.06,10.94.49,20.66.94,27,.35,4.44.76,9.22,1.35,13.17.55-5,1.37-11.76,2-17.11a31,31,0,0,0,1.35,4.7,5.57,5.57,0,0,1,.23,3.16c-.74,5.47-1.32,11.29-1.59,15.67a21.85,21.85,0,0,0,0,3.76c.14,1.05.07,1.41-.19,1.66a15.11,15.11,0,0,1-2.17,1c-.23,0-.41-.44-.56-1.13A168.24,168.24,0,0,1,38.32,145c-.63-7.12-1.06-18-1.33-27.53-.15-4.92-.24-8.68-.71-13A10.27,10.27,0,0,1,39.79,107Zm14.66-2.45c.73.28.89,1.09.9,2.27a48.7,48.7,0,0,0,.39,5.49c1.5,12.93,2.54,22.6,3.26,30.89,1.46,16.69,1.4,29.41-.47,38.63a57.09,57.09,0,0,1-6.23,17.6c-.4.74-.73.77-1.23-.13a9.2,9.2,0,0,0-2.67-3.06,45.9,45.9,0,0,0,6.73-16.7c1.84-9,2.19-19,.73-35.71C55.16,135.72,54,124.65,53,116a118,118,0,0,0-2-12.18A7.37,7.37,0,0,1,54.45,104.5Z"/><path class="cls-3" d="M87,149.88a36.76,36.76,0,0,1-10.77.58c-.38,0-.5-.3-.64-1.35-.23-1.51-.52-4.31-.66-5.94A28.47,28.47,0,0,0,86.33,143c-.5-5.73-1.08-11.79-1.57-17.4a35.85,35.85,0,0,1-12.42.5c-.29-.09-.41-.31-.53-1.13-.24-1.74-.49-3.48-.71-6a32.34,32.34,0,0,0,13.06-.2c-.42-4.79-.75-8-1.13-12.37a68.54,68.54,0,0,0-1.09-7.67,9.3,9.3,0,0,1,3.82,1.19,3.21,3.21,0,0,1,.65,2.65,24.87,24.87,0,0,0-.09,5.42c.23,3.75.46,6.31.76,10.29a50.72,50.72,0,0,0,11.06-4.85c.35-.27.46,0,.58.77.26,1.86.47,3.72.59,5.12.08.94-.08,1.19-.22,1.2a51.63,51.63,0,0,1-11.43,4.41c.5,5.72,1,11.79,1.56,17.27a35.73,35.73,0,0,0,10-4.28c.3-.27.46-.05.56.53.12,1.41.36,3.62.54,5.6.06.7,0,1.07-.37,1.21a38.45,38.45,0,0,1-10,4.06c.63,7.24,1.3,13.29,2.1,20.28,4.46,2.55,9.28,7.07,13.79,14a3.11,3.11,0,0,1,.36,2,28.19,28.19,0,0,1-.73,5.12c-.17.72-.35.86-.67.41-4.43-7-7.93-11.07-11.94-13.89,1.19,13.07-1.12,18.45-6.77,18.94-5.46.48-8.72-4.53-9.48-13.17-.66-7.59,1.93-14.52,7.35-15a12.51,12.51,0,0,1,5,.5C88.21,161.77,87.67,156.64,87,149.88Zm-2.52,24.45c-3.93.34-5.61,3.66-5.24,7.87.43,4.9,2.45,7.08,5.86,6.78a4.88,4.88,0,0,0,4.45-4c.4-1.8.57-4.75,0-9.53A10,10,0,0,0,84.51,174.33Z"/><path class="cls-3" d="M113.71,171.42c.14-.48.31-.73.45-.74s.3.2.58.65c3.87,5.07,7.3,11.36,10.8,20.23a5.06,5.06,0,0,1,.36,1.38,2.84,2.84,0,0,1-.21,1.43L124.32,198c-.2.49-.31.73-.41.74s-.34-.09-.59-.89c-3.2-8.54-6.86-16-10.51-21.08a1.47,1.47,0,0,1-.39-.79,3,3,0,0,1,.13-1.18Z"/><path class="cls-3" d="M151.87,126.79c.47-.51.57-.52.82.28,2,6.53,3.11,10.79,4.67,17.83a1.46,1.46,0,0,1-.43,1.56l-.85,1c-.59.76-.65.64-.83-.4-.3-1.27-.56-2.54-.81-3.81-1.36.59-2.73,1.06-4.05,1.53l2.73,31.29c1.12,12.72,1.53,16.33,1.59,17s0,.83-.26.85l-2.14.19c-.33,0-.39-.09-.45-.79s-.28-4.32-1.4-17.05l-2.68-30.7L142.91,147c-1,.32-1.49.71-1.68,1.2-.22.26-.34.5-.52.52s-.38-.56-.56-1.48c-.34-1.74-.61-3.83-1-6.5a8.45,8.45,0,0,0,3,.08l.61-.05c.88-4,1.66-7.91,2.38-12a188.74,188.74,0,0,0-8.42-17.73c-.34-.68-.36-.91-.1-2.23l.54-2.52c.23-1.08.28-1.08.61-.52l2.21,4.28q1.22-7,2-13.94a55.69,55.69,0,0,0,.51-7.58,18.62,18.62,0,0,1,2.72,2.59,2.68,2.68,0,0,1,.38,2.79,8.24,8.24,0,0,0-.62,2.52c-1,7-1.83,11.93-2.92,17.79,1.38,2.81,2.71,5.64,4.12,8.81.82-5.13,1.55-10.25,2.25-15.61.4-3,.58-5.22.69-7.7a18.81,18.81,0,0,1,2.78,2.69,2.39,2.39,0,0,1,.53,1.25,2.58,2.58,0,0,1-.28,1.56,26.67,26.67,0,0,0-1.13,5.39c-1.71,10.62-3.47,20.65-5.32,29.52a67.65,67.65,0,0,0,7.49-2c-.73-3-1.49-5.75-2.46-8.84-.26-.8-.28-1,.27-1.67Zm-5.79,31.68a25.12,25.12,0,0,0-.09,4.36c.2,6.57.21,13.75-.12,21.77,0,1.18-.13,1.78-.31,1.8s-.41-.32-.79-.88a5.5,5.5,0,0,0-1.7-1.73,185.25,185.25,0,0,0,.35-21.79c-.11-2.93-.23-4.81-.48-7.14a13.2,13.2,0,0,1,2.44,1,1.32,1.32,0,0,1,.8,1.1A5.08,5.08,0,0,1,146.08,158.47Zm9.12-4.91c.44-.39.54-.29.75.52,1.4,5.76,3.25,15.12,4.38,22.08.13.93.15,1.17-.41,1.8l-.94,1c-.64.76-.7.65-.84-.4-1-7-2.76-16.58-4.18-22.57-.23-.92-.2-1.16.32-1.68Zm15.93-54c.66-.06.93-.2,1.09-.45s.25-.37.39-.39c.33,0,.65.42,1.4,2a9.71,9.71,0,0,1,1,2.85,3,3,0,0,1-.27,1.67,9,9,0,0,0-.6,2.88,130.71,130.71,0,0,1-4,21.87,56.93,56.93,0,0,0,12.93,15.46,25.43,25.43,0,0,0-.77,4.65c-.22,2.26-.25,2.5-1.13,1.63a72.33,72.33,0,0,1-12.49-16.9,76.76,76.76,0,0,1-9,18.55c-.28.49-.5.75-.68.76s-.42-.43-.81-1.69a14.17,14.17,0,0,0-1.47-3.4,60.35,60.35,0,0,0,9.81-18.5,123,123,0,0,1-6.26-16.75,126.45,126.45,0,0,1-3,12.5c-.26.85-.35,1.33-.54,1.34s-.32-.44-.67-1.23a9.47,9.47,0,0,0-1.8-2.79c3.72-10.2,5.1-20.79,5.73-30.26.11-1.89.16-4.6.06-6.24a10.6,10.6,0,0,1,2.82,1.52,1.85,1.85,0,0,1,.58,1.24,3.48,3.48,0,0,1-.15,1.54,10.49,10.49,0,0,0-.57,3.11c-.16,2-.32,3.91-.53,5.81Zm-9.62,6.72-.27,1.79A101.32,101.32,0,0,0,168,125.85a116.2,116.2,0,0,0,3.49-20.42Zm19.89,84.25c-.24,1.55-.37,1.68-.79,1.25C175.5,185.54,169.46,180,164,176.67c-.35-.21-.38-.56-.19-2.1l.36-3c.2-1.43.29-1.43.69-1.23a82.84,82.84,0,0,1,16.74,15c.32.44.38.56.21,1.86Zm-15.12-41.61c.2-1,.33-1.09.64-.76A78,78,0,0,1,176.37,161c.38.67.4.9.14,2.22l-.6,2.76c-.35,1.44-.48,1.57-.82.89a73.7,73.7,0,0,0-9.29-13.18c-.31-.33-.34-.68-.08-2Z"/><path class="cls-3" d="M197.36,89.52c.55.42.69,1.47.58,2.89a40.88,40.88,0,0,0,0,4.59c.36,5.26.58,9.36,1,15a3.32,3.32,0,0,0,.66-1c.08-.24.21-.37.3-.38s.51.43,1,1.44a7.69,7.69,0,0,1,.83,2.52,7,7,0,0,1-.39,2.5c-.54,2.4-1,4.92-1.55,8.61.17,2.57.34,4.44.52,6.54,3.68-10.08,7.94-15.75,12.89-16.18,7-.62,12.17,11,13.52,26.57,1.26,14.36-1.34,29.29-9.29,36.34-.55.64-1,.33-1.42-.7a14.19,14.19,0,0,0-2.61-4c4.24-3.2,6.81-7.66,8.62-13.81a51,51,0,0,0,1.3-18c-1.08-12.37-4.82-20.16-9.58-19.74S205,128.26,201,140.14c1.25,14.83,2.61,29.3,4,44.58.06.7-.06.95-.28,1.09a14.07,14.07,0,0,1-2.46.45c-.28,0-.39-.21-.46-1-1.17-14.37-2.2-26.75-3.51-42.28-1.95,10-3.66,19.5-5.47,28.95-.21.84-.43,1-.75.53-.68-1.23-1.51-2.69-2.1-4.05a2.63,2.63,0,0,1-.12-1.87c2.59-10.81,5-22.31,7.42-35.12-.29-3.85-.51-7.48-.75-10.28a69.4,69.4,0,0,0-5.17,4.92c-.95,1-1.39,2.47-1.75,2.62s-.51-.42-.93-1.44c-.5-1.49-1.22-3.78-1.87-6.31a9,9,0,0,0,3-1.44c1.89-1.57,3.65-2.91,6.19-5.13-.31-4.56-.68-8.88-1.19-15.77a98.87,98.87,0,0,0-1.27-10.24A8.61,8.61,0,0,1,197.36,89.52Z"/><path class="cls-3" d="M240.75,129.37c4.7-4.3,8.43-7.45,12-7.76,5.79-.51,10.5,8.14,11.71,21.91,1,11.21-.35,18.62-4.05,24.71a22.94,22.94,0,0,1-9,8.67c-.5.28-.72-.06-1-1.09a20,20,0,0,0-2.2-4.75,21.82,21.82,0,0,0,10-8.64c2.68-4.23,3.83-10,3-19.08-.91-10.39-4.11-15.29-8.27-14.93-3.45.31-8.15,4.72-13,10.55a14,14,0,0,0-1.94,3.11c-.28.49-.56,1.11-.79,1.13s-.6-.42-1-1.21a76.09,76.09,0,0,1-2.36-7.56C235.76,133.69,237.3,132.49,240.75,129.37Z"/><path class="cls-3" d="M292.6,98.72c.35-.27.51,0,.63.76.22,1.4.49,3.37.65,4.77.15,1.16.09,1.52-.31,1.79a44,44,0,0,1-8,5.53c-.73,23.94-1.8,44.5-3.46,63.71-.1,1.06-.28,1.08-.64.76a28.86,28.86,0,0,1-2.42-2.38,2.24,2.24,0,0,1-.32-1.5c2.08-20.89,3.15-39.33,3.63-59a43.15,43.15,0,0,1-9.31,2.23c-.56,0-.66-.06-.85-1.1-.23-1.63-.59-4.07-.93-6.39a10.93,10.93,0,0,0,3,0,30.63,30.63,0,0,0,8.28-2.13c.12-6.25.12-10.48.07-14.83-.05-3.29-.15-7.16-.58-11a12.82,12.82,0,0,1,4,2.36,1.89,1.89,0,0,1,.48,1.25,6,6,0,0,1-.21,1.9,21.7,21.7,0,0,0-.35,4.62c-.14,4.84-.14,9.66-.27,14.14A34.09,34.09,0,0,0,292.6,98.72Zm2.34,53.67c.38,0,.49.19.62,1.12,1.25,10.48,4.17,13.75,10.05,13.24a21.48,21.48,0,0,0,6.78-2.13c.36-.15.5-.16.63.77.22,1.39.53,4,.68,5.59.1,1.17,0,1.41-.38,1.56a17.92,17.92,0,0,1-6,1.7c-5,.45-8.31-.91-10.83-5.52-1.94-3.36-3-8.56-3.67-15.56A6.28,6.28,0,0,1,294.94,152.39Zm-1.45-30.11c-.1-1,0-1.41.45-1.8a16.81,16.81,0,0,1,8-3.17,19.93,19.93,0,0,1,5.89.66c.58.19.7.53.81,1.23.15,1.16.41,3.61.5,5.13s0,1.77-.48,1.57a16,16,0,0,0-6.08-.76,18.42,18.42,0,0,0-8.37,3.32C293.9,126.48,293.61,123.68,293.49,122.28Z"/><path class="cls-3" d="M323.19,105.8a3.32,3.32,0,0,1,.54,2.9,33.2,33.2,0,0,0-.22,5.54c.09,8,.44,19,1,26.86,3.68-14.32,8.85-21.95,14.45-22.44,6.35-.56,10.84,8.22,12,21.42,1,11.79-.92,19.6-4.83,25.48a22.12,22.12,0,0,1-10.67,8.69c-.72.3-1,.32-1.3-.94a22.53,22.53,0,0,0-2.61-5.54,21.76,21.76,0,0,0,12.07-8.35c3.28-4.52,4.67-11.23,3.92-19.75-.72-8.29-3.39-14.52-8.34-14.09-4.43.39-8.91,7.84-12.27,19.42a41.77,41.77,0,0,0-1.45,7.07c-.16,1-.3,1-.7.65a18.2,18.2,0,0,1-2.1-1.93c-.31-.33-.42-.55-.52-1.61-1-13.08-1.45-25.28-1.85-36.77-.11-3.4-.19-6.45-.47-9.72A15.18,15.18,0,0,1,323.19,105.8ZM323,77.24c.15-.48.27-.73.63-.41a42.61,42.61,0,0,1,9.71,12.56,1.94,1.94,0,0,1,.23,1.63,50.35,50.35,0,0,1-1.1,5.15c-.17.72-.4.74-.75.07a50.73,50.73,0,0,0-9.88-13.49A49.74,49.74,0,0,1,323,77.24Z"/><path class="cls-3" d="M368.54,88.43c-.44-5-.87-8.28-1.33-11a9.39,9.39,0,0,1,3.89,1.43,2.33,2.33,0,0,1,.71,1.7,6.54,6.54,0,0,1-.1,1.54,28.2,28.2,0,0,0,0,6c.18,3.16.42,6.43.7,10.17a29.34,29.34,0,0,0,6.44-5.5c.34-.38.54-.28.67.76.24,1.63.48,3.26.62,4.89.09,1,0,1.18-.38,1.56a28.6,28.6,0,0,1-6.87,5.43c.57,7.59,1.25,15.3,2,23,4-5.76,7.53-9.6,11.41-9.94,5.74-.5,9.93,8.07,11,19.86,1.24,14.13-1.95,21.82-7.83,22.33a5.83,5.83,0,0,1-3.86-1.07c-.5-.31-.71-1.12-.92-3a34.28,34.28,0,0,0-1.22-5.3,6.3,6.3,0,0,0,5.21,2c3.74-.33,6.18-5.24,5.33-14.93-.74-8.53-3.52-13.93-7.68-13.57-2.75.24-6.18,3.6-10.77,10.83.37,4.2,1,10.61,1.8,17.84.57,5.48,1.09,9.2,1.25,11.06.14,1.64.16,2.34-.28,2.73a4.94,4.94,0,0,1-1.89,1c-.42,0-.76-1.11-2.14-4a71.92,71.92,0,0,0-7.92-12.49c-.6,1.11-1,2-1.36,2.71-.19.49-.35.85-.58.87s-.51-.42-.81-1.22c-.56-1.48-1.3-4-2.08-7a17.8,17.8,0,0,0,4.18-4.48c1.84-2.64,4.17-6.61,6.66-10.94-.77-8.28-1.53-16.92-2.23-25a26.4,26.4,0,0,1-8.43,2c-.61.06-.85-.51-1-1.67-.27-1.39-.52-3.25-.76-5.46a24.3,24.3,0,0,0,9.63-1.79C369.13,95.67,368.89,92.39,368.54,88.43Zm-.79,60.29c2.52,3.08,4.33,5.39,6.52,7.9.37.44.49.19.4-.86-.54-5-1-10.14-1.73-16.55C371.05,142.43,369.69,145.14,367.75,148.72Zm17.88-58.61c.11-.84.23-1.08.57-1,3.8,1.55,7.47,5.23,10.32,11.45a2.16,2.16,0,0,1,.13,1.52,47.62,47.62,0,0,1-1.08,4.92c-.18.6-.37.5-.6,0-3.05-6.32-6.23-10.39-10-11.94C385.11,93.33,385.35,91.78,385.63,90.11Z"/><path class="cls-3" d="M410.69,73.8a1.94,1.94,0,0,1,.9,1.68,19.46,19.46,0,0,1-.11,3.07c-.06,1.42.07,5,.5,12.07,1.12,17.67,2.24,33.69,3.65,49.8,1.14,13.07,2.94,16.91,7,16.56,5.93-.52,11.21-10,14.86-23.77a61.71,61.71,0,0,0,1.38,6.7,12.24,12.24,0,0,1,.33,1.62,4.87,4.87,0,0,1-.36,2.27C435,156,429.44,164.38,422.76,165c-5.27.46-8.67-5.6-10.18-22.76-1.45-16.58-2.69-35.64-3.9-52.12a161.19,161.19,0,0,0-1.91-17.6A9.28,9.28,0,0,1,410.69,73.8Z"/><path class="cls-3" d="M455.07,98.62a64.09,64.09,0,0,0,8.32-5,4.32,4.32,0,0,0,1.32-1.52c.16-.37.29-.5.52-.52s.3.21.57.54a29.61,29.61,0,0,1,2.05,3.58,5.56,5.56,0,0,1,.48,1.73,3.1,3.1,0,0,1-.35,1.91,13.56,13.56,0,0,0-1.37,3.18c-2.61,8.81-5,17.61-7.59,26.66.84-1.13,1.58-1.79,2.61-1.88,2.43-.21,4.7,4.18,6.08,12.53,1.85,10.9,2.89,12.57,7.94,12.13a16.87,16.87,0,0,0,6.75-2.36c.36-.26.53.07.66,1.12.22,1.39.52,3.72.69,5.7.07.82-.08,1.19-.49,1.34a17.21,17.21,0,0,1-6.55,2.1c-6.72.59-9.1-3-11.06-14.56-1.38-8.23-2.56-12.59-4.71-12.41-1.49.13-3.26,2.52-4.68,7.24-1.88,5.92-3.92,14.34-5.48,20.71-.15.48-.42.62-.74.18-.77-1.23-1.55-2.69-2.18-3.93a3.31,3.31,0,0,1-.09-2.11c2.69-9,5.3-18,6.93-23.54,2.27-8,4.88-17.84,8.38-30.61-4.77,3-8.52,5.33-12.31,7.78a9.49,9.49,0,0,0-1.77,1.8c-.38.5-.51.63-.79.66s-.46-.43-.73-1.35c-.54-1.83-1.26-4.71-1.92-8C448.69,101.53,450.88,100.75,455.07,98.62Zm9.19-25.16c.44.2.52.55.52,1.72,0,1.77-.11,4.13-.23,5.43,0,.59-.24,1-.53.87A48.17,48.17,0,0,1,451.32,73a1.85,1.85,0,0,1-.41-1.5c0-1.76.21-4,.38-6.38A53.74,53.74,0,0,0,464.26,73.46Z"/><path class="cls-3" d="M507.62,81.31c-6.76,3.42-12.61,6.4-18.23,10a7,7,0,0,0-2.63,2.23c-.3.38-.53.87-.82.9s-.55-.43-.74-1c-.67-2.29-1.34-5.06-2-8.17,1.68-.15,2.86-.6,5.66-1.91,6.72-3.41,15.89-7.74,28.07-12.69.45-.16.72.17.87.87.28,1.5.66,4.29.79,5.81.1,1,0,1.29-.48,1.45a10.58,10.58,0,0,0-6.51,4.1c-6.23,7.37-10.2,22.19-8.83,37.83,1.69,19.38,9,24.51,15.91,25.31.61.06.77.28.85,1.22.12,1.28.21,4,.21,5.63,0,1.29-.08,1.77-.6,1.7-8-1.06-17.28-8.73-19.34-32.31-1.44-16.46,1.44-30.35,7.92-40.69Z"/><path class="cls-3" d="M537.3,112.83a16.58,16.58,0,0,0-6.21,1.72c-.42,0-.69-.41-.93-1.56-.36-2-.88-5.69-1.25-8.84,2.93.69,6.54.49,10.42.15l14.33-1.25c3.22-.28,6.67-.7,10.2-1.25.55-.16.71.06.82,1.34.2,1.75.42,4.2.53,6.07.11,1.29,0,1.53-.58,1.47-3.52.07-7,.37-10.1.64Z"/></g><rect class="cls-4" width="1000" height="265"/></g></g></svg>