<svg xmlns="http://www.w3.org/2000/svg" viewBox="0 0 1000 265"><defs><style>.cls-1{isolation:isolate;}.cls-2{mix-blend-mode:soft-light;}.cls-3{fill:red;}.cls-4{fill:none;opacity:0.19;}</style></defs><title>アートボード 365</title><g class="cls-1"><g id="CHARACTER"><g class="cls-2"><path class="cls-3" d="M40.56,152.36c.07.82,0,.94-.29,1a60.55,60.55,0,0,0-6.18.3L7.05,156a61.33,61.33,0,0,0-6.15.77c-.32,0-.38-.08-.45-.9L0,151.08c-.07-.81,0-.93.29-1a59.47,59.47,0,0,0,6.19-.31l11.86-1-1.12-12.72-7.79.68c-4.77.42-6.38.8-6.61.82s-.34-.09-.41-.91L2,131.85c-.07-.81,0-.93.24-1s1.89.07,6.65-.34l7.8-.69c-.63-7.24-.91-9.92-1.51-13.51a20,20,0,0,1,3.23.31c.29.09.55.42.6,1a17.23,17.23,0,0,1-.05,2.12c0,1.42.05,3.76.58,9.83l8.13-.71c4.76-.41,6.33-.79,6.61-.81s.33.09.41.9l.41,4.79c.08.82,0,.94-.24,1s-1.89-.07-6.65.35l-8.13.71,1.12,12.73,12.32-1.08a58.8,58.8,0,0,0,6.15-.78c.32,0,.38.09.45.91Zm2.78,25.87c.07.82,0,.94-.29,1a59.23,59.23,0,0,0-6.14.3L24,180.63l1.15,13.19,9.39-.82a62.71,62.71,0,0,0,6.51-.81c.33,0,.39.09.46.91l.42,4.78c.07.82,0,.94-.3,1a62.68,62.68,0,0,0-6.55.34l-9.39.82.74,8.4c.72,8.29,1.11,11.67,1.16,12.25.07.82,0,.82-.3.85l-2.29.2c-.37,0-.42,0-.49-.78s-.25-4-1-12.26l-.73-8.41-9,.79c-4.76.41-6.24.78-6.52.8s-.38-.08-.45-.9l-.42-4.79c-.07-.81,0-.93.29-1s1.8.08,6.56-.34l9-.79-1.15-13.19L9,181.94a57,57,0,0,0-6.1.77c-.33,0-.39-.08-.46-.9L2.06,177c-.07-.82,0-.94.3-1s1.75.08,6.13-.31l17.8-1.55c.78-3.95,1.49-8.25,2-12.41.18-1.66.31-3.44.33-5.32a16.54,16.54,0,0,1,2.9,1.86,1.4,1.4,0,0,1,.52,1.13,3.25,3.25,0,0,1-.34,1.56,16,16,0,0,0-.68,3c-.41,2.74-1,6.44-1.72,9.92l7.1-.63c4.39-.38,5.82-.74,6.1-.76s.38.08.45.9Zm-31.68-20c.38-.5.49-.39.72.18a100.35,100.35,0,0,1,3.92,12c.23.93.15,1.17-.23,1.67l-1.23,1.52c-.55.64-.64.76-.86-.16a98.16,98.16,0,0,0-3.84-12.13c-.3-.8-.23-1,.24-1.55Z"/><path class="cls-3" d="M72.82,125.78a88.5,88.5,0,0,0-1.27-9.66,10.79,10.79,0,0,1,3.8,1.44c.5.31.67.64.74,1.46a6.84,6.84,0,0,1-.12,1.89,22.64,22.64,0,0,0,0,4.24c.56,7,1.06,13.2,1.56,20A80.8,80.8,0,0,1,87,142.77c.38,0,.49.19.57,1.13.19,1.63.36,3.61.45,5.13.09,1.05,0,1.41-.34,1.44A48.76,48.76,0,0,0,78,152.38c.52,7.6,1,14.85,1.12,19.31.28,8.56-1.12,11.86-3.88,12.1a9.08,9.08,0,0,1-3.57-.51c-.44-.19-.59-.77-.75-2.05a55.52,55.52,0,0,0-1.32-6.47,8.12,8.12,0,0,0,4.7,1.47c1.4-.12,1.84-2,1.66-6.85-.16-4.46-.51-10.66-1-16.15a92.38,92.38,0,0,0-13,5.14c1,12.38,1.9,23.36,2.71,30,1.18,9.66,2.62,12.12,9.48,11.52a32.9,32.9,0,0,0,11.12-3.09c.55-.16.71.06.84,1,.22,1.51.51,4.19.62,5.47s0,1.53-.28,1.67a38.32,38.32,0,0,1-11.16,2.63c-9,.78-11.65-3.57-13.43-17.53-.69-5.12-1.8-17.84-2.88-30.22a51.4,51.4,0,0,0-6.38,3.5,11.39,11.39,0,0,0-2,1.71c-.44.39-.74.18-1-.86-.44-1.84-1-4.49-1.47-7.16a10.34,10.34,0,0,0,3.39-1c2.4-1,4.64-2.41,6.84-3.54-.35-4.56-.73-8.88-1.1-13.2a96.18,96.18,0,0,0-1.57-11.39,9.19,9.19,0,0,1,3.83,1.2,2.34,2.34,0,0,1,.8,1.69,22.88,22.88,0,0,1-.06,2.48,40.36,40.36,0,0,0,.12,5.16c.32,4.8.64,8.41,1,12.74,3.91-1.64,8.91-3.61,13.11-5C74,139,73.36,132,72.82,125.78Z"/><path class="cls-3" d="M115.44,131c.88,19.8.2,39.39-1.7,51.55-1.26,8.7-3.06,12.39-5.81,12.63-3.51.31-7.66-9-9.14-25.9-.94-10.75,0-22.36,2.77-30.71s7-13.67,12.88-14.19c10.46-.91,18,13.84,20,36.13,1.66,19-1.72,34.74-11.29,42-.53.4-.88.2-1.33-1.17a14.17,14.17,0,0,0-2.2-4.16c8.85-5.36,13.08-18.32,11.38-37.82-1.51-17.28-8-29.06-14.63-28.48ZM104,143.28c-2.45,8-3,17.67-2.27,25.61,1.11,12.72,3.69,18,5.37,17.88s2.77-2.83,3.6-8.9c1.46-10.72,2.35-29,1.47-46.13C108.67,133.23,105.8,137.48,104,143.28Z"/><path class="cls-3" d="M154.36,143.46c.43-.5.47-.51.73.29,2,6.41,3.66,12.74,5.17,19.31.18.93.21,1.28-.36,1.8l-.92.79c-.62.4-.72.29-.9-.63l-1.29-5.65-4.15,1.54,2.74,31.28c1.11,12.73,1.53,16.46,1.58,17,.07.82,0,.82-.3.85l-2.1.18c-.33,0-.37,0-.45-.78s-.28-4.33-1.39-17L150,161.84c-1.51.48-3,.85-4.41,1.21-1,.32-1.5.6-1.74,1.09-.12.25-.29.5-.47.51s-.43-.55-.6-1.47c-.34-1.74-.69-4.06-1-6.39a13.72,13.72,0,0,0,3,.1l.42,0c.9-4.2,1.67-8.26,2.4-12.33a161.32,161.32,0,0,0-8.25-17.39c-.34-.68-.3-.8,0-2.11l.53-2.52c.23-1.08.33-1.09.66-.53l2.21,4.28c.81-4.66,1.45-9.19,2-14.06a72.06,72.06,0,0,0,.52-7.46,15.6,15.6,0,0,1,2.72,2.59,2.54,2.54,0,0,1,.64,1.36,2.16,2.16,0,0,1-.31,1.32,8.18,8.18,0,0,0-.58,2.52c-1,7-1.82,12-2.95,17.9,1.26,2.6,2.53,5.31,3.87,8.25.73-4.54,1.35-8.82,1.92-13a87.81,87.81,0,0,0,1-9.85,19.37,19.37,0,0,1,2.73,2.7,2.43,2.43,0,0,1,.63,1.36,3.32,3.32,0,0,1-.37,1.68c-.39.85-.56,2.16-1,5.26-1.66,10.62-3.46,20.66-5.32,29.52a68.51,68.51,0,0,0,7.39-2c-.71-2.76-1.52-5.52-2.36-8.15a1.42,1.42,0,0,1,.33-1.67Zm-6,30.64a25.77,25.77,0,0,0,0,3.77,226.16,226.16,0,0,1,0,22.7c-.08,1.3-.12,1.89-.31,1.91s-.35-.32-.73-.88a5.48,5.48,0,0,0-1.76-1.84,163,163,0,0,0,.2-23c-.11-2.34-.22-3.62-.47-6a11.39,11.39,0,0,1,2.42.85c.55.31.66.53.7,1A4.79,4.79,0,0,1,148.34,174.1Zm8.73-4.52c.48-.4.59-.29.8.52,1.41,5.87,3.12,15.25,4.19,22.1.14,1,.1,1.16-.42,1.68l-.91.9c-.61.53-.71.42-.85-.63-1-7.32-2.65-16.23-4-22.35-.17-.93-.15-1.16.38-1.56Zm9.82,20.78c.44,5,.79,6.87,2.77,8,1.53.81,3.5.76,6,.54,3.31-.29,6.43-.68,7.75-3.39,1.24-2.46.8-7.48.15-17.07a10.08,10.08,0,0,0,2,2.3c.95.62,1,.73,1.11,3.07.56,9,.52,14-.81,17-1.57,3.55-4.91,4.2-9.34,4.59-3.78.33-6.23.31-8.29-1.16s-3.25-4.89-3.92-12.48l-3.86-44.13c-.58-6.65-.87-8.86-.92-9.45l-.78,2.31c-.27.73-.46,1.21-.6,1.23s-.42-.44-.77-1.23a7.23,7.23,0,0,0-1.56-2.22A116.8,116.8,0,0,0,162,110.92a54.58,54.58,0,0,0,.36-7.68,20.41,20.41,0,0,1,2.89,1.86,1.59,1.59,0,0,1,.57,1.13,3.6,3.6,0,0,1-.32,1.67,22.72,22.72,0,0,0-.74,4.54l-.28,2.14,6.4-.56a1.32,1.32,0,0,0,.94-.55c.13-.13.25-.38.39-.39s.53.19,1.48,1.87a6.82,6.82,0,0,1,1,2.5,3.72,3.72,0,0,1-.36,1.8,13.58,13.58,0,0,0-.57,2.63c-.66,4.88-1.63,10.38-2.5,14.46l2.89-.26a56.8,56.8,0,0,0,5.82-.74c.33,0,.38.08.46.9,0,.58.15,2.81.74,9.58l1,11.33c.58,6.65.88,9,.93,9.56.07.82,0,.94-.29,1A53.64,53.64,0,0,0,177,168L165,169Zm-3.3-69.94a135.22,135.22,0,0,1-3.72,16.68c.28,0,1.75.08,5.82-.27l2.66-.24c1.13-5.86,2.16-11.36,2.81-16.83Zm5.55,22-6.4.56,1.77,20.19,6.4-.56Zm9.1-.8-6.58.58,1.77,20.19,6.58-.57Z"/><path class="cls-3" d="M200.14,114.4c.08.82,0,.94-.29,1a35.18,35.18,0,0,0-4.69.17l-.23,0,4.91,56.16c.53,6.07,1.12,11.66,1.47,15.75.46,5.25.37,7.38-.44,9.45-.73,1.83-1.62,2.49-5.64,2.73-.94.08-1,.09-1.41-2.11a29.23,29.23,0,0,0-1.41-5.29,13,13,0,0,0,4,.12c1.91-.17,2.34-1.15,1.93-5.93l-6.18-70.63-1.87.16a34.86,34.86,0,0,0-4.65.64c-.33,0-.38-.08-.46-.9l-.43-4.9c-.08-.93,0-1,.29-1.08a34.5,34.5,0,0,0,4.69-.18l4.9-.43a34.57,34.57,0,0,0,4.65-.64c.33,0,.38.08.46,1Zm26.23-5.23c.07.81,0,.94-.3,1s-1.79-.07-6.37.33l-4.81.42c-.18,4.37-.44,8.39-.8,11.83l4.53-.4a53.3,53.3,0,0,0,5.77-.74c.33,0,.39.09.46.91.05.58.26,4.09,1.1,13.66L228.56,166c.83,9.45,1.24,13.06,1.3,13.77s0,.93-.29,1-1.7-.08-5.81.27l-8.27.73a54.14,54.14,0,0,0-5.72.73c-.33,0-.38-.08-.45-.9s-.29-4.33-1.12-13.78l-2.61-29.89c-.84-9.57-1.24-13.06-1.29-13.65-.07-.81,0-.94.29-1a52.32,52.32,0,0,0,5.77-.27l.93-.08c.36-3.92.63-7.82.75-11.83l-4.06.35a59.57,59.57,0,0,0-6.28.79c-.38,0-.43-.08-.5-.9l-.42-4.79c-.07-.81,0-.93.34-1a61.34,61.34,0,0,0,6.32-.32l11.72-1c4.58-.4,6.05-.77,6.33-.79s.38.08.46.9Zm-9.27,81.27a5.86,5.86,0,0,0-1,1.85,37.53,37.53,0,0,1-7.91,12.81c-.3.38-.47.51-.61.52s-.42-.43-.86-1.69a16.09,16.09,0,0,0-1.72-3.61,27.44,27.44,0,0,0,8.45-12,24.57,24.57,0,0,0,.94-3.73,25.69,25.69,0,0,1,2.5,3.31,2.64,2.64,0,0,1,.5,1.37A1.54,1.54,0,0,1,217.1,190.44Zm5.39-62.58-15,1.31,1,11.67,15-1.31ZM224,145.25l-15,1.31,1,11.68,15-1.31Zm1.51,17.28-15,1.31,1.07,12.26,15-1.31Zm-1.31,22.11c.31-.73.44-.86.72-.3,3.37,6.18,7.27,10.43,10.38,12.62a20.85,20.85,0,0,0-1.08,4.33c-.14,1.07-.24,1.55-.48,1.57s-.34-.2-.7-.52a58.21,58.21,0,0,1-9.81-13.73c-.35-.68-.4-.79.07-1.89Z"/><path class="cls-3" d="M254.9,118c.07.82,0,.94-.29,1s-1.14,0-3.57.08l4.29,49a25,25,0,0,0,3.48-.54c.32,0,.38.08.45.9l.4,4.55c.07.82,0,.94-.29,1a53.36,53.36,0,0,0-5.9.28l-9.58.84a53.77,53.77,0,0,0-5.91.75c-.32,0-.38-.08-.45-.9l-.4-4.55c-.07-.82,0-.94.29-1a36.13,36.13,0,0,0,4.55-.16l-4.29-49c-2.65.34-3.67.55-3.86.57-.37,0-.43-.08-.5-.9l-.39-4.55c-.08-.82,0-.94.33-1a28,28,0,0,0,3.9-.11l-.23-2.68c-.62-7-1-10.86-1.54-13.75a8.13,8.13,0,0,1,3,.33A.89.89,0,0,1,239,99a12.07,12.07,0,0,1-.09,2.24c0,.94.1,3.75.64,9.94l.24,2.8,8.18-.71-.27-3c-.6-6.88-1-10.73-1.53-13.74a11,11,0,0,1,2.92.56,1,1,0,0,1,.59.89,11.2,11.2,0,0,1,0,2.24c0,1.06.1,3.76.65,10.06l.24,2.8a21.69,21.69,0,0,0,3.53-.54c.33,0,.39.08.46.9Zm-7.63,65a11.33,11.33,0,0,0-.75,2.77,79.36,79.36,0,0,1-4.86,15.36c-.28.62-.45.87-.59.88s-.41-.44-.78-1.46a12.06,12.06,0,0,0-1.6-3.16,49.37,49.37,0,0,0,5.16-14.8,31.54,31.54,0,0,0,.63-4.53,14.6,14.6,0,0,1,2.53,2.49,2,2,0,0,1,.53,1.25A1.71,1.71,0,0,1,247.27,183Zm1.2-63.75-8.17.72,1.09,12.49,8.17-.72Zm1.58,18.1-8.17.71,1.1,12.61,8.17-.72Zm1.58,18.09-8.17.72L244.59,169l8.17-.72Zm1,22.38c.32-.61.42-.62.65-.06a54,54,0,0,0,5.05,10.38,16.56,16.56,0,0,0-1.16,3.4c-.21.84-.27,1.2-.41,1.21s-.31-.32-.64-.88a69.32,69.32,0,0,1-4.58-10.42c-.31-.8-.38-1,.08-1.78Zm24-6.46c.47,5.37,1,10.74,1.47,15.64.33,3.85.2,6.57-.5,8.28-.88,1.84-2,2.52-5.17,2.8-.93.08-1,.09-1.42-2.23a28.3,28.3,0,0,0-1.32-4.94,22.26,22.26,0,0,0,4,0c1.35-.11,1.78-1.68,1.47-5.18l-2.3-26.27-9.57.84c1,18.62.2,28.1-1.64,38.26-.15,1-.25,1.43-.44,1.44s-.31-.32-.7-1a9.28,9.28,0,0,0-2.06-2.64c3.19-14.64,3.38-25.36.39-59.56l-1.55-17.63c-1.06-12.14-1.64-17.74-1.7-18.44s0-.93.29-1a33.82,33.82,0,0,0,4.6-.17l4.9-.43a34.46,34.46,0,0,0,4.6-.64c.33,0,.39.09.46.9s.45,6.32,1.52,18.46Zm-8.5-66.07-9.25.81,1.82,20.78,9.24-.81Zm2.35,27-9.24.81.32,3.62c.57,6.54,1,12.26,1.33,17.41l9.43-.83Z"/><path class="cls-3" d="M288.48,106a3,3,0,0,1,.82,1.81,6.23,6.23,0,0,1-.16,2,36.88,36.88,0,0,0-.39,6.27c-.1,13.89.36,29.38,1.33,40.47.75,8.52,1.43,14.22,2.46,20,.55-6.64,1.09-11.74,1.73-20,.49,1.84,1,3.21,1.53,4.58a3.38,3.38,0,0,1,.33,1.14,8.57,8.57,0,0,1-.07,1.89c-.5,6-1,11.85-1.36,18.82a15.9,15.9,0,0,0,.07,2.94c.09,1.05.24,1.74.31,2.56,0,.47,0,.94-.23,1.08a6.36,6.36,0,0,1-2,1.35c-.23,0-.46-.43-.62-1.12-2-7.71-4.06-22.23-5.06-33.67-1.09-12.49-1.45-26.23-1.57-40-.07-5.64-.13-9-.48-13A15.93,15.93,0,0,1,288.48,106Zm9.89,11.37c-.09-1,0-1.41.42-1.69a32.84,32.84,0,0,1,9.71-3,30.29,30.29,0,0,1,6.68,0c.62.06.72.17.81,1.11.16,1.86.32,3.73.43,5.49.08.93,0,1.17-.42,1.09a35.16,35.16,0,0,0-7.57.08,25.63,25.63,0,0,0-9.55,3.3C298.61,120.61,298.44,118.74,298.37,117.34ZM303,160.69c.22-.14.35.21.43,1.14.91,8.86,4.11,12.58,9.62,12.1a29.45,29.45,0,0,0,9.06-2.44c.36-.15.46,0,.61,1.12.17,1.4.48,3.84.62,5.47.09,1.06.1,1.17-.48,1.46a28.88,28.88,0,0,1-8.25,2c-5.23.46-8.38-1.14-10.92-6.45-1.65-3.27-2.62-7.89-3.17-13.72Z"/><path class="cls-3" d="M368.6,140.84l-41.09,3.59-.44-5,41.1-3.6Z"/><path class="cls-3" d="M415.3,136.75l-41.09,3.6-.44-5,41.09-3.59Z"/><path class="cls-3" d="M443.46,129.93a98.79,98.79,0,0,0-17.58,14.72c-.78.77-1.13,1.62-1.41,1.65s-.47-.55-.73-1.35c-.45-1.37-1-3.44-1.65-6a5.88,5.88,0,0,0,1.74-1.57,28.23,28.23,0,0,0,4.53-8.51c3.83-10,7.47-20.53,12.34-36.37-3.82,2-7.6,4-11.14,6-.62.41-1.15.81-1.6,1.09s-.9,1-1.27,1-.53-.66-.86-1.69-1-3.91-1.7-7.15a9.58,9.58,0,0,0,4.12-.24,106.08,106.08,0,0,0,11.86-5.27,3.31,3.31,0,0,0,1.65-1.67c.23-.5.45-.75.63-.77s.49.2.88.87a26.67,26.67,0,0,1,2.05,4,7.54,7.54,0,0,1,.57,2.19,3.17,3.17,0,0,1-.44,2A10.68,10.68,0,0,0,444,95.89c-4.91,14.31-9.3,26-13.87,37.21l.17.34a94,94,0,0,1,24.42-16.14c.45-.16.66.06.82.87.26,1.27.6,3.59.85,5.93.13.92,0,1.17-.6,1.22a16.21,16.21,0,0,0-8.14,4.83c-5,5.26-8.19,14.48-7.26,25.11,1.18,13.42,7.66,16.5,14,16.06.37,0,.54.31.63,1.36.1,1.64.19,4.22.21,5.63.06,1.17-.05,1.53-.56,1.58a15.21,15.21,0,0,1-2.94-.22c-7.49-1.22-12.86-8.28-14.11-22.52-.79-9,.55-19.58,5.83-27Z"/><path class="cls-3" d="M483.18,98.81c.88,19.81.2,39.39-1.7,51.56-1.27,8.7-3.06,12.38-5.82,12.62-3.5.31-7.65-9-9.13-25.9-.94-10.74,0-22.35,2.77-30.71s7-13.67,12.87-14.18c10.46-.92,18,13.83,20,36.13,1.67,19-1.71,34.73-11.28,42-.53.4-.88.19-1.33-1.18a14.29,14.29,0,0,0-2.2-4.16c8.85-5.36,13.08-18.32,11.38-37.81-1.52-17.28-8-29.07-14.64-28.48Zm-11.4,12.29c-2.45,8-3,17.67-2.27,25.61,1.11,12.73,3.69,18,5.37,17.88s2.77-2.83,3.6-8.9c1.46-10.71,2.35-29,1.47-46.12C476.41,101.05,473.53,105.3,471.78,111.1Z"/><path class="cls-3" d="M553.62,170.88c-.18,1.19-.28,1.67-.47,1.69s-.39-.21-.77-.76c-12.08-16-19.22-39.49-23-62.8.61,29.47-3.87,51.51-12.17,65.76-.29.5-.44.86-.63.88s-.38-.56-.81-1.7a19.29,19.29,0,0,0-2.09-4c11.19-16.15,15-47.3,11.84-80.79-.6-6.42-.95-9.8-1.54-13.86a12.19,12.19,0,0,1,3.59.62,1.58,1.58,0,0,1,.77,1.35,13,13,0,0,1-.07,2.36,40.6,40.6,0,0,0,.15,6.57c.18,2.1.36,4.09.48,6.08,4.62,31.24,12.19,57.51,25.93,73.72A20.55,20.55,0,0,0,553.62,170.88Z"/><path class="cls-3" d="M601.27,163.18c.07.82,0,.94-.29,1a57,57,0,0,0-6.19.3l-27.22,2.38a58.8,58.8,0,0,0-6.15.78c-.32,0-.38-.09-.45-.9l-.47-5.37c-.07-.82,0-.94.29-1a59.47,59.47,0,0,0,6.19-.31L579.07,159l-2.3-26.27-5.74.5a62.72,62.72,0,0,0-6.52.81c-.33,0-.38-.09-.45-.9l-.46-5.26c-.07-.82,0-.94.29-1a64.11,64.11,0,0,0,6.56-.33l5.74-.51-2.11-24.16-11,1a144.86,144.86,0,0,1-3.17,19.22c-.17.72-.23,1.08-.42,1.09s-.36-.32-.8-1.1a8.09,8.09,0,0,0-1.9-2.31c2.84-11.07,4.17-22.83,4.68-36.28a50.29,50.29,0,0,0-.07-6.7,14.5,14.5,0,0,1,3,1.73,1.47,1.47,0,0,1,.67,1.24,4.19,4.19,0,0,1-.23,1.66,18.51,18.51,0,0,0-.42,3.8c-.24,3.67-.43,7.45-.73,11l9.8-.86-.84-9.69c-.73-8.29-1-11.43-1.78-16a20.18,20.18,0,0,1,3.32.3,1.14,1.14,0,0,1,.66,1c0,.58,0,1.18-.05,2.12,0,1.3.08,4.23.77,12l.87,9.92,8.63-.75a62.72,62.72,0,0,0,6.52-.81c.33,0,.39.09.46.9l.45,5.14c.07.82,0,.94-.3,1a62.68,62.68,0,0,0-6.55.34l-8.64.75,2.11,24.17,6.49-.57a63.62,63.62,0,0,0,6.52-.81c.33,0,.38.09.46.9l.45,5.26c.08.82,0,.94-.29,1s-1.84-.07-6.56.34l-6.49.57,2.3,26.27,12.19-1.07a60.15,60.15,0,0,0,6.14-.77c.33,0,.39.08.46.9Z"/><path class="cls-3" d="M628.7,143.25c.08.94,0,1.29-.39,1.45a5.57,5.57,0,0,1-2,.64c-.28,0-.47-.55-.54-1.36-.45-5.14-.95-10.86-1.43-16.82-4.57,6.87-6.57,13.05-6,20.05s3.42,9.47,8.83,9a34.9,34.9,0,0,0,10.91-3.31c.23-.13.42,0,.59.78.29,1.74.64,4.06.78,5.69.09,1-.06,1.54-.23,1.67a38.09,38.09,0,0,1-11.39,2.64c-6.54.58-11.16-3.26-12.25-15.75-.86-9.8,1-18,7.94-28.1-.79-7.93-2.14-11-4.88-10.63-2,.29-4.41,3.44-6.83,10.12-1.34,4.12-2.19,7.25-3.45,11.72-.21.84-.39.86-.68.29a45.4,45.4,0,0,1-2-4.41,2.21,2.21,0,0,1-.05-1.64,169.22,169.22,0,0,0,8-33.4,35.9,35.9,0,0,1-8.66,1c-.38,0-.5-.31-.62-1.12-.21-1.39-.58-3.95-.79-5.81a37.8,37.8,0,0,0,10.82-1.07c.26-3.55.58-7.46.66-11.82a42.45,42.45,0,0,0-.17-6.34A10.35,10.35,0,0,1,618.62,69a2.76,2.76,0,0,1,.32,2.56,17.74,17.74,0,0,0-.55,3.34c-.31,3-.51,5.45-.82,9a42,42,0,0,0,9.52-4.72c.35-.26.45-.27.6.42.24,1.63.52,3.25.73,5.11.07.82,0,1.18-.48,1.46A71.48,71.48,0,0,1,616.88,91a152.19,152.19,0,0,1-3.24,17.81l.07.23c1.65-3.68,3.57-5.37,5.39-5.53,3.46-.3,5.91,4.07,7.08,13.14,2.07-2.77,4.46-6,6.55-9a21.92,21.92,0,0,0,3-6.27,37.15,37.15,0,0,1,2.88,6.58c.53,1.71.22,2.45-.23,2.72a9.2,9.2,0,0,0-2.41,2.09c-3.22,4-5.93,7-9,10.91Z"/><path class="cls-3" d="M658.52,98.53c.48-.51.57-.52.83.28,2,6.53,3.11,10.79,4.66,17.83a1.43,1.43,0,0,1-.42,1.56l-.86,1c-.59.76-.65.64-.83-.4-.3-1.27-.55-2.54-.8-3.81-1.36.59-2.73,1.06-4.06,1.53l2.74,31.29c1.11,12.72,1.52,16.33,1.58,17s0,.82-.25.85l-2.15.19c-.33,0-.38-.09-.45-.79s-.28-4.33-1.39-17.05l-2.69-30.7-4.87,1.36c-1,.33-1.49.72-1.68,1.21-.21.25-.33.5-.52.51s-.38-.55-.55-1.48c-.34-1.73-.62-3.82-1-6.5a8.17,8.17,0,0,0,3,.09l.61,0c.88-4,1.66-7.91,2.39-12a188.74,188.74,0,0,0-8.42-17.73c-.34-.68-.36-.91-.1-2.23l.53-2.52c.23-1.08.28-1.08.61-.52l2.21,4.28q1.23-7,2-14a52.34,52.34,0,0,0,.51-7.57,18.13,18.13,0,0,1,2.72,2.59,2.45,2.45,0,0,1,.6,1.47,2.52,2.52,0,0,1-.21,1.31,8.06,8.06,0,0,0-.63,2.53c-1,7-1.82,11.92-2.91,17.78,1.37,2.82,2.7,5.65,4.11,8.82.82-5.13,1.55-10.25,2.26-15.61.4-3,.58-5.23.69-7.7a18.27,18.27,0,0,1,2.77,2.69,2.27,2.27,0,0,1,.54,1.25,2.54,2.54,0,0,1-.29,1.55,27,27,0,0,0-1.13,5.4C656,93,654.26,103,652.4,111.89a67.8,67.8,0,0,0,7.5-2c-.73-3-1.49-5.75-2.47-8.84-.26-.81-.28-1,.28-1.68Zm-5.79,31.68a27.4,27.4,0,0,0-.09,4.36c.2,6.57.22,13.74-.11,21.77,0,1.18-.13,1.78-.32,1.79s-.4-.31-.78-.87a5.43,5.43,0,0,0-1.71-1.73,183.31,183.31,0,0,0,.36-21.79c-.12-2.93-.24-4.81-.49-7.14a13.77,13.77,0,0,1,2.44,1,1.34,1.34,0,0,1,.8,1.11A5.08,5.08,0,0,1,652.73,130.21Zm9.12-4.92c.44-.39.54-.28.76.53,1.39,5.76,3.25,15.12,4.38,22.08.12.93.14,1.16-.41,1.8l-1,1c-.64.76-.69.64-.83-.4-1-7-2.77-16.58-4.19-22.57-.22-.93-.2-1.16.32-1.68Zm15.94-54c.65-.06.92-.2,1.09-.45s.25-.38.39-.39c.32,0,.65.42,1.4,2a9.92,9.92,0,0,1,1,2.85,3.09,3.09,0,0,1-.28,1.67,9,9,0,0,0-.59,2.88,132.78,132.78,0,0,1-4,21.87,56.91,56.91,0,0,0,12.92,15.46,24.65,24.65,0,0,0-.76,4.65c-.23,2.26-.26,2.49-1.13,1.63a71.84,71.84,0,0,1-12.49-16.91,77.2,77.2,0,0,1-9,18.56c-.29.49-.5.75-.69.76s-.41-.43-.81-1.69a13.78,13.78,0,0,0-1.47-3.4,60.31,60.31,0,0,0,9.82-18.51,124.17,124.17,0,0,1-6.27-16.74,126.45,126.45,0,0,1-3.05,12.5c-.25.84-.35,1.33-.54,1.34s-.32-.44-.67-1.23a9,9,0,0,0-1.8-2.79c3.72-10.2,5.1-20.79,5.73-30.26.12-1.89.16-4.6.07-6.24a10.41,10.41,0,0,1,2.81,1.52,1.83,1.83,0,0,1,.58,1.24,3.48,3.48,0,0,1-.15,1.54,11.2,11.2,0,0,0-.57,3.11c-.15,2-.32,3.91-.53,5.81ZM668.17,78l-.27,1.79a100.05,100.05,0,0,0,6.73,17.76,115.32,115.32,0,0,0,3.48-20.42Zm19.88,84.25c-.24,1.55-.37,1.68-.78,1.25-5.11-6.26-11.15-11.85-16.62-15.14-.35-.2-.38-.55-.18-2.1l.35-3c.2-1.43.3-1.44.69-1.24a82.94,82.94,0,0,1,16.75,15c.32.44.38.55.21,1.86Zm-15.12-41.61c.2-1,.33-1.09.64-.76A78.31,78.31,0,0,1,683,132.73c.39.68.41.91.15,2.23l-.61,2.76c-.34,1.44-.47,1.57-.81.89a74.22,74.22,0,0,0-9.3-13.18c-.31-.33-.34-.68-.08-2Z"/><path class="cls-3" d="M704,61.26c.56.42.69,1.47.58,2.89a40.86,40.86,0,0,0,0,4.59c.37,5.26.59,9.36,1,15a3.3,3.3,0,0,0,.67-1c.07-.24.2-.37.29-.38s.51.43,1,1.44a7.67,7.67,0,0,1,.84,2.52,7.08,7.08,0,0,1-.4,2.5c-.54,2.4-1,4.92-1.55,8.61.18,2.57.34,4.44.53,6.54,3.68-10.09,7.93-15.75,12.88-16.19,7-.61,12.17,11.06,13.53,26.58,1.25,14.36-1.34,29.29-9.29,36.34-.56.64-1,.32-1.43-.7a14.19,14.19,0,0,0-2.61-4c4.24-3.2,6.82-7.66,8.63-13.82a50.92,50.92,0,0,0,1.29-18c-1.08-12.37-4.82-20.16-9.58-19.75s-8.69,5.59-12.73,17.47c1.25,14.83,2.61,29.3,4,44.58.06.7-.06.95-.28,1.08A12.29,12.29,0,0,1,709,158c-.28,0-.4-.2-.47-1-1.16-14.37-2.2-26.75-3.51-42.28-1.94,10-3.66,19.49-5.47,29-.21.84-.43,1-.75.53-.67-1.23-1.51-2.69-2.1-4.05a2.63,2.63,0,0,1-.11-1.87c2.58-10.82,5-22.32,7.42-35.12-.29-3.86-.51-7.48-.76-10.28-1.71,1.44-3.7,3.38-5.17,4.92-.95,1-1.38,2.47-1.75,2.62s-.5-.42-.92-1.45c-.51-1.48-1.23-3.77-1.87-6.3a9.24,9.24,0,0,0,3-1.44c1.88-1.58,3.65-2.91,6.18-5.13-.3-4.56-.68-8.88-1.19-15.77a99.44,99.44,0,0,0-1.27-10.25A8.68,8.68,0,0,1,704,61.26Z"/><path class="cls-3" d="M746.45,84.84a3.32,3.32,0,0,1,.53,2.89,33.34,33.34,0,0,0-.22,5.55c.09,8,.44,19,1,26.85,3.68-14.32,8.85-21.95,14.45-22.44,6.36-.55,10.84,8.23,12,21.42,1,11.79-.92,19.61-4.83,25.48a22.27,22.27,0,0,1-10.68,8.7c-.72.3-1,.32-1.3-.95a22.8,22.8,0,0,0-2.6-5.53,21.83,21.83,0,0,0,12.06-8.35c3.28-4.52,4.67-11.23,3.92-19.75-.72-8.29-3.39-14.53-8.34-14.1-4.43.39-8.91,7.84-12.27,19.43a42.68,42.68,0,0,0-1.45,7.06c-.15,1-.3,1-.7.65a18.12,18.12,0,0,1-2.1-1.93c-.31-.32-.42-.55-.51-1.6-1-13.09-1.46-25.28-1.86-36.78-.11-3.4-.19-6.45-.47-9.72A15.26,15.26,0,0,1,746.45,84.84Zm-.24-28.57c.14-.48.26-.73.62-.4a42.61,42.61,0,0,1,9.71,12.56,2,2,0,0,1,.24,1.62c-.25,1.55-.68,3.59-1.11,5.16-.17.72-.4.74-.74.06A51.07,51.07,0,0,0,745,61.79,47.41,47.41,0,0,1,746.21,56.27Z"/><path class="cls-3" d="M805.5,61.67A90.82,90.82,0,0,0,804.23,52,10.48,10.48,0,0,1,808,53.45c.5.31.67.65.74,1.47a6.91,6.91,0,0,1-.11,1.89,21.55,21.55,0,0,0,0,4.23c.57,7,1.06,13.21,1.56,20a83.5,83.5,0,0,1,9.49-2.36c.37,0,.49.2.57,1.13.19,1.63.36,3.62.45,5.14.09,1,0,1.41-.35,1.44a48.29,48.29,0,0,0-9.67,1.9c.53,7.6,1,14.86,1.13,19.32.28,8.56-1.13,11.86-3.88,12.1a9.32,9.32,0,0,1-3.58-.51c-.44-.2-.58-.77-.74-2.05a57.83,57.83,0,0,0-1.32-6.48,8,8,0,0,0,4.69,1.47c1.4-.12,1.85-2,1.66-6.85-.15-4.45-.51-10.66-.94-16.15a93.73,93.73,0,0,0-13,5.14c1,12.38,1.91,23.36,2.72,30,1.18,9.66,2.61,12.12,9.48,11.52A33.44,33.44,0,0,0,818,132.69c.55-.17.71.05.83,1,.23,1.51.51,4.19.62,5.48s0,1.52-.27,1.67A38.42,38.42,0,0,1,808,143.44c-9,.79-11.65-3.57-13.44-17.53-.68-5.11-1.79-17.84-2.88-30.21a50,50,0,0,0-6.37,3.5,10.58,10.58,0,0,0-2,1.7c-.43.39-.74.18-1-.85-.45-1.84-1.06-4.5-1.48-7.16a10.12,10.12,0,0,0,3.4-1c2.4-1,4.63-2.4,6.84-3.54-.35-4.55-.73-8.87-1.11-13.19a96.28,96.28,0,0,0-1.56-11.39A9,9,0,0,1,792.23,65a2.31,2.31,0,0,1,.81,1.7,22.71,22.71,0,0,1-.07,2.47,40.64,40.64,0,0,0,.13,5.17c.32,4.79.64,8.41,1,12.73,3.9-1.63,8.91-3.6,13.11-5C806.65,74.86,806,67.86,805.5,61.67Z"/><path class="cls-3" d="M851.07,67.33c-6.76,3.42-12.62,6.4-18.23,10a6.9,6.9,0,0,0-2.63,2.23c-.3.38-.54.87-.82.89s-.55-.42-.74-1c-.67-2.29-1.34-5.06-2-8.17,1.69-.15,2.87-.61,5.67-1.91,6.71-3.41,15.89-7.74,28.07-12.69.45-.16.72.17.87.86.27,1.51.66,4.3.79,5.82.09,1.05,0,1.29-.48,1.45a10.53,10.53,0,0,0-6.51,4.1c-6.23,7.37-10.2,22.18-8.83,37.83,1.69,19.37,9,24.5,15.9,25.31.62.06.78.28.86,1.22.11,1.28.21,4,.21,5.62,0,1.3-.08,1.78-.6,1.7-8-1.06-17.28-8.72-19.34-32.3-1.44-16.46,1.43-30.36,7.92-40.69Z"/><path class="cls-3" d="M891.28,68.64c2.83-3.07,5.68-5,8.48-5.22,5.37-.47,9.4,6.36,10.48,18.73,1.27,14.48-2.87,22-9.59,22.6a6.61,6.61,0,0,1-2.22,0c-.48-.07-.65-.41-.85-1.1a39.93,39.93,0,0,0-1.93-6.53,10.18,10.18,0,0,0,4.23.57c4.67-.41,7.87-5.28,7-15.79-.82-9.34-3.89-11.66-6.46-11.43-3.08.27-5.13,2.09-7.13,4a106,106,0,0,0-8.07,9.41c4.25,18.45,8.17,35.29,12.31,53.51.29,1.15.32,1.5-.1,2.13a7.47,7.47,0,0,1-2.1,2.3c-.27.14-.33,0-.48-.66-4.07-19.06-7.66-35.33-12.06-53.89-2,2.65-3.46,4.54-5,6.56a14.92,14.92,0,0,0-2.2,3.84c-.18.6-.43,1-.62,1s-.54-.3-.9-1.1a67.6,67.6,0,0,1-2.59-7.06,19.39,19.39,0,0,0,4.42-3.8c1.62-1.91,3.08-3.45,5.2-6.1-.92-4.16-1.83-8.08-2.94-12.69A83.61,83.61,0,0,0,875,57.36a9.41,9.41,0,0,1,3.88-1.4c.56-.05.66.65.76,1.7A21.7,21.7,0,0,0,880,61c.28,1.51.66,3.24,1.61,7.63.86,3.92,1.36,5.88,2,8.65A97.3,97.3,0,0,1,891.28,68.64ZM888.45,45c.24-.49.34-.5.71-.06a57.11,57.11,0,0,1,6,10.65,2.77,2.77,0,0,1,.15,1.75,21.29,21.29,0,0,1-1.44,4c-.15.37-.39.27-.63-.3a47.1,47.1,0,0,0-6.6-11.89C887.31,47.46,888,45.87,888.45,45Z"/><path class="cls-3" d="M930.21,89.82c2.88-5.78,5.95-8.88,9.31-9.17,6.73-.59,11.79,9.44,13.12,24.61,1.52,17.4-2.89,30.49-12.79,31.35-5.6.49-8.67-5.59-9.33-13.06-.53-6.07,1.11-12.1,4.43-12.39,4.2-.36,7.64,6.16,9.39,16,3.73-3.62,6-10.4,5-21.84-1-11.91-5.31-18.83-9.75-18.44-4.62.41-8.73,6.76-11.69,14.32-1.24,3-2.18,6.3-3.27,9.93-.29,1-.52,1.1-.91.31-.69-1.35-1.54-3-2.14-4.51a2.18,2.18,0,0,1,0-1.77c3-8.38,4.85-14.54,8.28-27,2.06-7.59,4.21-15.31,6.88-26.24-3.74,1.85-7.23,3.92-11.22,6.27A4.94,4.94,0,0,0,924,59.42a1.8,1.8,0,0,1-.83.67c-.33,0-.61-.42-.87-1.34a77.15,77.15,0,0,1-1.83-8,7.15,7.15,0,0,0,4.12-.24,61.08,61.08,0,0,0,11.26-5.22,3.24,3.24,0,0,0,1.35-1.18c.16-.36.4-.86.59-.87s.48.19.92.86a31.6,31.6,0,0,1,2.44,4.73,6.52,6.52,0,0,1,.5,2,3.16,3.16,0,0,1-.51,2.28c-.57.52-1,1.38-1.84,4.28-3.19,11.34-5.61,19.78-9.23,32.1Zm5.38,27.64c-1.49.13-2.69,2.12-2.37,5.74.34,3.85,2.31,7,5.43,6.7a7.2,7.2,0,0,0,3-.85C940.45,122.45,938.25,117.23,935.59,117.46Z"/><path class="cls-3" d="M978.63,55.47c.89,19.8.2,39.38-1.7,51.55-1.26,8.7-3.06,12.38-5.81,12.63-3.5.3-7.66-9-9.14-25.91C961,83,962,71.39,964.75,63s7-13.67,12.88-14.18c10.46-.92,18,13.83,20,36.13,1.66,19-1.71,34.73-11.29,42-.53.4-.87.2-1.32-1.18a14.29,14.29,0,0,0-2.2-4.16c8.85-5.36,13.08-18.32,11.37-37.81-1.51-17.28-7.95-29.07-14.63-28.48ZM967.24,67.75c-2.46,8-3,17.68-2.28,25.61,1.11,12.73,3.7,18,5.38,17.88s2.76-2.83,3.59-8.9c1.47-10.71,2.36-29,1.47-46.12C971.86,57.7,969,62,967.24,67.75Z"/></g><rect class="cls-4" width="1000" height="265"/></g></g></svg>