<svg xmlns="http://www.w3.org/2000/svg" viewBox="0 0 1000 265"><defs><style>.cls-1{isolation:isolate;}.cls-2{mix-blend-mode:soft-light;}.cls-3{fill:red;}.cls-4{fill:none;opacity:0.19;}</style></defs><title>アートボード 370</title><g class="cls-1"><g id="CHARACTER"><g class="cls-2"><path class="cls-3" d="M3.36,113a3,3,0,0,1,.81,1.81,6.19,6.19,0,0,1-.15,2,35.94,35.94,0,0,0-.39,6.27C3.53,137,4,152.44,5,163.53c.74,8.52,1.43,14.23,2.46,20,.54-6.64,1.09-11.74,1.72-20,.49,1.83,1,3.2,1.53,4.57a3.4,3.4,0,0,1,.34,1.14,8.57,8.57,0,0,1-.07,1.89c-.51,6-1,11.85-1.36,18.83a16.58,16.58,0,0,0,.06,2.93c.1,1.05.25,1.74.32,2.56,0,.47,0,.94-.23,1.08a6.48,6.48,0,0,1-2,1.35c-.24,0-.46-.43-.62-1.12-2-7.71-4.06-22.23-5.06-33.67C1,150.59.6,136.85.48,123.1c-.07-5.64-.13-9-.48-13A15.93,15.93,0,0,1,3.36,113Zm9.89,11.37c-.1-1,0-1.41.41-1.69a32.8,32.8,0,0,1,9.72-3,30.29,30.29,0,0,1,6.68,0c.62.06.72.17.8,1.11.17,1.86.33,3.73.44,5.49.08.93,0,1.17-.42,1.09a35.81,35.81,0,0,0-7.57.08,25.57,25.57,0,0,0-9.55,3.3C13.48,127.61,13.32,125.74,13.25,124.34Zm4.64,43.35c.22-.14.34.21.42,1.14.92,8.86,4.12,12.58,9.63,12.1A29.38,29.38,0,0,0,37,178.49c.37-.15.47,0,.62,1.12.17,1.4.48,3.84.62,5.48.09,1,.1,1.16-.48,1.45a29.32,29.32,0,0,1-8.25,2c-5.23.45-8.38-1.15-10.92-6.46-1.65-3.27-2.62-7.89-3.17-13.72Z"/><path class="cls-3" d="M48,104.24a2,2,0,0,1,.9,1.68,19.46,19.46,0,0,1-.11,3.07c-.06,1.42.07,5.06.5,12.08,1.12,17.66,2.2,33.21,3.58,49,1.24,14.24,3,17.74,7.07,17.38,5.93-.52,11.21-10,14.86-23.77a61.2,61.2,0,0,0,1.38,6.7,12.91,12.91,0,0,1,.33,1.62,4.87,4.87,0,0,1-.36,2.27c-3.87,12.22-9.4,20.58-16.08,21.17-5.28.46-8.67-5.59-10.18-22.75C48.44,156.08,47.2,137,46,120.53a161,161,0,0,0-1.91-17.59A9.14,9.14,0,0,1,48,104.24Zm15.3,7c.15-.36.26-.25.47.08A66.63,66.63,0,0,1,70.29,125a1.72,1.72,0,0,1,0,1.3l-1.1,2.92c-.2.48-.44.39-.63-.18a61.17,61.17,0,0,0-6.73-14.47Zm3.21-7.92c.15-.37.28-.5.5-.17a75.51,75.51,0,0,1,6.52,13.2,1.77,1.77,0,0,1,0,1.41l-1,2.91c-.15.49-.34.5-.58-.18a67.35,67.35,0,0,0-6.65-14.12Z"/><path class="cls-3" d="M111,130.72a63.61,63.61,0,0,0-.8-7.46,8.57,8.57,0,0,1,3.79,3,3.25,3.25,0,0,1,.44,2.32,14.88,14.88,0,0,0-.21,3.55c.14,5.28.19,12.33.11,17.87a86.59,86.59,0,0,1,8.94,11.33,2,2,0,0,1,.32,1.5c-.18,1.67-.46,4.4-.7,6-.13.71-.38.5-.61,0a73.81,73.81,0,0,0-8.2-11.4c-1,15.38-2.74,25.06-6.89,34.13-.47,1.1-.65,1.23-1.13.57a5.71,5.71,0,0,0-2.63-2.71c5-10.67,6.82-20.48,7.59-34.78-3.68-3.8-7.78-6.61-12.22-7.28-1.11,11.5-2,18.29-3.18,22.74-1.36,5.42-3,7.8-5.09,8-2.34.2-5.07-3.68-5.87-12.78-1.14-13,3.75-23.86,11.53-24.65.84-10.9,1.54-20.14,2-32.88-3.15,1.1-6.43,2.33-8,3a7.3,7.3,0,0,0-2,1.23.76.76,0,0,1-.53.4c-.28,0-.44-.19-.62-.65-.47-1.6-1.06-4.49-1.72-8.32a5.78,5.78,0,0,0,4.11.23,39.37,39.37,0,0,0,7-2.26c1.12-.57,1.65-1,2-1.82s.7-.65,1-.32a19.65,19.65,0,0,1,2.4,4.26,3.66,3.66,0,0,1,.24,2.8,31.57,31.57,0,0,0-.63,5.7c-.6,10.88-1.32,19.29-2.05,28.77,4,.59,8,3.06,12,6.48C111.38,141.28,111.28,135.88,111,130.72Zm-23.69,33.6c.33,3.85,1.36,6.47,2.67,6.35,1.12-.09,2.29-1.72,3.28-6a124.59,124.59,0,0,0,2.48-17.39C90.2,148.19,86.59,155.92,87.33,164.32Z"/><path class="cls-3" d="M138.51,150.2c1.59-5.44,3.5-8.9,5.84-9.1,4.62-.41,6.85,7.87,8.35,19.62,1.24,9.89,2.49,15.54,5.1,15.32s4.13-3.89,5.28-8.58a105.12,105.12,0,0,0,2.23-19.61,23.14,23.14,0,0,0,2.22,6,5,5,0,0,1,.5,3,91.35,91.35,0,0,1-2.3,16.2c-1.42,6.35-3.72,10.67-7.27,11-4.48.4-6.67-6.35-8.53-20.54-1.54-11.75-3-16.21-5.49-16-2.05.18-3.83,3.51-5.56,10.6-1.16,5.05-2.32,13.85-3.49,26.31-.08,1.18-.31,1.32-.77.89a13.5,13.5,0,0,1-2.32-2.86,2.86,2.86,0,0,1-.27-2c3.45-29.95,6.25-55,8-72.46a113.27,113.27,0,0,0,.65-13.58,21.53,21.53,0,0,1,3.75,4.14,4.11,4.11,0,0,1,.39,3.38,21.76,21.76,0,0,0-1,4.91c-1.9,15.34-3.72,30.55-5.41,43.05Z"/><path class="cls-3" d="M180.26,136.9c.38,4.32-.73,7.83-2.36,8s-3.38-3.12-3.76-7.44c-.36-4.08.69-7.7,2.42-7.85S179.9,132.81,180.26,136.9Zm15.55-1.36c.38,4.32-.73,7.83-2.36,8s-3.38-3.12-3.76-7.44c-.36-4.08.69-7.7,2.42-7.86S195.45,131.45,195.81,135.54Zm15.55-1.36c.38,4.32-.73,7.83-2.36,8s-3.38-3.12-3.76-7.44c-.36-4.08.74-7.71,2.42-7.86S211,130.09,211.36,134.18Z"/><path class="cls-3" d="M223.82,136.26c-.37-4.32-.92-10.5-1.31-16.12q-1.09,7.69-2.67,14.71c-.21.84-.35,1.32-.49,1.33s-.28-.44-.48-1.13a23.52,23.52,0,0,0-1.58-4.57,214.36,214.36,0,0,0,5.2-42.21c.12-3,.1-5.31,0-7.77a15.54,15.54,0,0,1,2.95,2,2,2,0,0,1,.59,1.36,3.67,3.67,0,0,1-.27,1.67,19.07,19.07,0,0,0-.5,4.52c-.31,5.67-.69,11.47-1.22,17.28l5.17,59.07c1.08,12.37,1.64,17.74,1.69,18.32.08.82,0,.94-.29,1l-2.15.18c-.32,0-.38-.08-.45-.9-.05-.58-.43-6-1.51-18.33Zm34-30.5c.07.82,0,.94-.3,1s-1.84-.07-6.6.35l-16.25,1.42c-4.76.42-6.33.79-6.56.81s-.39-.09-.46-.9L227.3,104c-.07-.82,0-.94.29-1s1.85.07,6.61-.35l3.31-.29-.86-9.92c-.44-5-.82-9.34-1.37-12.35a13.37,13.37,0,0,1,2.81.34.9.9,0,0,1,.59.89,6.09,6.09,0,0,1,0,1.65,74.69,74.69,0,0,0,.52,9.13l.88,10,3.73-.33-.87-9.92c-.44-5-.81-9.34-1.36-12.35a13.37,13.37,0,0,1,2.81.34.93.93,0,0,1,.59.89,6.51,6.51,0,0,1,0,1.65,71.36,71.36,0,0,0,.51,9.13l.88,10,4.16-.36c4.76-.42,6.33-.79,6.56-.81s.39.09.46.9Zm-28-20.37c.34-.5.43-.51.67.06a91.41,91.41,0,0,1,3.85,10.72,1.62,1.62,0,0,1-.19,1.54l-1.07,1.74c-.49.87-.58.88-.85,0a79.74,79.74,0,0,0-3.67-10.74,1.24,1.24,0,0,1,.15-1.54Zm18.31,70.5c4.08,11.65,9,16.51,16.81,18.89a22.28,22.28,0,0,0-.55,4.51c-.07,2.36-.13,2.25-1.11,1.86-7.7-3.09-12.84-10.16-16.94-22.63a55,55,0,0,1-1,8c-1.57,7.43-4.69,13.12-10.39,17.38-.8.54-.8.54-1.4-1.52a20,20,0,0,0-1.57-4c6-3.46,9.19-7.86,10.82-15.07a47.53,47.53,0,0,0,.89-7l-5.32.46c-4.77.42-6.33.79-6.57.81s-.38-.08-.46-1l-.36-4.09c-.08-.94,0-1.06.28-1.08s1.84.07,6.61-.35l6-.52c0-2.59-.1-5.52-.29-8.68l-3.78.33c-4.43.39-5.86.75-6.14.77s-.34-.09-.41-.9l-.37-4.2c-.06-.7,0-.83.26-.85a58.91,58.91,0,0,0,6.18-.31l3.88-.33-.73-8.29-5,.43a62.25,62.25,0,0,0-6.38.8c-.33,0-.38-.09-.46-.9l-.35-4.09c-.07-.82,0-.94.29-1A62.66,62.66,0,0,0,237,123l.93-.08c-.92-3.57-1.8-6.55-2.8-9.41a1,1,0,0,1,.26-1.31l1.24-1.4c.39-.39.45-.28.7.4,1.14,3.32,2.14,6.76,3.36,11.47l5.74-.5c.41-2.86.77-5.71,1-8.2a45.42,45.42,0,0,0,.14-4.84,12.21,12.21,0,0,1,2.53,1.55,1.48,1.48,0,0,1,.66,1.12,2.46,2.46,0,0,1-.21,1.31,10.68,10.68,0,0,0-.49,2.51c-.27,2.26-.56,4.28-.9,6.31l1.26-.11c4.62-.4,6.09-.77,6.33-.78s.43.08.5.89l.36,4.09c.07.82,0,.94-.34,1a62.36,62.36,0,0,0-6.37.32l-5.75.5.73,8.29,4.72-.41a57.84,57.84,0,0,0,6.09-.77c.33,0,.39.09.45.79l.37,4.2c.07.81,0,.94-.3,1a53,53,0,0,0-6.13.3l-4.81.42c.18,3.16.28,6,.33,8.67l8-.7a65.62,65.62,0,0,0,6.61-.81c.28,0,.34.09.42,1l.35,4.09c.09.93.05,1-.23,1.08s-1.89-.07-6.65.34Zm5-68.78a8.05,8.05,0,0,0-.56,2.17c-.41,2.85-.84,5.48-1.47,8.48-.2.95-.31,1.32-.49,1.33s-.35-.2-.71-.52a4.51,4.51,0,0,0-1.65-1.15A97.34,97.34,0,0,0,250.05,87a38.66,38.66,0,0,0,.26-4.61,15.94,15.94,0,0,1,2.48,2,2,2,0,0,1,.68,1.35A2.45,2.45,0,0,1,253.21,87.11Z"/><path class="cls-3" d="M285.19,98.19c.89,19.8.2,39.39-1.7,51.56-1.26,8.69-3.06,12.38-5.81,12.62-3.5.31-7.66-9-9.14-25.9-.94-10.74,0-22.35,2.77-30.71s7-13.67,12.88-14.19c10.46-.91,18,13.84,20,36.14,1.66,19-1.71,34.73-11.29,42-.53.4-.87.19-1.32-1.18a14.29,14.29,0,0,0-2.2-4.16c8.85-5.36,13.08-18.32,11.37-37.82-1.51-17.27-7.95-29.06-14.63-28.48ZM273.8,110.48c-2.46,8-3,17.67-2.28,25.61,1.11,12.72,3.7,18,5.38,17.88s2.76-2.83,3.59-8.9c1.47-10.72,2.36-29,1.47-46.13C278.42,100.43,275.55,104.68,273.8,110.48Z"/><path class="cls-3" d="M333.8,120.29c5.87,22.89,13.52,36.22,23.49,43.7a27.08,27.08,0,0,0-1.1,5.16c-.15,1.42-.21,1.9-.44,1.92s-.39-.2-.75-.52c-9.11-8.38-16.57-21.61-22.67-45.54a110.8,110.8,0,0,1-1.86,21.68c-2.15,11-6.05,20.18-11.87,27.28-.77.89-.83.77-1.51-1.05a19.22,19.22,0,0,0-1.83-3.72c6.08-6.3,10.28-15.37,12.44-26.15a99.84,99.84,0,0,0,1.76-22.38l-8,.7a63.49,63.49,0,0,0-6.48.8c-.32,0-.38-.09-.45-.9l-.47-5.37c-.07-.82,0-.94.29-1a63.36,63.36,0,0,0,6.51-.33l8.41-.74c-.31-8.32-1-16.74-1.6-24.68l-11.39,1a60.78,60.78,0,0,0-6.19.77c-.33,0-.38-.08-.46-.9l-.47-5.37c-.07-.82,0-.94.3-1a56.93,56.93,0,0,0,6.23-.31l26.38-2.3a62,62,0,0,0,6.19-.78c.33,0,.39.08.46.9l.47,5.37c.07.82,0,.94-.3,1a60.53,60.53,0,0,0-6.23.31l-12.05,1c.65,7.94,1.25,16.36,1.55,24.69l10.23-.9a62.35,62.35,0,0,0,6.47-.8c.33,0,.38.09.45.9l.47,5.37c.08.82,0,.94-.29,1a63.45,63.45,0,0,0-6.51.33Z"/><path class="cls-3" d="M363.71,123.79c-.39-4.44-.92-11-1.37-16.7-.79,5-1.8,10-3,15-.17.72-.32,1.21-.46,1.22s-.32-.45-.52-1.13a18.16,18.16,0,0,0-1.66-4.45,209,209,0,0,0,5.9-42.27,78.44,78.44,0,0,0,0-7.88,13.66,13.66,0,0,1,3,2.21,2,2,0,0,1,.69,1.35,3.23,3.23,0,0,1-.28,1.67,16.24,16.24,0,0,0-.56,4.4c-.36,6-.82,12.07-1.49,17.89l5.15,58.84c1.08,12.38,1.64,17.74,1.69,18.32.08.82,0,.82-.3.85l-2.19.19c-.33,0-.38,0-.45-.78s-.42-6-1.51-18.34Zm22.58,5.32c.12,3,.18,5.86.13,8.46a79.61,79.61,0,0,1-1.19,12.8c5.81,7.73,12.28,10.22,19.6,11a27.7,27.7,0,0,0-.56,5c-.08,2.24-.08,2.24-1,2.09-7.21-1.25-13.56-4.93-19.19-12.9a37.81,37.81,0,0,1-9.1,16c-.78.77-.84.66-1.48-1.29a18.45,18.45,0,0,0-1.6-3.85,33,33,0,0,0,9.72-14.74,83.1,83.1,0,0,1-6.36-14c-.3-.79-.27-.91.22-1.78l.94-1.61c.32-.62.45-.75.71,0a72.34,72.34,0,0,0,5.7,12.44,63.38,63.38,0,0,0,.91-10.07c0-2.24,0-4.71-.12-7.29l-4.25.38a57.55,57.55,0,0,0-6.33.79c-.33,0-.38-.09-.46-.91-.05-.58-.14-2.69-.68-8.88l-.84-9.57c-.55-6.3-.81-8.28-.88-9s0-.82.31-.85,1.83,0,6.36-.44l4.48-.39-1-11.68-5.93.52c-4.72.42-6.29.79-6.52.81s-.38-.09-.45-.9l-.44-5c-.08-.82,0-.94.29-1s1.84.07,6.56-.34l5.93-.52-.23-2.57c-.59-6.77-.93-9.56-1.44-12.69a12.57,12.57,0,0,1,3.09.32c.38.08.6.41.65,1a16.41,16.41,0,0,1,0,2.24,78.2,78.2,0,0,0,.49,8.78l.23,2.68,7.43-.65a63.67,63.67,0,0,0,6.56-.81c.33,0,.38.09.46.9l.43,5c.08.82,0,.94-.29,1s-1.84-.07-6.6.34l-7.43.65,1,11.68,4.86-.43c4.53-.39,6.11-.65,6.34-.67s.38.08.45.78.14,2.7.69,9l.84,9.57c.54,6.19.82,8.29.87,8.87.07.82,0,.94-.3,1a61.54,61.54,0,0,0-6.37.32ZM373.37,107.3,374.83,124l8.4-.73c-.35-4.56-.85-10.28-1.41-16.7Zm20-1.75-8.77.77c.56,6.42,1.05,12,1.36,16.7l8.88-.78Z"/><path class="cls-3" d="M413.42,116.5c.37,4.32-.73,7.83-2.36,8s-3.38-3.12-3.76-7.44c-.36-4.08.69-7.7,2.42-7.85S413.06,112.41,413.42,116.5ZM429,115.14c.37,4.32-.73,7.82-2.36,8s-3.38-3.12-3.76-7.44c-.36-4.08.69-7.7,2.42-7.85S428.61,111.05,429,115.14Zm15.55-1.36c.37,4.32-.73,7.82-2.36,8s-3.38-3.12-3.76-7.44c-.36-4.08.74-7.71,2.42-7.85S444.16,109.69,444.52,113.78Z"/><path class="cls-3" d="M468.09,150.3c.78,9-1.57,16.49-5.17,16.8s-7.21-6.66-8-15.65,1.57-16.49,5.16-16.8S467.3,141.31,468.09,150.3Zm-10.74.94c.5,5.72,2.77,10.23,5.06,10s3.75-5,3.25-10.76-2.73-10.23-5.07-10S456.85,145.52,457.35,151.24Z"/></g><rect class="cls-4" width="1000" height="265"/></g></g></svg>