<svg xmlns="http://www.w3.org/2000/svg" viewBox="0 0 70 296"><defs><style>.cls-1{fill:#fff;}.cls-2{fill:red;}.cls-3{fill:none;opacity:0.14;}</style></defs><title>アートボード 306</title><g id="TOP"><path class="cls-1" d="M23.15,181H21.78v-2.75H20.13v-1.1L18.55,177v-2.58H17.06v1.38H14.91v-6H16V169h-1.1v-.27l-2.47.27v6.59h-.27v1.37H9.43v1.37l-2.75.27v-7.14H3.92l.27,9.34h1.1v1.92H4.2l-.27,2.75H2.82l-.27,4.12H1.43v6.32h1.1v3H4.05v9.61H5.44v6.67H6.85l-.18,1.59c-1.9,0-3.65.21-5.22.27v2.2c1.57.08,3.31.29,5.22.27v1.65H5.57l-.27,5.49H4.2l-.27,5.49H2.82l-.27,4.12H1.43v.82a3.56,3.56,0,0,1,1.37.27v1.1h.82l.27-2.75H5l.27-4.12H6.43l.27-5.49H7.8l.27-5.49h1.1a3.45,3.45,0,0,1,.26-1.38h1.1v-1.1h1.65l.27,2.47h1.1v8.79H12.43l-.27,5.22H10.52v-1.1a3.6,3.6,0,0,1-1.37-.27v-1.1H8.32v1.1H8l.27,3.85,2.75.27v1.1h.55v8.38H13.1v-9.48h.43V235.7h1.1c.29-5.83.29-12.68.27-19l-1.36,0v-1.37H9.43v-3h1.1l.27-5.22-2.47.27c-.1,2-.29,4.48-.27,6.87H6.94v-9.16H5.54V200h.89v-1.1H8v-1.65h1.1a3.5,3.5,0,0,1,.29-1.39H11.9v-1.1h.27l-.27-3,.27-5.49h1.1l.27-5.49h1.1a3.56,3.56,0,0,1,.27-1.37l2.15.14v4.91h1.49v-4.81l.48,0,.27,2.47h1.13v1.65h.27v7.14l-5.77-.27V192H13.54c0,2.32.19,4.66.27,6.59a3.56,3.56,0,0,1,1.37.27V200h1.1v.27l3.85-.27a3.56,3.56,0,0,1,.27-1.37h1.1v-1.1h1.93v1.1h.82l.27-3.85H23.15ZM8,194.76H6.67v1.37H3.92v-8.52H5a3.56,3.56,0,0,1,.27-1.37H6.67l.27,4.12H8Zm4.12-13.46h-1.1l-.27,6.87a4.24,4.24,0,0,1-1.65-.27v-1.1H8v-4.67h1.1a3.49,3.49,0,0,1,.29-1.38h1.1v-1.1h1.65Zm7.14,14.84c-.31.23,0,0-.27.27h-1.1v1.1H16.28v-1.37H14.91v-1.65H16v-1.1h3.3Z"/><polygon class="cls-1" points="22.88 221.14 21.78 221.14 21.5 217 20.43 217 20.16 214.25 19.03 214.25 19.03 212.6 17.66 212.6 17.66 214.25 16.56 214.25 16.56 215.07 17.66 215.07 17.93 217.82 19.03 217.82 19.3 220.57 20.43 220.57 20.7 226.06 21.8 226.06 21.8 229.06 24.27 228.79 24.27 225.22 23.17 225.22 22.88 221.14"/><path class="cls-1" d="M67.11,292.25l-.28-2.43a3.6,3.6,0,0,1-1.37-.27v-1.1a3.6,3.6,0,0,1-1.37-.27v-1.1h-.82v1.1c-.31.23,0,0-.27.27H61.9v.82H63l.27,2.75a3.56,3.56,0,0,1,1.37.27v1.1h1.1V295h2.75v-2.75Z"/><path class="cls-1" d="M63,241.46h1.37v-1.65h1.07l.27-4.12h1.1v-4.95H65.7l-.27-4.11h-1.1V225H63v-1.37H56.12V222h1.1l.27-2.75h1.1l.27-2.47h1.37v-1.65h1.1l.27-2.75h1.1v-.82a3.6,3.6,0,0,1-1.37-.27v-1.1h-.61v-7.38l2-.08.27-2.47H53.1v-1.1H52v-1.65h-.27l.23-3.43h.79v-.77l1.72-.19V192h6v1.1h1.1v.27L64,193.1l.27-3.85H63l-.27-2.47h-1.1v-1.92h1.1v-1.1l4.12-.27v-1.1h.27l-.27-2.47h-2.2V181l-5.77.27V178h2.47v-1.1h3l-.27-2.47-3.85-.27v.27H57.49l-.27-5.49H55v4.95h1.1v1.65l-8,.27V178a3.56,3.56,0,0,1,1.37.27v1.1h1.77v3.3H48.12l-.27,3.85,3.41-.1v4.22h-.64v1.65H49.53v1.1h-.27c-.52,1.84.2,5,.27,6.59h1.1v1.65H52V203c2.36,0,4.88-.06,7.23-.13v7.32h-.1v1.1c-2.8,0-5.84.17-8.24.27v2.2a3.56,3.56,0,0,1,1.37.27v1.1h.82V214h4.67l-.27,3h-1l-.27,2.47H54.75v1.65h-1.1l-.27,2.75h-1.1L52,226.34H50.63V228h-.52v-8.24H48.62v10.71h-.74l.27,3.85H49v-1.1h1.66v-1.65h1.1L52,229.1h1.37v-1.37h1.37v-1.37h7.14v1.1H63l.27,2.75h1.1v7.14H63V239h-1.1v1.1H60.24L60,236.25h-1.1v-3H57.49v-1.37H53.37v1.65h-1.1v1.1H52c-.48,1.7.2,3.82.27,5.22h1.1l.27,2.75,2.75.27V244h5v-1.1H63ZM52.75,179.37h1.68v-1.1h1.65l.27,2.47h1.1v1.65H56.12v.27H52.75Zm0,7,4.44-.13v-1.1h1.65l.27,2.47h1.1v1.65c-2.32,0-4.66.19-6.59.27v1.1h-.87Zm2,53.71-.32-5.49h2v1.1h1.1l.27,4.67Z"/><polygon class="cls-1" points="63.23 263.18 64.33 263.18 64.6 267.3 65.7 267.3 65.97 272.79 66.79 272.79 66.79 271.69 68.44 271.69 68.17 267.84 67.11 267.84 66.84 262.35 65.74 262.35 65.43 259.6 64.33 259.6 64.06 256.85 61.59 256.58 61.86 260.43 62.96 260.43 63.23 263.18"/><path class="cls-1" d="M58.87,259.32H57.22v-1.1H54.43l.27-8.52-2.47.27L52,258.21h-1.1v1.1H47.7V249.05H46.21v13.19h.46l.06.92h2.2v-1.1h1.7v3h-1.1l-.27,5.49h-1.1L47.89,276h-1.1l-.27,4.12H45.43V281l2.47.27v-1.65H49l.27-4.12h1.1l.26-5.5h1.1l.27-5.49h1.1V262h4.4v12.64H56.43v2.47h-2v-1.1L52,275.78l.27,3.85a3.56,3.56,0,0,1,1.37.27V281h1.1v.27l2.47-.27a3.56,3.56,0,0,1,.27-1.37h1.1l.27-5.49h1.1V263.72h-1.1Z"/><rect class="cls-1" x="63.01" y="196.85" width="1.49" height="13.19"/><path class="cls-2" d="M24.26,153.83H22.05L21.78,158h-1.1V159H18.55v-6.51H17.06V159h-.78V147.78h1.15a3.56,3.56,0,0,1,.27-1.37h1.1v-1.1h1.63v-1.37H21.8v-1.37h1.37V141.2H21.78v-1.37H20.43v1.37H19v1.37H17.66v1.37H16.28V134h6.59a3.56,3.56,0,0,1,.27-1.37h1.1v-.82a3.6,3.6,0,0,1-1.37-.27v-1.1H4.1v-6H2.61v6H1.43v1.1H1.17L1.43,134c.39,0,.79,0,1.18,0v4.32H4.1V134c.49.06,1,.13,1.45.23l-.27,8.52H4.2l-.27,2.75H2.82l-.27,2.75H1.43v2.2l2.47.27v-1.65H5V148H6.67l.27,2.47H8v4.4H6.67v1.65H5.57v1.1c-.31.23,0,0-.27.27H4.2V159H2.55v2.75H5.3v-1.37H6.67V159H8v-1.6h1.1l.29-2.75h1.1l.27-4.12h1.1c.12-2.41.29-5.44.27-8.24h1.65v17.86h1.1v1.65h2.14v4.57h1.49V161.8h.33v12.6h1.49V161.8h2.79v-1.65h1.1v-2.47h.27Zm-13.47-8.24H9.69v2.47H8v-1.37H6.67v-4.4h1.1v-1.1H9.69v1.1h1.1Zm3-5.49a5.23,5.23,0,0,1-1.92-.27v-1.1H8V134c1.84,0,4.39-.24,5.77.27Z"/><path class="cls-2" d="M68.21,157.89c-2.7.11-7.52.56-9.62-.22v-8.24h7.14l-.3-3.84c-2.13,0-5.21.34-6.87-.27,0-1.84-.24-4.39.27-5.77h8v-1.1h.27L66.83,136l-1,0V122.23H64.31v13.85a17.09,17.09,0,0,1-5.72-.35V130.2h.27v-1.37H56.12V136H52v-3.3h1.1v-.82H52v-.27l-2.47.27-.27,6.87h-1.1l-.27,4.12h-1.1l-.27,3.85h1.37v-1.37h1.37v-3h1.1l.27-2.75h5.49v6H50.9v1.1H49.25l.27,2.47c1.93.1,4.29.29,6.59.27V158h-6v-4.41H48.62V158H46.78v1c-.31.23,0,0-.27.27H45.43v.82a3.56,3.56,0,0,1,1.37.27v1.1h1.82V170h1.49v-8.58h18.1v-1.1h.27Z"/><path class="cls-1" d="M19,92H16.56v1.1l-6.87.27v1.1l-.9,0v-11H7.3v11c-1.59.06-3.13.16-4.48.21l-.27,3.85,3.88-.26v-1.1c1.18,0,3.74.33,4.4-.27h.27l-.27,3.3H9.69l-.26,5.49H8.32v3.57H9.43l.27,5.49h1.1l.27,2.75a3.56,3.56,0,0,1,1.37.27v1.1l2.75.27v1.1h2.47v.27l2.47-.27v-1.1h.3l-.27-2.47-5.49-.27v-1.1a3.6,3.6,0,0,1-1.37-.27V114H12.2l-.27-2.75h-1.1v-7.42h1.06l.27-3.83h1.37V98.61h.65v11.57h1.49v-13h.6V95.86l3.85-.27v-1.1l2.75-.27V92L19,91.73Z"/><path class="cls-1" d="M24.25,16.47c-1.93-.1-4.29-.29-6.59-.27V10.7l-2.47.3v5.22l-5.49.27-.27,2.45c4.92,0,10.35-.07,14.84-.27Z"/><path class="cls-1" d="M4.2,40.91H3.92v1.37H2.55l.27,3.85H5a3.56,3.56,0,0,1,.27-1.37H6.43V31.3H8V29.93H9.43V27.18H8v.27a4.43,4.43,0,0,1-1.61-.27c0-1.84-.24-4.39.27-5.77H7.8A3.58,3.58,0,0,1,8,20h1.1v-.82a3.6,3.6,0,0,1-1.37-.27v-1.1a3.43,3.43,0,0,1-1.34-.25V12.07H6.7V10.7H6.43V9.6H5.57v1.1c-.31.23,0,0-.27.27H4.2v6.59c-.31.23,0,0-.27.27h-2V13.19H.43V32.83h.94l.06.94h.82v-1.1h2Zm0-12.36H3.92v1.37h-2V21.4a8.24,8.24,0,0,1,2.26.28Z"/><path class="cls-1" d="M56.12,24.43V39.54H54.75v1.65h-1.1v1.1H52l.27,2.47,2.47.27V43.66h1.37V42.29h1.37v-3h1.1V27.18H63c0,5.82,0,12.2.27,17.58h3.58v-1.1h1.65c0-2.32-.19-4.66-.27-6.59h-.78v1.1h-.27v.27h-1.1v2.47h-1.7V24.43Z"/><path class="cls-1" d="M68.48,90.64V89H67.11v.27h-.28a3.9,3.9,0,0,0,.27-1.65l-2.47.27v.82A3.56,3.56,0,0,1,66,89v1.1h1.1v1.65l2.47-.27v-.82Z"/><path class="cls-1" d="M67.11,94.53l-1.72,0V93.11h.34V90.37H64.36V89l-2.47.27v.82H63v1.65h.91v2.88l-5,.14c0-2.4-.19-4.85-.27-6.87h-.82c-.1,2-.29,4.48-.27,6.87H56.43v1.1c-1.75,0-3.59,0-5.39.08V86H53.1V69.76h.27V68.39h1.37V67h1.37V65.64h1.37V64.27L60,64V62.9h3v1.37h1.37v1.37h1.37v8.52h-1.1l-.27,2.47H63V78H61.61v1.37l-2.47.27v1.1h-.27l.27,2.47h2.2v-1.1H63V80.75h1.37V79.38h1.37V78H67.1V75h1.1V73.9h.27V72c0-2.14-.19-4.26-.27-6H67.1V63H65.74V61.52H64.09v-1.1H63v-.27l-3.85.27v1.1l-2.71.27v1.1H54.75v1.37H53.37V61.52h1.37V58.77H53.37V57.4H53.1c-.5-1.79.23-5.27.27-6.87l-2.47.27v8h-.27v1.37l-2.93.21V45h.45v1.1H49V45h1.66V31.3L53.1,31a3.56,3.56,0,0,1,.27-1.37h1.06v-.82h-1.1V27.18l-2.75.27v-6h1.1A3.45,3.45,0,0,1,52,20h1.1V18.66h1.65v.27H58.6c3,0,6.39-.12,9.14-.25v6.66h1.49V14.82H67.74v1.61l-1.25-.07V1H65V16.28c-1.1-.06-2.24-.1-3.37-.09,0-2.32-.19-4.66-.27-6.59h-.82v1.1h-.27V11h-1.1v5.22l-5.49.27v1.37h-3c0-2.8-.17-5.84-.27-8.24h-.88V10.7c-.31.23,0,0-.27.27h-1.1v6.59c-.31.23,0,0-.27.27h-1v-3H45.44v3h0V21.4h0v3.94h1.49v-3.9a7.63,7.63,0,0,1,1.25.23v6.87h-.3v1.37H45.13l.3,3.85h.82V32.4a5,5,0,0,0,1.92.27v9.62H46.5v.14h-.29V61.81h-.78v.82a3.46,3.46,0,0,1,.78.09v.17h.59V64h.82V62.9h3.3l-.27,5.77H49.53l-.27,2.75h-1.1l-.27,2.47H46.5v1.65H45.43L45.13,78h1.65v1.1h.82l.27-2.75H49l.27-2.47h1.39v-.27h.27v9.88H49.55V96c-1.45,0-2.85.1-4.12.15v2.2a3.56,3.56,0,0,1,1.37.27v1.1H49V98.6h.55V100H51V98.6h6.48v2.75c-1.9,0-3.65.21-5.22.27L52,104.09h-1.4V111H52v1.37h1.65v1.1h2.78l-.27,3.3h-1.1l-.27,2.47H53.37v1.37H52l.27,2.47,2.47.27V122h1.37v-1.65h1.1l.27-2.75h1.1l.27-4.12H60v-7.69h-1.1V98.33h5v9.44h1.49V98.33h0v-1.1L68.21,97V94.8h-1.1Zm-9.62,14H56.43v1.1h-.27v.27a9.47,9.47,0,0,1-3-.27l.27-5.49h3v1.1h1.1Z"/><rect class="cls-1" x="43.69" y="4.18" width="1.49" height="10.52"/><path class="cls-1" d="M24,64.54h-.81v-3H21.78V60.15h-.07V44.76h1.16a3.56,3.56,0,0,1,.27-1.37h1.1v-1.1h.27c.48-1.7-.2-3.82-.27-5.22H22.05v3.85H20.43V24.43H12.16v14h-1.1l-.27,2.47H9.43v1.37H8V45h2.75V43.66h1.37V42h1.1l.27-5.49h1.1V27.18h3.3V43.39a3.56,3.56,0,0,1,1.37.27v1.1h.92v14c-2.27,0-4.53.22-6.41.22v1.1h-3v1.37L7,61.74l-.27,3.85H9.43V64.27L11.89,64V62.9l2.75-.27v-1.1h4.67v1.1a3.56,3.56,0,0,1,1.37.27V64h1.1v7.42h-1.1l-.25,2.46L18,74.15v1.1l-5.53.28v2.2h1.1v1.65l3.9-.28V78l2.75-.27a3.58,3.58,0,0,1,.25-1.37h1.1A3.49,3.49,0,0,1,21.78,75h1.1l.27-4.12H24v1.84h1.49V56.66H24Z"/><rect class="cls-3" width="70" height="296"/></g></svg>